<?xml version="1.0" standalone="no"?>
<!DOCTYPE svg PUBLIC "-//W3C//DTD SVG 1.1//EN" "http://www.w3.org/Graphics/SVG/1.1/DTD/svg11.dtd" >
<svg>
<metadata>
Created by FontForge 20090622 at Fri Apr 12 11:22:39 2019
 By deploy user
Copyright &#194;&#169; 2011 Durotype, www.durotype.com. All rights reserved.
</metadata>
<defs>
<font id="Simplo-Bold" horiz-adv-x="1878" >
  <font-face 
    font-family="Simplo"
    font-weight="700"
    font-stretch="normal"
    units-per-em="3333"
    panose-1="0 0 0 0 0 0 0 0 0 0"
    ascent="2556"
    descent="-777"
    x-height="1376"
    cap-height="2240"
    bbox="-584 -810 3781 3073"
    underline-thickness="167"
    underline-position="-215"
    unicode-range="U+0020-U+FB04"
  />
<missing-glyph horiz-adv-x="2022" 
d="M190 2368h1641v-2368h-1641v2368zM912 1184l-558 862v-1724zM1569 169l-558 863l-558 -863h1116zM1569 2199h-1116l558 -863zM1667 2046l-557 -862l557 -862v1724z" />
    <glyph glyph-name="f_f" unicode="ff" horiz-adv-x="2057" 
d="M1982 1376v-378h-295v-1757h-438v2582q0 123 33 235q-81 51 -155.5 67.5t-161.5 16.5q-150 0 -239 -120.5t-89 -326.5v-319h295v-378h-295v-1757h-439v2483q0 184 58 334t161 248.5t243.5 152t304.5 53.5q288 0 530 -142q195 153 493 158v-388q-146 -2 -223.5 -89.5
t-77.5 -246.5v-428h295z" />
    <glyph glyph-name="fi" unicode="fi" horiz-adv-x="1835" 
d="M637 998v-1757h-439v2499q0 184 57.5 334t159 248.5t241 152t304.5 53.5q407 0 717 -263v-418h-439v243q-67 37 -130 52.5t-148 15.5q-150 0 -236.5 -120t-86.5 -327v-335h295v-378h-295zM1238 1376h439v-1376h-439v1376z" />
    <glyph glyph-name="fl" unicode="fl" horiz-adv-x="1888" 
d="M637 998v-1757h-439v2499q0 184 59 334t163.5 248.5t245.5 152t306 53.5q415 0 728 -263v-2265h-439v2090q-68 37 -134.5 52.5t-154.5 15.5q-152 0 -243.5 -121t-91.5 -326v-335h295v-378h-295z" />
    <glyph glyph-name="f_f_i" unicode="ffi" horiz-adv-x="2885" 
d="M1982 1376v-378h-295v-1757h-438v2499q0 172 48 309q-84 56 -161.5 74.5t-170.5 18.5q-150 0 -239 -120.5t-89 -326.5v-319h295v-378h-295v-1757h-439v2483q0 184 58 334t161 248.5t243.5 152t304.5 53.5q301 0 546 -152q200 168 499 168q213 0 388 -66t329 -197v-418
h-439v243q-67 37 -129.5 52.5t-148.5 15.5q-150 0 -236.5 -120t-86.5 -327v-335h295zM2288 1376h439v-1376h-439v1376z" />
    <glyph glyph-name="f_f_l" unicode="ffl" horiz-adv-x="2939" 
d="M1982 1376v-378h-295v-1757h-438v2499q0 169 49 308q-84 57 -162 75.5t-171 18.5q-150 0 -239 -120.5t-89 -326.5v-319h295v-378h-295v-1757h-439v2483q0 184 58 334t161 248.5t243.5 152t304.5 53.5q301 0 550 -154q205 170 507 170q415 0 729 -263v-2265h-439v2090
q-68 37 -135 52.5t-155 15.5q-150 0 -242.5 -118.5t-92.5 -320.5v-343h295z" />
    <glyph glyph-name="f_b" unicode="fb" horiz-adv-x="2828" 
d="M637 998v-1757h-439v2499q0 184 59 334t163.5 248.5t245.5 152t306 53.5q415 0 728 -263v-962q148 105 335 105q140 0 264 -49t216.5 -137.5t146.5 -221.5t54 -291q0 -165 -52.5 -301t-151.5 -234t-250 -152t-341 -54q-354 0 -659 217v1905q-128 68 -290 68
q-152 0 -243.5 -121t-91.5 -326v-335h295v-378h-295zM1700 917v-536q108 -57 225 -57q156 0 254 102.5t98 279.5q0 168 -92.5 259t-231.5 91q-153 0 -253 -139z" />
    <glyph glyph-name="f_f_b" unicode="ffb" horiz-adv-x="3878" 
d="M1982 1376v-378h-295v-1757h-438v2499q0 169 49 308q-84 57 -162 75.5t-171 18.5q-150 0 -239 -120.5t-89 -326.5v-319h295v-378h-295v-1757h-439v2483q0 184 58 334t161 248.5t243.5 152t304.5 53.5q301 0 550 -154q205 170 507 170q415 0 729 -263v-962
q146 105 335 105q139 0 263 -49t216.5 -137.5t146.5 -221.5t54 -291q0 -165 -52.5 -301t-151.5 -234t-250 -152t-341 -54q-354 0 -659 217v1905q-68 37 -135 52.5t-155 15.5q-150 0 -242.5 -118.5t-92.5 -320.5v-343h295zM2751 917v-536q107 -57 225 -57q155 0 253 102.5
t98 279.5q0 168 -92.5 259t-231.5 91q-152 0 -252 -139z" />
    <glyph glyph-name="f_f_h" unicode="ffh" horiz-adv-x="3912" 
d="M1982 1376v-378h-295v-1757h-438v2499q0 169 49 308q-84 57 -162 75.5t-171 18.5q-150 0 -239 -120.5t-89 -326.5v-319h295v-378h-295v-1757h-439v2483q0 184 58 334t161 248.5t243.5 152t304.5 53.5q301 0 550 -154q205 170 507 170q415 0 729 -263v-1012q73 75 179 115
t223 40q286 0 431.5 -166t145.5 -496v-746h-438v713q0 174 -65 262.5t-190 88.5q-142 0 -214 -89t-72 -256v-719h-439v2090q-68 37 -135 52.5t-155 15.5q-151 0 -243 -121t-92 -326v-335h295z" />
    <glyph glyph-name="f_f_j" unicode="ffj" horiz-adv-x="2885" 
d="M1982 1376v-378h-295v-1757h-438v2499q0 172 48 309q-84 56 -161.5 74.5t-170.5 18.5q-150 0 -239 -120.5t-89 -326.5v-319h295v-378h-295v-1757h-439v2483q0 184 58 334t161 248.5t243.5 152t304.5 53.5q301 0 546 -152q200 168 499 168q213 0 388 -66t329 -197v-418
h-439v243q-67 37 -129.5 52.5t-148.5 15.5q-150 0 -236.5 -120t-86.5 -327v-335h295zM2288 1376h439v-2135h-439v2135z" />
    <glyph glyph-name="f_f_k" unicode="ffk" horiz-adv-x="3771" 
d="M1982 1376v-378h-295v-1757h-438v2499q0 169 49 308q-84 57 -162 75.5t-171 18.5q-150 0 -239 -120.5t-89 -326.5v-319h295v-378h-295v-1757h-439v2483q0 184 58 334t161 248.5t243.5 152t304.5 53.5q301 0 550 -154q205 170 507 170q415 0 729 -263v-1396l486 507h516
l-624 -653l652 -723h-511l-519 575v-575h-439v2090q-68 37 -135 52.5t-155 15.5q-150 0 -242.5 -118.5t-92.5 -320.5v-343h295z" />
    <glyph glyph-name="f_h" unicode="fh" horiz-adv-x="2862" 
d="M2680 746v-746h-439v713q0 174 -65 262.5t-190 88.5q-139 0 -212.5 -86.5t-73.5 -247.5v-730h-439v2090q-68 37 -134.5 52.5t-154.5 15.5q-152 0 -243.5 -121t-91.5 -326v-335h295v-378h-295v-1757h-439v2499q0 184 59 334t163.5 248.5t245.5 152t306 53.5
q415 0 728 -263v-1012q73 75 179 115t223 40q287 0 432.5 -166t145.5 -496z" />
    <glyph glyph-name="f_j" unicode="fj" horiz-adv-x="1835" 
d="M637 998v-1757h-439v2499q0 184 57.5 334t159 248.5t241 152t304.5 53.5q407 0 717 -263v-418h-439v243q-67 37 -130 52.5t-148 15.5q-150 0 -236.5 -120t-86.5 -327v-335h295v-378h-295zM1238 1376h439v-2135h-439v2135z" />
    <glyph glyph-name="f_k" unicode="fk" horiz-adv-x="2720" 
d="M2730 0h-510l-520 575v-575h-438v2090q-128 68 -290 68q-152 0 -243.5 -121t-91.5 -326v-335h295v-378h-295v-1757h-439v2499q0 184 59 334t163.5 248.5t245.5 152t306 53.5q415 0 728 -263v-1396l487 507h516l-624 -653z" />
    <glyph glyph-name=".notdef" horiz-adv-x="2022" 
d="M190 2368h1641v-2368h-1641v2368zM912 1184l-558 862v-1724zM1569 169l-558 863l-558 -863h1116zM1569 2199h-1116l558 -863zM1667 2046l-557 -862l557 -862v1724z" />
    <glyph glyph-name=".null" horiz-adv-x="0" 
 />
    <glyph glyph-name="nonmarkingreturn" horiz-adv-x="1111" 
 />
    <glyph glyph-name="space" unicode=" " horiz-adv-x="850" 
 />
    <glyph glyph-name="exclam" unicode="!" horiz-adv-x="942" 
d="M475 490q108 0 184.5 -77t76.5 -184q0 -108 -76.5 -184.5t-184.5 -76.5q-107 0 -184 76.5t-77 184.5q0 107 77 184t184 77zM261 2240h428v-1576h-428v1576z" />
    <glyph glyph-name="quotedbl" unicode="&#x22;" horiz-adv-x="1303" 
d="M156 2496h405l-38 -927h-327zM756 2496h403l-38 -927h-326z" />
    <glyph glyph-name="numbersign" unicode="#" horiz-adv-x="1894" 
d="M1779 1304h-322l-53 -366h285v-304h-332l-94 -634h-309l94 634h-314l-93 -634h-309l94 634h-306v304h352l54 366h-322v305h365l93 631h310l-94 -631h313l94 631h309l-93 -631h278v-305zM1094 938l53 366h-312l-53 -366h312z" />
    <glyph glyph-name="dollar" unicode="$" horiz-adv-x="1638" 
d="M1456 1946l-293 -235q-86 95 -160 139.5t-148 44.5q-80 0 -137.5 -46t-57.5 -134q0 -55 29.5 -107.5t80 -98.5t115.5 -93l137 -96.5l144.5 -103t137.5 -118t115.5 -135.5t80 -162.5t29.5 -192.5q0 -248 -147 -416t-409 -210v-316h-328v317q-356 67 -568 425l336 215
q82 -135 178.5 -204.5t224.5 -69.5q96 0 173.5 63t77.5 161q0 68 -29.5 129.5t-79.5 112t-114.5 99.5l-136 98.5l-143.5 101.5t-136.5 115.5t-114.5 134t-79.5 164t-29.5 198.5q0 195 128.5 338.5t336.5 188.5v321h317v-318q243 -55 470 -310z" />
    <glyph glyph-name="percent" unicode="%" horiz-adv-x="2696" 
d="M601 2256q120 0 219 -56t161 -148t95.5 -207t33.5 -237q0 -98 -18.5 -194t-59.5 -184.5t-99.5 -156t-144 -108t-187.5 -40.5t-188 40.5t-144 107.5t-99 156t-59.5 185t-18.5 194q0 122 33.5 237t95.5 207t161 148t219 56zM601 2002q-70 0 -120 -62.5t-71 -149t-21 -182.5
q0 -73 11 -144t34 -137t66.5 -106.5t100.5 -40.5t100.5 40.5t66.5 106.5t34 137t11 144q0 70 -13 137.5t-37.5 126t-66.5 94.5t-95 36zM2087 1315q120 0 219 -56t161 -148t95.5 -207t33.5 -237q0 -98 -18.5 -194t-59.5 -185t-99 -156t-144 -107.5t-188 -40.5t-187.5 40.5
t-144 108t-99.5 156t-59.5 184.5t-18.5 194q0 122 33.5 237t95.5 207t161 148t219 56zM2087 1061q-70 0 -120 -62.5t-71 -149t-21 -182.5q0 -74 11 -145t34 -137t66.5 -106.5t100.5 -40.5t100.5 40.5t66.5 106.5t34 137t11 145q0 96 -21 182.5t-71 149t-120 62.5zM1850 2304
h324l-1335 -2368h-325z" />
    <glyph glyph-name="ampersand" unicode="&#x26;" horiz-adv-x="2157" 
d="M1744 536l446 -536h-525l-204 248q-133 -130 -295 -205t-341 -75q-149 0 -284.5 50.5t-235.5 138.5t-159 215t-59 273q0 83 20.5 155t56.5 133t98.5 124t133.5 119t174 127q-210 234 -210 447q0 241 161.5 381.5t414.5 140.5q155 0 285 -58t211.5 -173.5t81.5 -268.5
q0 -84 -30 -160.5t-88 -144t-113.5 -116.5t-135.5 -108l341 -404l224 254l276 -277zM930 1955q-71 0 -121 -47t-50 -123q0 -56 28.5 -104.5t106.5 -144.5l13 -16q46 33 71.5 53.5t62.5 56.5t54.5 73t17.5 76q0 84 -51 130t-132 46zM1207 544l-391 468q-71 -47 -119 -83.5
t-96.5 -83.5t-73 -96.5t-24.5 -100.5q0 -126 96.5 -224t217.5 -98q97 0 191 58.5t199 159.5z" />
    <glyph glyph-name="quotesingle" unicode="'" horiz-adv-x="703" 
d="M156 2496h403l-38 -927h-326z" />
    <glyph glyph-name="parenleft" unicode="(" horiz-adv-x="1059" 
d="M1053 -582h-411q-218 293 -350 675.5t-132 797.5q0 780 482 1483h411q-482 -734 -482 -1483q0 -746 482 -1473z" />
    <glyph glyph-name="parenright" unicode=")" horiz-adv-x="1060" 
d="M418 -582h-412q482 725 482 1473q0 749 -482 1483h412q482 -703 482 -1483q0 -415 -131.5 -798t-350.5 -675z" />
    <glyph glyph-name="asterisk" unicode="*" horiz-adv-x="1284" 
d="M519 2022v307h257v-304l264 150l128 -223l-263 -151l263 -153l-128 -224l-264 150v-300h-257v303l-267 -153l-128 224l263 153l-263 150l128 224z" />
    <glyph glyph-name="plus" unicode="+" horiz-adv-x="1810" 
d="M721 761h-610v362h610v613h368v-613h613v-362h-613v-616h-368v616z" />
    <glyph glyph-name="comma" unicode="," horiz-adv-x="875" 
d="M322 464h448l-382 -925h-346z" />
    <glyph glyph-name="hyphen" unicode="-" horiz-adv-x="1255" 
d="M193 1022h879v-341h-879v341z" />
    <glyph glyph-name="period" unicode="." horiz-adv-x="826" 
d="M417 480q106 0 181 -75.5t75 -180.5q0 -106 -75 -181t-181 -75q-105 0 -180.5 75t-75.5 181q0 105 75.5 180.5t180.5 75.5z" />
    <glyph glyph-name="slash" unicode="/" horiz-adv-x="1322" 
d="M901 2318h397l-908 -2576h-397z" />
    <glyph glyph-name="zero" unicode="0" horiz-adv-x="2054" 
d="M1029 2272q137 0 259 -44.5t215.5 -123t168 -185t122 -231.5t72.5 -261.5t25 -276.5q0 -170 -31.5 -335.5t-100.5 -319.5t-168 -270.5t-244 -186.5t-318 -70q-125 0 -236 36.5t-197 101t-157.5 153.5t-121.5 193t-84.5 221.5t-50.5 237t-16 239.5q0 140 25 276.5
t73 261.5t122.5 231.5t168 185t215.5 123t259 44.5zM1029 1871q-103 0 -184.5 -65.5t-129.5 -172.5t-73 -231t-25 -252q0 -105 12.5 -208.5t43 -209t76 -184.5t118 -129t162.5 -50t162.5 50t118 129t76 184.5t43 209t12.5 208.5q0 128 -25 252t-73 231t-129.5 172.5
t-184.5 65.5z" />
    <glyph glyph-name="one" unicode="1" horiz-adv-x="1169" 
d="M435 1840h-339l85 400h709v-2240h-455v1840z" />
    <glyph glyph-name="two" unicode="2" horiz-adv-x="1772" 
d="M1618 400v-400h-1550l940 1190q154 194 154 374q0 128 -88.5 218t-210.5 90q-132 0 -218 -91t-116 -245h-416q4 145 67 280t165 235t241.5 160.5t288.5 60.5q165 0 306 -57.5t235.5 -154.5t148 -224.5t53.5 -267.5q0 -86 -15 -164t-33.5 -131t-56 -114.5t-61 -93
t-69.5 -88.5l-460 -577h695z" />
    <glyph glyph-name="three" unicode="3" horiz-adv-x="1801" 
d="M107 674h415q12 -133 112.5 -219t230.5 -86q138 0 230 87t92 224q0 146 -104 236.5t-262 90.5v316q139 0 223.5 75.5t84.5 200.5q0 118 -79 195t-190 77q-114 0 -190.5 -75t-99.5 -200h-402q5 136 67 262t158.5 216t222.5 144t255 54q156 0 290.5 -54t225 -144.5
t142 -208.5t51.5 -246q0 -260 -229 -431q292 -181 292 -521q0 -137 -54.5 -262.5t-151.5 -223t-244.5 -155.5t-321.5 -58q-139 0 -274.5 53t-242.5 144.5t-175 225t-72 283.5z" />
    <glyph glyph-name="four" unicode="4" horiz-adv-x="1835" 
d="M1023 0v392h-1008v136l1274 1747h190v-1483h241v-400h-241v-392h-456zM1031 784v577l-421 -577h421z" />
    <glyph glyph-name="five" unicode="5" horiz-adv-x="1785" 
d="M1604 1842h-710l-82 -285h26q161 0 307.5 -58.5t254 -160.5t171 -247.5t63.5 -311.5q0 -229 -111.5 -415.5t-304 -291t-426.5 -104.5t-429.5 113.5t-319.5 320.5l308 214q66 -118 173.5 -183t229.5 -65q179 0 301.5 123t122.5 301q0 182 -131 303t-324 121
q-277 0 -487 -183l349 1207h1019v-398z" />
    <glyph glyph-name="six" unicode="6" horiz-adv-x="1899" 
d="M1034 2240h531l-525 -668l25 -3q147 -18 278 -84.5t228 -168t153.5 -239t56.5 -290.5q0 -166 -66 -317.5t-178 -261.5t-266 -175t-322 -65t-322 65t-266 175t-178 261.5t-66 317.5q0 280 198 532zM1340 787q0 171 -114 293.5t-277 122.5q-162 0 -276.5 -121.5
t-114.5 -294.5q0 -112 52 -207.5t142 -152t197 -56.5q162 0 276.5 121.5t114.5 294.5z" />
    <glyph glyph-name="seven" unicode="7" horiz-adv-x="1953" 
d="M1179 1840h-1082v400h1862l-1348 -2240h-525z" />
    <glyph glyph-name="eight" unicode="8" horiz-adv-x="1822" 
d="M908 2272q199 0 358.5 -84t248.5 -233t89 -336q0 -133 -59 -237t-176 -196q296 -203 296 -519q0 -143 -57.5 -272t-156.5 -223t-240.5 -149t-302.5 -55q-216 0 -390 93t-270.5 253t-96.5 353q0 162 72.5 287.5t220.5 230.5q-118 92 -175.5 196t-57.5 238q0 141 52 262.5
t143.5 207.5t221 134.5t280.5 48.5zM908 974q-133 0 -224.5 -89t-91.5 -218q0 -130 91 -218.5t225 -88.5q133 0 224 88.5t91 218.5q0 129 -91 218t-224 89zM908 1895q-111 0 -190.5 -78.5t-79.5 -192.5t79.5 -192t190.5 -78t190 78t79 192t-79 192.5t-190 78.5z" />
    <glyph glyph-name="nine" unicode="9" horiz-adv-x="1894" 
d="M869 0h-531l525 668l-24 3q-144 18 -274.5 83t-228.5 165.5t-156 239t-58 294.5q0 166 66 317.5t178 261.5t266 175t322 65t322 -65t266 -175t178 -261.5t66 -317.5q0 -279 -197 -532zM1345 1453q0 112 -52 207.5t-142 152t-197 56.5q-162 0 -276.5 -121.5t-114.5 -294.5
q0 -112 52 -207.5t142 -152t197 -56.5q162 0 276.5 121.5t114.5 294.5z" />
    <glyph glyph-name="colon" unicode=":" horiz-adv-x="877" 
d="M443 480q106 0 181 -75.5t75 -180.5q0 -106 -75 -181t-181 -75q-105 0 -180.5 75t-75.5 181q0 105 75.5 180.5t180.5 75.5zM443 1408q106 0 181 -75.5t75 -180.5q0 -106 -75 -181t-181 -75q-105 0 -180.5 75t-75.5 181q0 105 75.5 180.5t180.5 75.5z" />
    <glyph glyph-name="semicolon" unicode=";" horiz-adv-x="959" 
d="M549 1408q106 0 181.5 -75.5t75.5 -180.5q0 -106 -75.5 -181t-181.5 -75q-105 0 -180 75t-75 181q0 105 75.5 180.5t179.5 75.5zM315 464h447l-381 -925h-348z" />
    <glyph glyph-name="less" unicode="&#x3c;" horiz-adv-x="1966" 
d="M1733 1782v-379l-1126 -462l1126 -462v-379l-1631 679v324z" />
    <glyph glyph-name="equal" unicode="=" horiz-adv-x="2024" 
d="M218 777h1591v-361h-1591v361zM218 1466h1591v-362h-1591v362z" />
    <glyph glyph-name="greater" unicode="&#x3e;" horiz-adv-x="1973" 
d="M242 1403v379l1631 -679v-324l-1631 -679v379l1126 462z" />
    <glyph glyph-name="question" unicode="?" horiz-adv-x="1493" 
d="M924 823v-159h-422v245q0 92 27 169.5t70 131.5t95 100.5t104.5 85.5t95.5 76.5t70 84.5t27 99q0 100 -77.5 170.5t-182.5 70.5q-110 0 -185 -69.5t-98 -184.5h-406q5 127 64 244t152.5 201t216.5 134t251 50q152 0 284.5 -50.5t221.5 -135t140 -195t51 -229.5
q0 -92 -27.5 -169t-71.5 -131t-97 -102.5l-106.5 -93.5t-97.5 -92.5t-71.5 -111.5t-27.5 -139zM713 490q108 0 184.5 -77t76.5 -184q0 -108 -76.5 -184.5t-184.5 -76.5q-107 0 -183.5 76.5t-76.5 184.5q0 107 76.5 184t183.5 77z" />
    <glyph glyph-name="at" unicode="@" horiz-adv-x="2774" 
d="M2212 1089l326 133q107 -247 107 -489q0 -245 -97 -466.5t-263.5 -381.5t-399 -254.5t-492.5 -94.5q-208 0 -400 60t-345.5 170.5t-267.5 257.5t-176 330t-62 379t58 370.5t164 307.5t249 230.5t318 148t366 50.5q82 0 166.5 -17t167.5 -50t155 -87t127.5 -122.5
t87.5 -162t32 -200.5v-785q-291 -202 -640 -202q-127 0 -238.5 35t-195.5 99t-132.5 163t-48.5 219q0 233 159 364t424 131q178 0 308 -103q-6 102 -36.5 179t-81 122.5t-114 68t-140.5 22.5q-229 0 -409 -93.5t-283.5 -272.5t-103.5 -415q0 -179 66.5 -339.5t183 -277.5
t283.5 -185.5t359 -68.5t359 68.5t283.5 185.5t183 277.5t66.5 339.5q0 175 -73 356zM1674 603v141q-82 156 -316 156q-91 0 -156 -49t-65 -124q0 -93 75.5 -142.5t199.5 -49.5t262 68z" />
    <glyph glyph-name="A" unicode="A" horiz-adv-x="2078" 
d="M1619 0l-126 300h-892l-138 -300h-505l1125 2304l1031 -2304h-495zM1345 653l-278 660l-304 -660h582z" />
    <glyph glyph-name="B" unicode="B" horiz-adv-x="1975" 
d="M1033 0h-766v2240h706q155 0 292.5 -43t240.5 -120.5t163 -194.5t60 -257q0 -250 -229 -431q164 -91 257 -228.5t93 -318.5q0 -147 -65 -270t-176.5 -205t-260 -127t-315.5 -45zM1036 980h-308v-590h307q156 0 254.5 75.5t98.5 215.5q0 145 -98 222t-254 77zM965 1850
h-237v-521h242q131 0 214.5 69.5t83.5 196.5q0 125 -84 190t-219 65z" />
    <glyph glyph-name="C" unicode="C" horiz-adv-x="2257" 
d="M2207 1840l-311 -265q-245 278 -599 278q-191 0 -353 -98.5t-256 -267t-94 -367.5t94 -367.5t256 -267t353 -98.5q183 0 334.5 73.5t282.5 224.5l289 -289q-177 -201 -413 -314.5t-493 -113.5q-237 0 -452.5 91.5t-371.5 245.5t-248.5 367.5t-92.5 447.5t92.5 447.5
t248.5 367.5t371.5 245.5t452.5 91.5q258 0 494.5 -114.5t415.5 -317.5z" />
    <glyph glyph-name="D" unicode="D" horiz-adv-x="2301" 
d="M961 0h-694v2240h573q218 0 417.5 -48.5t365 -144.5t287.5 -229.5t190 -312.5t68 -385q0 -230 -89.5 -435.5t-246 -356.5t-383 -239.5t-488.5 -88.5zM850 1837h-122v-1434h242q156 0 293.5 56.5t234.5 153t153 228.5t56 279q0 164 -66.5 300.5t-182 227t-272 140
t-336.5 49.5z" />
    <glyph glyph-name="E" unicode="E" horiz-adv-x="1660" 
d="M267 2240h1214v-403h-752v-461h632v-403h-632v-570h804v-403h-1266v2240z" />
    <glyph glyph-name="F" unicode="F" horiz-adv-x="1554" 
d="M728 0h-461v2240h1214v-403h-753v-461h632v-403h-632v-973z" />
    <glyph glyph-name="G" unicode="G" horiz-adv-x="2483" 
d="M1841 738h-556v371h1106q-2 -242 -84.5 -453t-226 -362.5t-348.5 -238.5t-443 -87q-237 0 -453 91.5t-372 245.5t-248.5 367.5t-92.5 447.5t92.5 447.5t248.5 367.5t372 245.5t453 91.5q276 0 525.5 -131t426.5 -358l-314 -266q-246 336 -638 336q-191 0 -353.5 -98.5
t-256.5 -267t-94 -367.5t94 -367.5t256.5 -267t353.5 -98.5q204 0 352.5 93.5t199.5 257.5z" />
    <glyph glyph-name="H" unicode="H" horiz-adv-x="2375" 
d="M267 2240h461v-864h917v864h461v-2240h-461v973h-917v-973h-461v2240z" />
    <glyph glyph-name="I" unicode="I" horiz-adv-x="987" 
d="M268 2240h461v-2240h-461v2240z" />
    <glyph glyph-name="J" unicode="J" horiz-adv-x="1463" 
d="M-17 102l180 349q121 -79 251 -79q77 0 136 22t106 71t72 136t25 208v1431h461v-1499q0 -166 -43 -299t-114.5 -220t-171 -145.5t-206.5 -83.5t-226 -25q-146 0 -257 36t-213 98z" />
    <glyph glyph-name="K" unicode="K" horiz-adv-x="2184" 
d="M267 0v2240h461v-912l818 912h574l-962 -1055l1035 -1185h-567l-898 1032v-1032h-461z" />
    <glyph glyph-name="L" unicode="L" horiz-adv-x="1427" 
d="M267 2240h461v-1837h689v-403h-1150v2240z" />
    <glyph glyph-name="M" unicode="M" horiz-adv-x="2712" 
d="M1903 1131l-551 -1195l-549 1195l-320 -1131h-473l670 2304l672 -1441l671 1441l674 -2304h-477z" />
    <glyph glyph-name="N" unicode="N" horiz-adv-x="2595" 
d="M1863 915v1325h461v-2304l-1596 1392v-1328h-461v2304z" />
    <glyph glyph-name="O" unicode="O" horiz-adv-x="2599" 
d="M1297 2272q237 0 453 -91.5t372 -245.5t248.5 -367.5t92.5 -447.5t-92.5 -447.5t-248.5 -367.5t-372 -245.5t-453 -91.5t-453 91.5t-372 245.5t-248.5 367.5t-92.5 447.5t92.5 447.5t248.5 367.5t372 245.5t453 91.5zM1297 1853q-191 0 -353 -98.5t-256 -267t-94 -367.5
t94 -367.5t256 -267t353 -98.5t353.5 98.5t256.5 267t94 367.5t-94 367.5t-256.5 267t-353.5 98.5z" />
    <glyph glyph-name="P" unicode="P" horiz-adv-x="1810" 
d="M729 832v-832h-462v2240h743q155 0 292 -48t240 -136t163 -222.5t60 -297.5t-60 -297.5t-163 -222.5t-240 -136t-292 -48h-281zM956 1837h-227v-622h228q152 0 249.5 83t97.5 238q0 147 -97.5 224t-250.5 77z" />
    <glyph glyph-name="Q" unicode="Q" horiz-adv-x="2650" 
d="M2463 340v-372q-336 0 -572 160q-276 -160 -594 -160q-237 0 -452.5 91.5t-371.5 245.5t-248.5 367.5t-92.5 447.5t92.5 447.5t248.5 367.5t371.5 245.5t452.5 91.5t453 -91.5t372 -245.5t248.5 -367.5t92.5 -447.5q0 -206 -70.5 -393t-198.5 -338q121 -49 269 -49z
M1221 550v372q111 0 205 -17t169 -51.5t129 -68.5t116 -84q76 83 118.5 191t42.5 228q0 199 -94 367.5t-256.5 267t-353.5 98.5t-353 -98.5t-256 -267t-94 -367.5t94 -367.5t256 -267t353 -98.5q133 0 257 52q-160 111 -333 111z" />
    <glyph glyph-name="R" unicode="R" horiz-adv-x="1909" 
d="M955 892h-227v-892h-461v2240h742q208 0 378.5 -80.5t274 -236t103.5 -357.5q0 -190 -95.5 -347t-259.5 -244l423 -975h-505zM973 1837h-245v-561h246q150 0 240 72.5t90 211.5q0 135 -90.5 206t-240.5 71z" />
    <glyph glyph-name="S" unicode="S" horiz-adv-x="1633" 
d="M1452 1946l-292 -235q-87 95 -160.5 139.5t-147.5 44.5q-80 0 -137.5 -46t-57.5 -134q0 -55 29.5 -107.5t80 -98.5t115.5 -93l137 -96.5l144 -103t137 -118t115.5 -135.5t80 -162.5t29.5 -192.5q0 -140 -49.5 -258t-141 -202.5t-228 -132t-304.5 -47.5q-241 0 -425 117.5
t-307 329.5l342 198q161 -264 400 -264q96 0 173.5 63t77.5 161q0 68 -29.5 129.5t-79.5 112t-114.5 99.5l-136 98.5l-143 101.5t-136 115.5t-114.5 134t-79.5 164t-29.5 198.5q0 154 82.5 279t228 196t324.5 71q167 0 318.5 -80.5t297.5 -245.5z" />
    <glyph glyph-name="T" unicode="T" horiz-adv-x="1525" 
d="M1522 1837h-527v-1837h-461v1837h-527v403h1515v-403z" />
    <glyph glyph-name="U" unicode="U" horiz-adv-x="2354" 
d="M1634 478v1762h462v-2000q-184 -126 -405 -199t-442 -73q-124 0 -228.5 10.5t-209 37.5t-186.5 70.5t-153.5 112.5t-118.5 160.5t-74 217.5t-27 280v1383h461v-1286q0 -140 27.5 -245t73.5 -169.5t116 -104.5t145.5 -54.5t170.5 -14.5q202 0 388 112z" />
    <glyph glyph-name="V" unicode="V" horiz-adv-x="2042" 
d="M-25 2240h498l570 -1283l531 1283h498l-1029 -2304z" />
    <glyph glyph-name="W" unicode="W" horiz-adv-x="3348" 
d="M1674 1297l-616 -1361l-1067 2304h498l585 -1283l600 1347l628 -1347l552 1283h498l-1030 -2304z" />
    <glyph glyph-name="X" unicode="X" horiz-adv-x="1954" 
d="M711 1174l-665 1066h535l397 -636l397 636h538l-668 -1066l734 -1174h-535l-466 747l-466 -747h-535z" />
    <glyph glyph-name="Y" unicode="Y" horiz-adv-x="1913" 
d="M1190 1032v-1032h-461v1032l-756 1208h535l451 -720l449 720h535z" />
    <glyph glyph-name="Z" unicode="Z" horiz-adv-x="1836" 
d="M775 403h971v-403h-1714l1005 1837h-881v403h1624z" />
    <glyph glyph-name="bracketleft" unicode="[" horiz-adv-x="1027" 
d="M634 -211h348v-349h-733v2911h733v-348h-348v-2214z" />
    <glyph glyph-name="backslash" unicode="\" horiz-adv-x="1329" 
d="M32 2318h397l908 -2576h-397z" />
    <glyph glyph-name="bracketright" unicode="]" horiz-adv-x="1027" 
d="M45 2351h733v-2911h-733v349h348v2214h-348v348z" />
    <glyph glyph-name="asciicircum" unicode="^" horiz-adv-x="1572" 
d="M1503 966h-376l-337 789l-338 -789h-377l553 1274h323z" />
    <glyph glyph-name="underscore" unicode="_" horiz-adv-x="1677" 
d="M-7 -291h1690v-167h-1690v167z" />
    <glyph glyph-name="grave" unicode="`" horiz-adv-x="847" 
d="M7 2314h456l290 -506h-345z" />
    <glyph glyph-name="a" unicode="a" horiz-adv-x="1618" 
d="M345 1034l-105 246q248 128 559 128q102 0 192.5 -16.5t174 -55.5t143.5 -97.5t95.5 -148t35.5 -200.5v-705q-156 -107 -335.5 -162t-358.5 -55q-133 0 -251 33.5t-208.5 95.5t-143.5 159.5t-53 217.5q0 208 153 331.5t407 123.5q204 0 350 -118q0 72 -20 124.5
t-50.5 82.5t-78.5 47.5t-93.5 23t-105.5 5.5q-159 0 -307 -60zM1000 349v151q-82 145 -282 145q-89 0 -150.5 -48t-61.5 -126q0 -88 68.5 -137.5t180.5 -49.5q121 0 245 65z" />
    <glyph glyph-name="b" unicode="b" horiz-adv-x="1766" 
d="M200 185v2311h439v-1193q146 105 335 105q139 0 263 -49t216.5 -137.5t146.5 -221.5t54 -291q0 -165 -52.5 -301t-151.5 -234t-250 -152t-340 -54q-355 0 -660 217zM639 917v-536q107 -57 225 -57q155 0 253 102.5t98 279.5q0 168 -92.5 259t-231.5 91q-152 0 -252 -139z
" />
    <glyph glyph-name="c" unicode="c" horiz-adv-x="1531" 
d="M1440 1159l-267 -222q-119 126 -292 126q-143 0 -246.5 -108t-103.5 -267t103.5 -267t246.5 -108q96 0 180 44.5t142 126.5l280 -215q-113 -140 -274.5 -220.5t-342.5 -80.5q-155 0 -295.5 57t-242.5 153.5t-162 229.5t-60 280t60 280t162 229.5t242.5 153.5t295.5 57
q163 0 311 -65.5t263 -183.5z" />
    <glyph glyph-name="d" unicode="d" horiz-adv-x="1768" 
d="M1132 1303v1193h439v-2311q-305 -217 -659 -217q-190 0 -341 54t-250 152t-151.5 234t-52.5 301q0 158 54 291t146.5 221.5t216 137.5t263.5 49q189 0 335 -105zM1132 381v536q-100 139 -252 139q-139 0 -231.5 -91t-92.5 -259q0 -177 98 -279.5t254 -102.5q117 0 224 57
z" />
    <glyph glyph-name="e" unicode="e" horiz-adv-x="1638" 
d="M1543 603h-1006q5 -148 99 -241t241 -93q108 0 193 38t181 126l228 -190q-135 -135 -282.5 -205t-337.5 -70q-213 0 -382.5 89.5t-266.5 254t-97 376.5q0 211 96 376.5t258.5 254.5t360.5 89q156 0 287 -55.5t226 -157.5t148.5 -254t53.5 -338zM547 847h575
q-28 121 -105.5 189t-188.5 68q-104 0 -179 -68t-102 -189z" />
    <glyph glyph-name="f" unicode="f" horiz-adv-x="1007" 
d="M932 998h-295v-1757h-439v2582q0 216 95 376t261 243t384 86v-388q-147 -2 -224 -91.5t-77 -253.5v-419h295v-378z" />
    <glyph glyph-name="g" unicode="g" horiz-adv-x="1769" 
d="M1134 -57v130q-146 -105 -335 -105q-145 0 -270.5 51t-215.5 141t-142 221.5t-52 285.5q0 165 52 301t151 234t250.5 152t341.5 54q353 0 659 -217v-1285q0 -327 -192 -512t-549 -185q-282 0 -604 139l121 302q252 -98 456 -98q94 0 159 26.5t102 79.5t52.5 122t15.5 163
zM1134 459v536q-107 57 -225 57q-155 0 -253 -102.5t-98 -279.5q0 -169 92 -259.5t232 -90.5q152 0 252 139z" />
    <glyph glyph-name="h" unicode="h" horiz-adv-x="1802" 
d="M1181 0v713q0 174 -65 262.5t-190 88.5q-141 0 -213.5 -89t-72.5 -256v-719h-439v2496h439v-1243q73 75 179 115t223 40q287 0 432.5 -166t145.5 -496v-746h-439z" />
    <glyph glyph-name="i" unicode="i" horiz-adv-x="814" 
d="M440 1733h-57q-89 0 -152.5 63t-63.5 152v71q0 89 63.5 152.5t152.5 63.5h57q90 0 153 -63.5t63 -152.5v-71q0 -89 -63.5 -152t-152.5 -63zM192 1376h439v-1376h-439v1376z" />
    <glyph glyph-name="j" unicode="j" horiz-adv-x="813" 
d="M439 1733h-57q-89 0 -152.5 63t-63.5 152v71q0 89 63.5 152.5t152.5 63.5h57q90 0 153 -63.5t63 -152.5v-71q0 -89 -63.5 -152t-152.5 -63zM191 1376h439v-2135h-439v2135z" />
    <glyph glyph-name="k" unicode="k" horiz-adv-x="1660" 
d="M201 0v2496h439v-1627l486 507h516l-624 -653l652 -723h-511l-519 575v-575h-439z" />
    <glyph glyph-name="l" unicode="l" horiz-adv-x="831" 
d="M204 2496h439v-2496h-439v2496z" />
    <glyph glyph-name="m" unicode="m" horiz-adv-x="2605" 
d="M201 0v1376h439v-142q73 83 172 128.5t211 45.5q140 0 237 -56t162 -173q200 229 459 229q269 0 402.5 -157t133.5 -487v-764h-439v716q0 348 -210 348q-240 0 -240 -357v-707h-438v716q0 348 -210 348q-240 0 -240 -357v-707h-439z" />
    <glyph glyph-name="n" unicode="n" horiz-adv-x="1801" 
d="M1181 0v713q0 351 -255 351q-141 0 -213.5 -89t-72.5 -256v-719h-439v1376h439v-142q75 83 179.5 128.5t226.5 45.5q574 0 574 -662v-746h-439z" />
    <glyph glyph-name="o" unicode="o" horiz-adv-x="1734" 
d="M869 1408q154 0 294.5 -57t242.5 -153.5t162 -229.5t60 -280t-60 -280t-162 -229.5t-242.5 -153.5t-294.5 -57q-155 0 -295.5 57t-242.5 153.5t-162 229.5t-60 280t60 280t162 229.5t242.5 153.5t295.5 57zM869 1063q-139 0 -237.5 -108t-98.5 -267q0 -158 98.5 -266.5
t237.5 -108.5t236.5 108t97.5 267t-97.5 267t-236.5 108z" />
    <glyph glyph-name="p" unicode="p" horiz-adv-x="1766" 
d="M639 73v-832h-439v1950q305 217 660 217q189 0 340 -54t250 -152t151.5 -234t52.5 -301q0 -159 -53.5 -292t-146 -221.5t-216.5 -137t-264 -48.5q-189 0 -335 105zM639 994v-535q100 -139 252 -139q139 0 231.5 91t92.5 259q0 177 -98 279.5t-253 102.5q-119 0 -225 -58z
" />
    <glyph glyph-name="q" unicode="q" horiz-adv-x="1766" 
d="M1571 1191v-1950h-438v832q-148 -105 -335 -105q-141 0 -265 48.5t-216.5 137t-146 221.5t-53.5 292q0 165 52.5 301t151.5 234t250 152t341 54q354 0 659 -217zM1133 459v535q-107 58 -225 58q-156 0 -254 -102.5t-98 -279.5q0 -168 92.5 -259t231.5 -91q151 0 253 139z
" />
    <glyph glyph-name="r" unicode="r" horiz-adv-x="1229" 
d="M201 0v1376h440v-173q188 205 382 205q131 0 226 -66l-169 -306q-73 36 -150 36q-122 0 -205.5 -93.5t-83.5 -234.5v-744h-440z" />
    <glyph glyph-name="s" unicode="s" horiz-adv-x="1240" 
d="M1035 1249l-182 -214q-103 81 -185 81q-41 0 -68.5 -23.5t-27.5 -61.5q0 -33 32 -67t83.5 -65.5l114 -67t124.5 -79.5t113.5 -94.5t83.5 -121t32 -150.5q0 -200 -142 -309t-406 -109q-294 0 -540 229l212 216q104 -84 170 -115.5t136 -31.5q64 0 101.5 35.5t37.5 87.5
q0 40 -31 77t-81 69.5t-110 67.5t-120 76.5t-110 89.5t-81 115t-31 144q0 119 61 206.5t162 130.5t228 43q114 0 226.5 -39.5t197.5 -119.5z" />
    <glyph glyph-name="t" unicode="t" horiz-adv-x="1005" 
d="M932 997h-295v-997h-439v1881h439v-505h295v-379z" />
    <glyph glyph-name="u" unicode="u" horiz-adv-x="1777" 
d="M1140 374v1002h440v-1191q-305 -217 -671 -217q-122 0 -221 15.5t-195 59t-160.5 114t-104 187.5t-39.5 273v759h440v-697q0 -108 22.5 -183t64 -113.5t89 -54.5t109.5 -16q114 0 226 62z" />
    <glyph glyph-name="v" unicode="v" horiz-adv-x="1572" 
d="M-10 1376h447l350 -680l350 680h447l-797 -1440z" />
    <glyph glyph-name="w" unicode="w" horiz-adv-x="2436" 
d="M1212 684l-442 -748l-772 1440h448l344 -678l422 742l390 -743l387 679h447l-813 -1440z" />
    <glyph glyph-name="x" unicode="x" horiz-adv-x="1646" 
d="M586 760l-491 616h489l245 -311l243 311h489l-490 -616l604 -760h-489l-357 453l-358 -453h-490z" />
    <glyph glyph-name="y" unicode="y" horiz-adv-x="1663" 
d="M1220 1376h453l-1080 -2135h-454l469 926l-614 1209h451l387 -764z" />
    <glyph glyph-name="z" unicode="z" horiz-adv-x="1597" 
d="M747 355h752v-355h-1472l762 1021h-599v355h1322z" />
    <glyph glyph-name="braceleft" unicode="{" horiz-adv-x="1079" 
d="M355 1356v535q0 101 24.5 180t67 131t103 86t128 48.5t147.5 14.5h223v-335h-112q-103 0 -149.5 -69t-46.5 -186v-466q0 -92 -23 -165.5t-61 -119.5t-79 -73t-85 -39v-2q44 -11 85 -38t79 -72t61 -118.5t23 -165.5v-469q0 -117 48 -187t148 -70h112v-336h-223
q-80 0 -147.5 14.5t-128 48.5t-103 87t-67 134.5t-24.5 186.5v528q0 126 -66 207t-192 81v341q126 0 192 81.5t66 206.5z" />
    <glyph glyph-name="bar" unicode="|" horiz-adv-x="851" 
d="M249 2496h362v-3255h-362v3255z" />
    <glyph glyph-name="braceright" unicode="}" horiz-adv-x="1079" 
d="M31 -224h112q101 0 149 70t48 187v469q0 92 23 165.5t61 118.5t78.5 72t84.5 38v2q-44 12 -84.5 39t-78.5 73t-61 119.5t-23 165.5v466q0 117 -47 186t-150 69h-112v335h224q100 0 182 -24t148 -76t102.5 -143.5t36.5 -216.5v-535q0 -125 66.5 -206.5t191.5 -81.5v-341
q-125 0 -191.5 -81t-66.5 -207v-528q0 -105 -24.5 -186.5t-66.5 -134.5t-103 -87t-128 -48.5t-147 -14.5h-224v336z" />
    <glyph glyph-name="asciitilde" unicode="~" horiz-adv-x="1965" 
d="M1465 1328h348q-27 -307 -155.5 -468.5t-312.5 -161.5q-106 0 -192.5 28t-142.5 68t-104.5 79.5t-101 67.5t-108.5 28q-138 0 -184 -259h-348q27 307 156 468.5t312 161.5q106 0 192.5 -28t143 -68t104.5 -79.5t101 -67.5t108 -28q71 0 116 63.5t68 195.5z" />
    <glyph glyph-name="uni00A0" unicode="&#xa0;" horiz-adv-x="850" 
 />
    <glyph glyph-name="exclamdown" unicode="&#xa1;" horiz-adv-x="934" 
d="M472 1718q107 0 184 -76.5t77 -184.5q0 -107 -77 -184t-184 -77q-108 0 -184.5 77t-76.5 184q0 108 76.5 184.5t184.5 76.5zM259 1022h427v-1576h-427v1576z" />
    <glyph glyph-name="cent" unicode="&#xa2;" horiz-adv-x="1529" 
d="M1435 1591l-267 -221q-120 126 -292 126q-143 0 -246.5 -108t-103.5 -268q0 -159 103.5 -267t246.5 -108q96 0 180 44.5t142 126.5l280 -215q-89 -110 -210 -184.5t-259 -101.5v-259h-325v264q-253 57 -418 252t-165 448t165 448.5t418 251.5v265h325v-260
q243 -47 426 -234z" />
    <glyph glyph-name="sterling" unicode="&#xa3;" horiz-adv-x="1915" 
d="M481 889h-276v327h185q-23 65 -36.5 108t-25.5 110.5t-12 132.5q0 140 53.5 267.5t148.5 225t236.5 155t306.5 57.5q150 0 289 -60.5t239.5 -160.5t162 -235t65.5 -279h-416q-29 155 -115 243t-219 88q-122 0 -206 -88t-84 -217q0 -47 10.5 -97t20.5 -79t34 -88t33 -83
h341v-327h-272l1 -43q3 -126 -38 -223t-131 -219h986v-404h-1607v278q173 161 250.5 310t77.5 268q0 13 -2 33z" />
    <glyph glyph-name="currency" unicode="&#xa4;" horiz-adv-x="2050" 
d="M393 1466l-236 233l239 239l237 -237q177 112 391 112t391 -109l234 234l243 -239l-235 -229q118 -183 118 -399q0 -212 -118 -389l235 -226l-243 -243l-234 237q-182 -113 -391 -113q-215 0 -395 113l-233 -238l-239 244l235 229q-113 177 -113 386q0 216 114 395z
M631 1073q0 -163 114 -281t279 -118q103 0 194 52t147 145t56 202q0 166 -115.5 285t-281.5 119q-161 0 -277 -117.5t-116 -286.5z" />
    <glyph glyph-name="yen" unicode="&#xa5;" horiz-adv-x="1887" 
d="M1340 2240h494l-535 -985h313v-283h-432v-241h432v-284h-432v-447h-462v447h-436v284h436v241h-436v283h315l-536 985h495l393 -720z" />
    <glyph glyph-name="brokenbar" unicode="&#xa6;" horiz-adv-x="795" 
d="M221 553h362v-1124h-362v1124zM221 2309h362v-1125h-362v1125z" />
    <glyph glyph-name="section" unicode="&#xa7;" horiz-adv-x="1767" 
d="M260 7h389q3 -111 66.5 -181.5t160.5 -70.5q95 0 155 59.5t60 141.5q0 62 -33 114t-87.5 86.5t-113 57t-121.5 35.5q-171 34 -309 134.5t-217 252t-79 324.5q0 182 89.5 338.5t243.5 259.5q-205 187 -205 428q0 112 49.5 212.5t133.5 172.5t200 114.5t244 42.5
q165 0 308.5 -81.5t230 -223.5t87.5 -309h-389q-3 110 -66.5 181t-160.5 71q-95 0 -155 -59.5t-60 -142.5q0 -49 22.5 -92.5t57.5 -74.5t83 -57t94.5 -41.5t96.5 -26.5q169 -36 307 -137.5t218.5 -252.5t80.5 -322q0 -182 -89.5 -338.5t-242.5 -258.5q204 -189 204 -428
q0 -149 -84 -274t-228.5 -197t-314.5 -72q-123 0 -237.5 48.5t-199.5 130t-136.5 196t-52.5 240.5zM886 1322q-146 0 -239.5 -104.5t-93.5 -257.5t93.5 -258t239.5 -105t239.5 105t93.5 258t-93.5 257.5t-239.5 104.5z" />
    <glyph glyph-name="dieresis" unicode="&#xa8;" horiz-adv-x="1374" 
d="M383 2255q93 0 154 -62t61 -155q0 -92 -61.5 -154.5t-153.5 -62.5q-91 0 -155 63t-64 154q0 92 64 154.5t155 62.5zM1000 2255q92 0 153.5 -62.5t61.5 -154.5t-61.5 -154.5t-153.5 -62.5t-155.5 63t-63.5 154q0 92 63.5 154.5t155.5 62.5z" />
    <glyph glyph-name="copyright" unicode="&#xa9;" horiz-adv-x="2568" 
d="M1845 1350h-265q-18 109 -94.5 168t-190.5 59q-139 0 -224 -121.5t-85 -332.5t82 -329.5t227 -118.5q108 0 186.5 67.5t98.5 183.5h265q-21 -219 -178 -352t-372 -133q-145 0 -258.5 52.5t-185.5 145t-109 215.5t-37 269q0 131 38.5 251.5t110.5 215.5t186.5 152
t254.5 57q92 0 181 -27.5t167 -80.5t132.5 -141.5t69.5 -199.5zM2435 1123q0 -188 -58 -364t-164.5 -318t-248 -249t-317.5 -165.5t-364 -58.5t-364 58.5t-317.5 165.5t-248 249t-164.5 318t-58 364q0 235 91 447.5t245.5 366.5t367.5 244.5t448 90.5t448 -90.5
t367.5 -244.5t245.5 -366.5t91 -447.5zM380 1123q0 -192 70 -362.5t190.5 -292t287.5 -192.5t355 -71t355.5 71t287.5 192.5t190 292t70 362.5q0 190 -70 359t-190 290.5t-287.5 192t-355.5 70.5q-187 0 -354.5 -70.5t-288 -192t-190.5 -290.5t-70 -359z" />
    <glyph glyph-name="ordfeminine" unicode="&#xaa;" horiz-adv-x="1235" 
d="M304 1960l-70 165q167 86 380 86q69 0 131 -11t118.5 -37.5t97.5 -65.5t65 -99t24 -135v-470q-215 -147 -472 -147q-122 0 -221.5 38t-161.5 116t-62 185q0 139 103.5 221t275.5 82q135 0 232 -73q-1 59 -20 98.5t-54.5 57.5t-71 24.5t-85.5 6.5q-104 0 -209 -42z
M745 1499v105q-57 96 -186 96q-58 0 -98 -32t-40 -85q0 -60 44.5 -93t118.5 -33q78 0 161 42z" />
    <glyph glyph-name="guillemotleft" unicode="&#xab;" horiz-adv-x="1743" 
d="M51 715l468 662h394l-425 -662l425 -660h-394zM783 715l468 662h395l-425 -662l425 -660h-395z" />
    <glyph glyph-name="logicalnot" unicode="&#xac;" horiz-adv-x="2012" 
d="M1372 926h-1211v362h1591v-1007h-380v645z" />
    <glyph glyph-name="uni00AD" unicode="&#xad;" horiz-adv-x="1255" 
d="M193 1022h879v-341h-879v341z" />
    <glyph glyph-name="registered" unicode="&#xae;" horiz-adv-x="1657" 
d="M833 1497h-88v-302h-178v772h282q160 0 233 -59t73 -174q0 -161 -142 -210l162 -329h-196zM833 2271q143 0 273 -55.5t224.5 -149.5t150 -224.5t55.5 -273.5t-55.5 -273.5t-150 -225t-224.5 -150.5t-273 -56q-144 0 -274.5 56t-224.5 150.5t-149.5 225t-55.5 273.5
q0 191 94 353t256 256t354 94zM833 2104q-147 0 -268.5 -70.5t-191.5 -193.5t-70 -272q0 -150 70 -274t191.5 -194.5t268.5 -70.5t268.5 70.5t191.5 194.5t70 274q0 149 -70 272t-191.5 193.5t-268.5 70.5zM825 1820h-80v-176h83q80 0 116.5 22t36.5 68q0 47 -36.5 66.5
t-119.5 19.5z" />
    <glyph glyph-name="macron" unicode="&#xaf;" horiz-adv-x="1352" 
d="M192 2173h974v-282h-974v282z" />
    <glyph glyph-name="degree" unicode="&#xb0;" horiz-adv-x="1248" 
d="M628 2272q136 0 252 -67.5t183 -183.5t67 -252q0 -102 -40 -195t-107 -160t-160 -107t-195 -40q-136 0 -252 67t-183.5 183t-67.5 252t67.5 252t183.5 183.5t252 67.5zM628 2032q-110 0 -186.5 -77t-76.5 -186t76.5 -186t186.5 -77t186.5 77t76.5 186t-76.5 186
t-186.5 77z" />
    <glyph glyph-name="plusminus" unicode="&#xb1;" horiz-adv-x="1959" 
d="M792 1022h-607v360h607v501h378v-501h606v-360h-606v-505h-378v505zM185 359h1591v-361h-1591v361z" />
    <glyph glyph-name="twosuperior" unicode="&#xb2;" horiz-adv-x="1066" 
d="M973 1564v-254h-932l549 695q83 107 83 204q0 66 -44 112.5t-104 46.5q-66 0 -110 -51t-61 -138h-275q3 87 40 168.5t97.5 141.5t143.5 96.5t171 36.5q195 0 318.5 -121.5t123.5 -290.5q0 -60 -11 -111t-34.5 -95t-41.5 -69.5t-51 -66.5l-242 -304h380z" />
    <glyph glyph-name="threesuperior" unicode="&#xb3;" horiz-adv-x="1070" 
d="M64 1721h277q7 -75 57.5 -123.5t116.5 -48.5q69 0 114.5 46t45.5 117q0 76 -58 123.5t-148 47.5v205q78 0 126 39t48 104q0 60 -38.5 100.5t-92.5 40.5q-56 0 -94.5 -42.5t-51.5 -113.5h-267q6 167 133 288t286 121q185 0 303.5 -113.5t118.5 -269.5q0 -140 -122 -243
q158 -108 158 -295q0 -166 -127 -288t-331 -122q-110 0 -212.5 54t-170 153.5t-71.5 219.5z" />
    <glyph glyph-name="acute" unicode="&#xb4;" horiz-adv-x="849" 
d="M394 2314h456l-401 -506h-345z" />
    <glyph glyph-name="mu" unicode="&#xb5;" horiz-adv-x="1904" 
d="M621 75v-834h-355v2135h356v-770q0 -146 71 -236.5t198 -90.5q341 0 341 590v507h358v-784q0 -54 0.5 -78.5t2.5 -68.5t7.5 -65t15 -51.5t24 -47.5t37 -33.5t51.5 -26.5v-253q-338 0 -430 266q-75 -137 -176 -201.5t-234 -64.5q-161 0 -267 107z" />
    <glyph glyph-name="paragraph" unicode="&#xb6;" horiz-adv-x="2070" 
d="M1469 1964h-343v-2457h-320v1384q-216 7 -388 98t-266 240t-94 326q0 226 104 381t292.5 229.5t451.5 74.5h883v-2733h-320v2457z" />
    <glyph glyph-name="periodcentered" unicode="&#xb7;" horiz-adv-x="861" 
d="M434 1174q106 0 181 -75t75 -181t-75 -181t-181 -75q-105 0 -180.5 75t-75.5 181t75.5 181t180.5 75z" />
    <glyph glyph-name="cedilla" unicode="&#xb8;" horiz-adv-x="745" 
d="M117 -299l178 299h247l-113 -177q97 -13 167.5 -73.5t70.5 -152.5q0 -73 -31 -127.5t-84.5 -86t-118.5 -46.5t-141 -15q-152 0 -274 73l61 161q106 -53 200 -53q48 0 78.5 19t30.5 59q0 33 -27 57.5t-70 37.5t-87 19t-87 6z" />
    <glyph glyph-name="onesuperior" unicode="&#xb9;" horiz-adv-x="732" 
d="M258 2354h-198l58 253h439v-1294h-299v1041z" />
    <glyph glyph-name="ordmasculine" unicode="&#xba;" horiz-adv-x="1276" 
d="M642 2211q105 0 200 -38t164 -103t109.5 -154t40.5 -187q0 -131 -69 -242.5t-187 -176t-258 -64.5t-258.5 64.5t-187.5 176t-69 242.5q0 199 151 340.5t364 141.5zM642 1981q-92 0 -156.5 -73t-64.5 -179q0 -107 64.5 -179.5t156.5 -72.5t156.5 72.5t64.5 179.5
q0 106 -64.5 179t-156.5 73z" />
    <glyph glyph-name="guillemotright" unicode="&#xbb;" horiz-adv-x="1744" 
d="M532 715l-425 662h395l468 -662l-468 -660h-395zM1265 715l-425 662h395l468 -662l-468 -660h-395z" />
    <glyph glyph-name="onequarter" unicode="&#xbc;" horiz-adv-x="2272" 
d="M1735 -4v218h-567v81l740 1015h122v-847h134v-249h-134v-218h-295zM260 1984h-198l59 254h439v-1294h-300v1040zM1624 2304h324l-1335 -2368h-324zM1740 458v249l-182 -249h182z" />
    <glyph glyph-name="onehalf" unicode="&#xbd;" horiz-adv-x="2520" 
d="M2399 253v-254h-931l549 695q82 104 82 204q0 67 -43.5 113.5t-104.5 46.5q-65 0 -109 -51t-61 -138h-275q3 87 40 168.5t97.5 141.5t143.5 96.5t171 36.5q195 0 318 -121.5t123 -290.5q0 -61 -11 -112t-34 -94.5t-41.5 -70t-50.5 -66.5l-242 -304h379zM61 1984l59 254
h439v-1294h-300v1040h-198zM1948 2304l-1336 -2368h-324l1335 2368h325z" />
    <glyph glyph-name="threequarters" unicode="&#xbe;" horiz-adv-x="2535" 
d="M71 1352h277q7 -75 57.5 -123.5t115.5 -48.5q70 0 115.5 45.5t45.5 116.5q0 77 -58 124.5t-148 47.5v205q78 0 126 39t48 104q0 60 -39 100t-93 40q-55 0 -93.5 -42.5t-51.5 -113.5h-267q4 110 64.5 205.5t155.5 150t199 54.5q185 0 303.5 -114t118.5 -269
q0 -142 -122 -243q158 -109 158 -296q0 -80 -32.5 -153.5t-90 -130.5t-145 -91t-190.5 -34q-111 0 -213 53.5t-169.5 153t-71.5 220.5zM2004 -4v218h-567v81l740 1015h122v-847h134v-249h-134v-218h-295zM1893 2304h324l-1335 -2368h-325zM2009 458v249l-182 -249h182z" />
    <glyph glyph-name="questiondown" unicode="&#xbf;" horiz-adv-x="1455" 
d="M554 863v159h423v-245q0 -92 -27 -169.5t-70 -131t-95.5 -100t-105 -85.5t-95.5 -77t-70 -84.5t-27 -99.5q0 -100 77.5 -170.5t182.5 -70.5q111 0 186 69.5t98 184.5h407q-7 -169 -105.5 -315t-254 -230t-325.5 -84q-153 0 -285 50.5t-221.5 135t-140 195t-50.5 229.5
q0 92 27.5 169t71.5 131.5t97 102.5l106 93t97 92.5t71.5 111.5t27.5 139zM765 1718q107 0 184 -76.5t77 -184.5q0 -107 -77 -184t-184 -77t-183.5 77t-76.5 184q0 108 76.5 184.5t183.5 76.5z" />
    <glyph glyph-name="Agrave" unicode="&#xc0;" horiz-adv-x="2078" 
d="M1619 0l-126 300h-892l-138 -300h-506l1126 2304l1030 -2304h-494zM483 2844h488l309 -410h-369zM1344 653l-278 660l-303 -660h581z" />
    <glyph glyph-name="Aacute" unicode="&#xc1;" horiz-adv-x="2078" 
d="M1619 0l-126 300h-892l-138 -300h-505l1125 2304l1030 -2304h-494zM1198 2837h488l-429 -410h-369zM1345 653l-278 660l-304 -660h582z" />
    <glyph glyph-name="Acircumflex" unicode="&#xc2;" horiz-adv-x="2078" 
d="M1619 0l-127 300h-892l-137 -300h-506l1126 2304l1030 -2304h-494zM1627 2427h-357l-184 205l-191 -205h-351l404 412h266zM1344 653l-278 660l-303 -660h581z" />
    <glyph glyph-name="Atilde" unicode="&#xc3;" horiz-adv-x="2078" 
d="M1311 2848h236q-13 -193 -97 -299t-192 -106q-57 0 -103 17.5t-73.5 42t-49.5 49t-43.5 42t-43.5 17.5q-35 0 -56.5 -38t-33.5 -122h-236q13 194 97 299.5t193 105.5q57 0 102.5 -17t73 -42t49 -49.5t43 -41.5t43.5 -17q36 0 57.5 37.5t33.5 121.5zM1493 300h-892
l-138 -300h-505l1125 2304l1031 -2304h-495zM1067 1313l-304 -660h582z" />
    <glyph glyph-name="Adieresis" unicode="&#xc4;" horiz-adv-x="2078" 
d="M778 2871q93 0 153.5 -62t60.5 -155t-60.5 -155t-153.5 -62t-156.5 62.5t-63.5 154.5t63.5 154.5t156.5 62.5zM1393 2871q93 0 154.5 -62t61.5 -155t-61.5 -155t-154.5 -62q-92 0 -155 62.5t-63 154.5t63 154.5t155 62.5zM1619 0l-127 300h-892l-137 -300h-506l1126 2304
l1030 -2304h-494zM1344 653l-278 660l-303 -660h581z" />
    <glyph glyph-name="Aring" unicode="&#xc5;" horiz-adv-x="2078" 
d="M1081 3059q137 0 234 -97t97 -234t-97 -234t-234 -97t-233.5 97t-96.5 234t97 234t233 97zM1081 2882q-63 0 -108.5 -45t-45.5 -109t45.5 -109.5t108.5 -45.5q65 0 110.5 45.5t45.5 109.5t-45.5 109t-110.5 45zM1619 0l-126 300h-892l-138 -300h-505l1125 2304
l1031 -2304h-495zM1345 653l-278 660l-304 -660h582z" />
    <glyph glyph-name="AE" unicode="&#xc6;" horiz-adv-x="2759" 
d="M1829 1376h632v-403h-632v-570h803v-403h-1264v300h-700l-184 -300h-537l1456 2240h1179v-403h-753v-461zM1368 653v777l-486 -777h486z" />
    <glyph glyph-name="Ccedilla" unicode="&#xc7;" horiz-adv-x="2257" 
d="M2208 1840l-312 -265q-244 278 -598 278q-191 0 -353.5 -98.5t-256.5 -267t-94 -367.5t94 -367.5t256.5 -267t353.5 -98.5q183 0 334.5 73.5t282.5 224.5l289 -289q-151 -170 -345 -278t-408 -137l-90 -142q97 -12 167.5 -72.5t70.5 -152.5q0 -73 -31 -127.5t-85 -86
t-119 -46.5t-141 -15q-150 0 -274 73l61 161q106 -53 200 -53q48 0 78.5 19t30.5 59q0 33 -27 57.5t-70 37.5t-86.5 19t-86.5 6l151 254q-221 18 -418.5 116t-340 250t-226 356t-83.5 426q0 234 92.5 447.5t248.5 367.5t372 245.5t453 91.5q257 0 493.5 -114.5t416.5 -317.5
z" />
    <glyph glyph-name="Egrave" unicode="&#xc8;" horiz-adv-x="1660" 
d="M267 2240h1214v-403h-752v-461h632v-403h-632v-570h804v-403h-1266v2240zM350 2844h488l310 -410h-370z" />
    <glyph glyph-name="Eacute" unicode="&#xc9;" horiz-adv-x="1660" 
d="M267 2240h1214v-403h-752v-461h632v-403h-632v-570h804v-403h-1266v2240zM950 2837h488l-429 -410h-369z" />
    <glyph glyph-name="Ecircumflex" unicode="&#xca;" horiz-adv-x="1660" 
d="M267 2240h1214v-403h-752v-461h632v-403h-632v-570h804v-403h-1266v2240zM1442 2427h-357l-185 205l-190 -205h-352l405 412h266z" />
    <glyph glyph-name="Edieresis" unicode="&#xcb;" horiz-adv-x="1660" 
d="M569 2874q93 0 154 -62t61 -155t-61 -155t-154 -62q-92 0 -156 62.5t-64 154.5t64 154.5t156 62.5zM1185 2874q92 0 154 -62.5t62 -154.5t-62 -154.5t-154 -62.5t-155 62.5t-63 154.5t63 154.5t155 62.5zM267 2240h1214v-403h-752v-461h632v-403h-632v-570h804v-403
h-1266v2240z" />
    <glyph glyph-name="Igrave" unicode="&#xcc;" horiz-adv-x="985" 
d="M727 2240v-2240h-459v2240h459zM713 2434h-367l-429 409h486z" />
    <glyph glyph-name="Iacute" unicode="&#xcd;" horiz-adv-x="987" 
d="M268 2240h461v-2240h-461v2240zM594 2837h488l-429 -410h-369z" />
    <glyph glyph-name="Icircumflex" unicode="&#xce;" horiz-adv-x="987" 
d="M1041 2427h-358l-184 205l-191 -205h-351l405 412h265zM268 2240h461v-2240h-461v2240z" />
    <glyph glyph-name="Idieresis" unicode="&#xcf;" horiz-adv-x="987" 
d="M193 2874q92 0 153 -62t61 -155t-61 -155t-153 -62q-93 0 -156.5 62.5t-63.5 154.5t63.5 154.5t156.5 62.5zM809 2874q92 0 153.5 -62.5t61.5 -154.5t-61.5 -154.5t-153.5 -62.5t-155.5 62.5t-63.5 154.5t63.5 154.5t155.5 62.5zM268 2240h461v-2240h-461v2240z" />
    <glyph glyph-name="Ntilde" unicode="&#xd1;" horiz-adv-x="2595" 
d="M1524 2912h236q-13 -193 -97.5 -299t-192.5 -106q-57 0 -102.5 17.5t-73 42t-49.5 49t-43.5 42t-43.5 17.5q-36 0 -57.5 -38t-33.5 -122h-236q13 194 97.5 299.5t192.5 105.5q57 0 102.5 -17t73 -42t49.5 -49.5t43.5 -41.5t43.5 -17q36 0 57.5 37.5t33.5 121.5z
M1863 2240h461v-2304l-1595 1392v-1328h-462v2304l1596 -1389v1325z" />
    <glyph glyph-name="Ograve" unicode="&#xd2;" horiz-adv-x="2598" 
d="M1296 2272q237 0 453 -91.5t372 -245.5t248.5 -367.5t92.5 -447.5t-92.5 -447.5t-248.5 -367.5t-372 -245.5t-453 -91.5t-452.5 91.5t-371.5 245.5t-248.5 367.5t-92.5 447.5t92.5 447.5t248.5 367.5t371.5 245.5t452.5 91.5zM1296 1853q-191 0 -353 -98.5t-256 -267
t-94 -367.5t94 -367.5t256 -267t353 -98.5t353.5 98.5t256.5 267t94 367.5t-94 367.5t-256.5 267t-353.5 98.5zM734 2846h488l310 -410h-369z" />
    <glyph glyph-name="Oacute" unicode="&#xd3;" horiz-adv-x="2598" 
d="M1296 2272q237 0 453 -91.5t372 -245.5t248.5 -367.5t92.5 -447.5t-92.5 -447.5t-248.5 -367.5t-372 -245.5t-453 -91.5t-452.5 91.5t-371.5 245.5t-248.5 367.5t-92.5 447.5t92.5 447.5t248.5 367.5t371.5 245.5t452.5 91.5zM1296 1853q-191 0 -353 -98.5t-256 -267
t-94 -367.5t94 -367.5t256 -267t353 -98.5t353.5 98.5t256.5 267t94 367.5t-94 367.5t-256.5 267t-353.5 98.5zM1393 2839h489l-429 -410h-369z" />
    <glyph glyph-name="Ocircumflex" unicode="&#xd4;" horiz-adv-x="2598" 
d="M1296 2272q237 0 453 -91.5t372 -245.5t248.5 -367.5t92.5 -447.5t-92.5 -447.5t-248.5 -367.5t-372 -245.5t-453 -91.5t-452.5 91.5t-371.5 245.5t-248.5 367.5t-92.5 447.5t92.5 447.5t248.5 367.5t371.5 245.5t452.5 91.5zM1296 1853q-191 0 -353 -98.5t-256 -267
t-94 -367.5t94 -367.5t256 -267t353 -98.5t353.5 98.5t256.5 267t94 367.5t-94 367.5t-256.5 267t-353.5 98.5zM1838 2429h-357l-185 205l-190 -205h-351l404 412h266z" />
    <glyph glyph-name="Otilde" unicode="&#xd5;" horiz-adv-x="2598" 
d="M1524 2847h236q-13 -193 -97 -299t-192 -106q-57 0 -102.5 17.5t-73 42t-49.5 49t-44 42t-44 17.5q-35 0 -56.5 -38t-33.5 -122h-236q13 194 97.5 299.5t192.5 105.5q57 0 102.5 -17t73 -41.5t49.5 -49.5t43 -42t43 -17q36 0 57.5 37.5t33.5 121.5zM2462 1120
q0 -234 -92.5 -447.5t-248.5 -367.5t-372 -245.5t-453 -91.5t-452.5 91.5t-371.5 245.5t-248.5 367.5t-92.5 447.5t92.5 447.5t248.5 367.5t371.5 245.5t452.5 91.5t453 -91.5t372 -245.5t248.5 -367.5t92.5 -447.5zM593 1120q0 -199 94 -367.5t256 -267t353 -98.5
t353.5 98.5t256.5 267t94 367.5t-94 367.5t-256.5 267t-353.5 98.5t-353 -98.5t-256 -267t-94 -367.5z" />
    <glyph glyph-name="Odieresis" unicode="&#xd6;" horiz-adv-x="2598" 
d="M991 2873q92 0 153 -62t61 -155t-61 -155t-153 -62q-93 0 -156.5 62.5t-63.5 154.5t63.5 154.5t156.5 62.5zM1296 2272q237 0 453 -91.5t372 -245.5t248.5 -367.5t92.5 -447.5t-92.5 -447.5t-248.5 -367.5t-372 -245.5t-453 -91.5t-452.5 91.5t-371.5 245.5t-248.5 367.5
t-92.5 447.5t92.5 447.5t248.5 367.5t371.5 245.5t452.5 91.5zM1296 1853q-191 0 -353 -98.5t-256 -267t-94 -367.5t94 -367.5t256 -267t353 -98.5t353.5 98.5t256.5 267t94 367.5t-94 367.5t-256.5 267t-353.5 98.5zM1606 2873q93 0 154.5 -62t61.5 -155t-61.5 -155
t-154.5 -62q-92 0 -155 62.5t-63 154.5t63 154.5t155 62.5z" />
    <glyph glyph-name="multiply" unicode="&#xd7;" horiz-adv-x="1683" 
d="M129 472l468 469l-469 468l252 247l466 -466l467 467l243 -248l-464 -466l467 -467l-246 -251l-469 469l-468 -469z" />
    <glyph glyph-name="Oslash" unicode="&#xd8;" horiz-adv-x="2598" 
d="M2356 2251l-239 -313q163 -160 254 -371.5t91 -446.5q0 -234 -92.5 -447.5t-248.5 -367.5t-371.5 -245.5t-452.5 -91.5q-308 0 -572 151l-249 -324l-238 194l239 312q-164 160 -255 371t-91 448q0 234 92.5 447.5t248.5 367.5t372 245.5t453 91.5q305 0 572 -151l249 324
zM1297 385q192 0 353.5 100t254 268t92.5 363q0 251 -153 461l-859 -1114q148 -78 312 -78zM749 662l860 1113q-144 79 -312 79q-144 0 -275 -58t-225 -156.5t-150 -234.5t-56 -285q0 -260 158 -458z" />
    <glyph glyph-name="Ugrave" unicode="&#xd9;" horiz-adv-x="2354" 
d="M1634 478v1762h462v-2000q-184 -126 -405 -199t-442 -73q-124 0 -228.5 10.5t-209 37.5t-186.5 70.5t-153.5 112.5t-118.5 160.5t-74 217.5t-27 280v1383h461v-1286q0 -140 27.5 -245t73.5 -169.5t116 -104.5t145.5 -54.5t170.5 -14.5q202 0 388 112zM1116 2844l310 -410
h-369l-429 410h488z" />
    <glyph glyph-name="Uacute" unicode="&#xda;" horiz-adv-x="2354" 
d="M1634 478v1762h462v-2000q-184 -126 -405 -199t-442 -73q-124 0 -228.5 10.5t-209 37.5t-186.5 70.5t-153.5 112.5t-118.5 160.5t-74 217.5t-27 280v1383h461v-1286q0 -140 27.5 -245t73.5 -169.5t116 -104.5t145.5 -54.5t170.5 -14.5q202 0 388 112zM1739 2837
l-429 -410h-369l309 410h489z" />
    <glyph glyph-name="Ucircumflex" unicode="&#xdb;" horiz-adv-x="2354" 
d="M1634 478v1762h462v-2000q-184 -126 -405 -199t-442 -73q-124 0 -228.5 10.5t-209 37.5t-186.5 70.5t-153.5 112.5t-118.5 160.5t-74 217.5t-27 280v1383h461v-1286q0 -140 27.5 -245t73.5 -169.5t116 -104.5t145.5 -54.5t170.5 -14.5q202 0 388 112zM1377 2427l-184 205
l-191 -205h-352l405 412h266l413 -412h-357z" />
    <glyph glyph-name="Udieresis" unicode="&#xdc;" horiz-adv-x="2354" 
d="M1634 478v1762h462v-2000q-184 -126 -405 -199t-442 -73q-124 0 -228.5 10.5t-209 37.5t-186.5 70.5t-153.5 112.5t-118.5 160.5t-74 217.5t-27 280v1383h461v-1286q0 -140 27.5 -245t73.5 -169.5t116 -104.5t145.5 -54.5t170.5 -14.5q202 0 388 112zM1083 2657
q0 -93 -61 -155t-154 -62t-156.5 62.5t-63.5 154.5t63.5 154.5t156.5 62.5t154 -62t61 -155zM1699 2657q0 -92 -61.5 -154.5t-153.5 -62.5t-155 62.5t-63 154.5t63 154.5t155 62.5t153.5 -62.5t61.5 -154.5z" />
    <glyph glyph-name="Yacute" unicode="&#xdd;" horiz-adv-x="1913" 
d="M1190 1032v-1032h-461v1032l-756 1208h535l451 -720l449 720h535zM1046 2827h488l-429 -410h-369z" />
    <glyph glyph-name="germandbls" unicode="&#xdf;" horiz-adv-x="1932" 
d="M641 1763v-1763h-440v1763q0 179 60.5 325t165 241.5t244 147t299.5 51.5q212 0 385 -82.5t271 -226.5t98 -321q0 -88 -23.5 -165t-61 -132t-82.5 -103t-90.5 -86t-83 -73t-61 -74t-23.5 -78q0 -43 32 -86.5t83 -84t112.5 -84t123.5 -96t113 -111.5t83 -138.5t32 -168.5
q0 -211 -140.5 -330.5t-404.5 -119.5q-314 0 -547 233l217 228q94 -75 160.5 -105.5t136.5 -30.5q62 0 100.5 40.5t38.5 98.5q0 46 -31.5 91.5t-81.5 85.5t-111 83t-122 94t-111 108t-81.5 135.5t-31.5 166.5q0 73 23 136t59.5 109t81 88l89 82t81 80.5t59.5 93.5t23 113
q0 117 -86.5 195.5t-228.5 78.5q-157 0 -243 -107t-86 -302z" />
    <glyph glyph-name="agrave" unicode="&#xe0;" horiz-adv-x="1618" 
d="M344 1034l-105 247q246 127 559 127q102 0 193 -16.5t174.5 -55.5t143.5 -97.5t95.5 -148t35.5 -200.5v-705q-156 -107 -335.5 -162t-359.5 -55q-133 0 -250.5 33.5t-208 95.5t-143.5 159.5t-53 217.5q0 209 152.5 332t406.5 123q205 0 350 -118q0 72 -20 124.5
t-50.5 82.5t-78.5 47.5t-93.5 23t-105.5 5.5q-159 0 -307 -60zM999 349v151q-82 145 -282 145q-89 0 -150 -48t-61 -126q0 -88 68.5 -137.5t180.5 -49.5q120 0 244 65zM736 2092l290 -507h-345l-401 507h456z" />
    <glyph glyph-name="aacute" unicode="&#xe1;" horiz-adv-x="1618" 
d="M344 1034l-105 247q246 127 559 127q102 0 193 -16.5t174.5 -55.5t143.5 -97.5t95.5 -148t35.5 -200.5v-705q-156 -107 -335.5 -162t-359.5 -55q-133 0 -250.5 33.5t-208 95.5t-143.5 159.5t-53 217.5q0 209 152.5 332t406.5 123q205 0 350 -118q0 72 -20 124.5
t-50.5 82.5t-78.5 47.5t-93.5 23t-105.5 5.5q-159 0 -307 -60zM999 349v151q-82 145 -282 145q-89 0 -150 -48t-61 -126q0 -88 68.5 -137.5t180.5 -49.5q120 0 244 65zM1336 2092l-400 -507h-346l289 507h457z" />
    <glyph glyph-name="acircumflex" unicode="&#xe2;" horiz-adv-x="1618" 
d="M344 1034l-105 246q248 128 559 128q102 0 193 -17t174.5 -56t143.5 -97.5t95.5 -147.5t35.5 -200v-705q-156 -107 -335.5 -162t-359.5 -55q-133 0 -250.5 33.5t-208 95.5t-143.5 159.5t-53 217.5q0 209 152.5 332t406.5 123q205 0 350 -118q0 72 -20 124t-50.5 82
t-78.5 47.5t-93.5 23t-105.5 5.5q-158 0 -307 -59zM999 349v151q-82 145 -282 145q-89 0 -150 -48t-61 -126q0 -88 68.5 -137.5t180.5 -49.5q120 0 244 65zM1012 1584l-173 254l-178 -254h-329l379 509h248l386 -509h-333z" />
    <glyph glyph-name="atilde" unicode="&#xe3;" horiz-adv-x="1618" 
d="M345 1034l-105 246q248 128 559 128q102 0 192.5 -17t174 -56t143.5 -97.5t95.5 -147.5t35.5 -200v-705q-156 -107 -335.5 -162t-358.5 -55q-133 0 -251 33.5t-208.5 95.5t-143.5 159.5t-53 217.5q0 208 153 331.5t407 123.5q204 0 350 -118q0 72 -20 124.5t-50.5 82.5
t-78.5 47.5t-93.5 23t-105.5 5.5q-159 0 -307 -60zM1043 2046h236q-13 -201 -97 -311t-193 -110q-57 0 -102.5 18t-73 43.5t-49.5 51t-43.5 43.5t-43.5 18q-35 0 -56.5 -39t-33.5 -127h-236q13 202 97 312t192 110q57 0 103 -18t73.5 -43.5t49 -51.5t43.5 -44t44 -18
q35 0 56.5 39.5t33.5 126.5zM1000 349v151q-82 145 -282 145q-89 0 -150.5 -48t-61.5 -126q0 -88 68.5 -137.5t180.5 -49.5q121 0 245 65z" />
    <glyph glyph-name="adieresis" unicode="&#xe4;" horiz-adv-x="1618" 
d="M345 1034l-105 246q248 128 559 128q102 0 192.5 -16.5t174 -55.5t143.5 -97.5t95.5 -148t35.5 -200.5v-705q-156 -107 -335.5 -162t-358.5 -55q-133 0 -251 33.5t-208.5 95.5t-143.5 159.5t-53 217.5q0 208 153 331.5t407 123.5q204 0 350 -118q0 72 -20 124.5
t-50.5 82.5t-78.5 47.5t-93.5 23t-105.5 5.5q-159 0 -307 -60zM737 1832q0 -93 -61 -155t-153 -62t-156 62.5t-64 154.5t64 154.5t156 62.5t153 -62t61 -155zM1000 349v151q-82 145 -282 145q-89 0 -150.5 -48t-61.5 -126q0 -88 68.5 -137.5t180.5 -49.5q121 0 245 65z
M1355 1832q0 -92 -62 -154.5t-155 -62.5q-92 0 -155 62.5t-63 154.5t63 154.5t155 62.5q93 0 155 -62.5t62 -154.5z" />
    <glyph glyph-name="aring" unicode="&#xe5;" horiz-adv-x="1618" 
d="M344 1034l-105 246q248 128 559 128q102 0 193 -16.5t174.5 -55.5t143.5 -97.5t95.5 -148t35.5 -200.5v-705q-156 -107 -335.5 -162t-359.5 -55q-133 0 -250.5 33.5t-208 95.5t-143.5 159.5t-53 217.5q0 209 152.5 332t406.5 123q205 0 350 -118q0 72 -20 124.5
t-50.5 82.5t-78.5 47.5t-93.5 23t-105.5 5.5q-159 0 -307 -60zM999 349v151q-82 145 -282 145q-89 0 -150 -48t-61 -126q0 -88 68.5 -137.5t180.5 -49.5q120 0 244 65zM1145 1899q0 -137 -96.5 -234t-233.5 -97t-234 97t-97 234t97 234t234 97q136 0 233 -97t97 -234z
M660 1899q0 -65 45 -110t110 -45t110 45t45 110q0 64 -45 109t-110 45t-110 -45t-45 -109z" />
    <glyph glyph-name="ae" unicode="&#xe6;" horiz-adv-x="2540" 
d="M2446 603h-1007q5 -149 98.5 -241.5t241.5 -92.5q108 0 193 38t181 126l229 -190q-135 -135 -282.5 -205t-338.5 -70q-265 0 -459 139q-263 -139 -557 -139q-133 0 -250.5 33.5t-208 95.5t-143.5 159.5t-53 217.5q0 209 152.5 332t407.5 123q204 0 349 -118
q0 72 -20 124.5t-50.5 82.5t-78.5 47.5t-93.5 23t-104.5 5.5q-160 0 -308 -60l-105 246q248 128 559 128q144 0 271.5 -37.5t213.5 -113.5q188 151 448 151q155 0 286.5 -55.5t226 -157.5t148 -254t54.5 -338zM999 349v151q-82 145 -282 145q-89 0 -150 -48t-61 -126
q0 -88 68.5 -137.5t180.5 -49.5q120 0 244 65zM1449 847h575q-28 121 -105.5 189t-187.5 68q-105 0 -180 -68t-102 -189z" />
    <glyph glyph-name="ccedilla" unicode="&#xe7;" horiz-adv-x="1531" 
d="M1440 1159l-266 -222q-119 126 -292 126q-143 0 -247 -108t-104 -267t104 -267t247 -108q95 0 179 44.5t143 126.5l280 -215q-83 -104 -195 -176t-241 -102l-97 -152q97 -12 167.5 -72.5t70.5 -152.5q0 -73 -31 -127.5t-84.5 -86t-118.5 -46.5t-141 -15q-152 0 -274 73
l61 161q106 -53 200 -53q48 0 78.5 19t30.5 59q0 33 -27 57.5t-70 37.5t-87 19t-87 6l151 254q-190 18 -346.5 117t-247 257t-90.5 342q0 196 102 361.5t277 262t382 96.5q163 0 311 -65.5t262 -183.5z" />
    <glyph glyph-name="egrave" unicode="&#xe8;" horiz-adv-x="1638" 
d="M1543 603h-1006q5 -148 99 -241t241 -93q108 0 193 38t181 126l228 -190q-135 -135 -282.5 -205t-337.5 -70q-213 0 -382.5 89.5t-266.5 254t-97 376.5q0 211 96 376.5t258.5 254.5t360.5 89q156 0 287 -55.5t226 -157.5t148.5 -254t53.5 -338zM547 847h575
q-28 121 -105.5 189t-188.5 68q-104 0 -179 -68t-102 -189zM1115 1585h-345l-400 507h456z" />
    <glyph glyph-name="eacute" unicode="&#xe9;" horiz-adv-x="1638" 
d="M1543 603h-1006q5 -148 99 -241t241 -93q108 0 193 38t181 126l228 -190q-135 -135 -282.5 -205t-337.5 -70q-213 0 -382.5 89.5t-266.5 254t-97 376.5q0 211 96 376.5t258.5 254.5t360.5 89q156 0 287 -55.5t226 -157.5t148.5 -254t53.5 -338zM547 847h575
q-28 121 -105.5 189t-188.5 68q-104 0 -179 -68t-102 -189zM986 1585h-345l290 507h456z" />
    <glyph glyph-name="ecircumflex" unicode="&#xea;" horiz-adv-x="1638" 
d="M1543 603h-1006q5 -148 99 -241t241 -93q108 0 193 38t181 126l228 -190q-135 -135 -282.5 -205t-337.5 -70q-213 0 -382.5 89.5t-266.5 254t-97 376.5q0 158 56 293.5t152.5 228.5t227.5 145.5t279 52.5q317 0 515.5 -217t199.5 -588zM977 2093l386 -509h-333l-173 254
l-178 -254h-329l379 509h248zM547 847h575q-28 121 -105.5 189t-188.5 68q-104 0 -179 -68t-102 -189z" />
    <glyph glyph-name="edieresis" unicode="&#xeb;" horiz-adv-x="1638" 
d="M1543 603h-1006q5 -148 99 -241t241 -93q108 0 193 38t181 126l228 -190q-135 -135 -282.5 -205t-337.5 -70q-213 0 -382.5 89.5t-266.5 254t-97 376.5q0 211 96 376.5t258.5 254.5t360.5 89q156 0 287 -55.5t226 -157.5t148.5 -254t53.5 -338zM780 1832q0 -93 -61 -155
t-154 -62q-92 0 -156 62.5t-64 154.5t64 154.5t156 62.5q93 0 154 -62t61 -155zM1397 1832q0 -92 -62 -154.5t-154 -62.5t-155.5 62.5t-63.5 154.5t63.5 154.5t155.5 62.5t154 -62.5t62 -154.5zM547 847h575q-28 121 -105.5 189t-188.5 68q-104 0 -179 -68t-102 -189z" />
    <glyph glyph-name="igrave" unicode="&#xec;" horiz-adv-x="812" 
d="M629 1376v-1376h-437v1376h437zM617 1589h-343l-401 506h454z" />
    <glyph glyph-name="iacute" unicode="&#xed;" horiz-adv-x="814" 
d="M192 1376h439v-1376h-439v1376zM496 2096h456l-401 -507h-345z" />
    <glyph glyph-name="icircumflex" unicode="&#xee;" horiz-adv-x="814" 
d="M918 1589h-334l-172 254l-178 -254h-329l378 509h249zM192 1376h439v-1376h-439v1376z" />
    <glyph glyph-name="idieresis" unicode="&#xef;" horiz-adv-x="813" 
d="M105 2050q93 0 153.5 -62t60.5 -155t-60.5 -155t-153.5 -62q-92 0 -156 62.5t-64 154.5t64 154.5t156 62.5zM721 2050q92 0 153.5 -62.5t61.5 -154.5t-61.5 -154.5t-153.5 -62.5t-155.5 62.5t-63.5 154.5t63.5 154.5t155.5 62.5zM192 1376h438v-1376h-438v1376z" />
    <glyph glyph-name="ntilde" unicode="&#xf1;" horiz-adv-x="1801" 
d="M1181 0v713q0 351 -255 351q-141 0 -213.5 -89t-72.5 -256v-719h-439v1376h439v-142q75 83 179.5 128.5t226.5 45.5q574 0 574 -662v-746h-439zM1153 2050h236q-13 -202 -97.5 -312t-192.5 -110q-57 0 -103 18t-73.5 44t-49 51.5t-43.5 43.5t-44 18q-35 0 -56.5 -39.5
t-33.5 -127.5h-235q13 202 96.5 312t192.5 110q57 0 102.5 -18t73 -43.5t49.5 -51t43.5 -43.5t43.5 -18q35 0 57 39.5t34 126.5z" />
    <glyph glyph-name="ograve" unicode="&#xf2;" horiz-adv-x="1735" 
d="M869 1408q206 0 381 -96.5t277 -262t102 -361.5t-102 -361.5t-277 -262t-381 -96.5q-155 0 -295.5 57t-242.5 153.5t-162 229.5t-60 280t60 280t162 229.5t242.5 153.5t295.5 57zM869 1063q-139 0 -237 -108t-98 -267t98 -267t237 -108t237 108t98 267t-98 267t-237 108z
M375 2092h456l290 -507h-345z" />
    <glyph glyph-name="oacute" unicode="&#xf3;" horiz-adv-x="1734" 
d="M869 1408q154 0 294.5 -57t242.5 -153.5t162 -229.5t60 -280t-60 -280t-162 -229.5t-242.5 -153.5t-294.5 -57q-155 0 -295.5 57t-242.5 153.5t-162 229.5t-60 280t60 280t162 229.5t242.5 153.5t295.5 57zM869 1063q-139 0 -237.5 -108t-98.5 -267q0 -158 98.5 -266.5
t237.5 -108.5t236.5 108t97.5 267t-97.5 267t-236.5 108zM922 2092h456l-401 -507h-345z" />
    <glyph glyph-name="ocircumflex" unicode="&#xf4;" horiz-adv-x="1735" 
d="M869 1408q206 0 381 -96.5t277 -262.5t102 -361q0 -196 -102 -361.5t-277 -262t-381 -96.5q-155 0 -295.5 57t-242.5 153.5t-162 229.5t-60 280q0 146 60 279.5t162 230t242.5 153.5t295.5 57zM869 1063q-139 0 -237 -108t-98 -267t98 -267t237 -108t237 108t98 267
t-98 267t-237 108zM1376 1584h-334l-172 254l-179 -254h-329l379 509h248z" />
    <glyph glyph-name="otilde" unicode="&#xf5;" horiz-adv-x="1734" 
d="M1096 2046h237q-13 -201 -97.5 -311t-192.5 -110q-57 0 -102.5 18t-73 43.5t-49.5 51t-43.5 43.5t-43.5 18q-36 0 -58 -39.5t-34 -126.5h-235q13 202 97 312t192 110q57 0 103 -18t73.5 -43.5t49 -51.5t43.5 -44t44 -18q35 0 56.5 39.5t33.5 126.5zM1628 688
q0 -147 -60 -280t-162 -229.5t-242.5 -153.5t-294.5 -57q-155 0 -295.5 57t-242.5 153.5t-162 229.5t-60 280t60 280t162 229.5t242.5 153.5t295.5 57q154 0 294.5 -57t242.5 -153.5t162 -229.5t60 -280zM533 688q0 -158 98.5 -266.5t237.5 -108.5t236.5 108t97.5 267
t-97.5 267t-236.5 108t-237.5 -108t-98.5 -267z" />
    <glyph glyph-name="odieresis" unicode="&#xf6;" horiz-adv-x="1734" 
d="M562 2049q93 0 154 -62t61 -155t-61 -155t-154 -62q-91 0 -155 62.5t-64 154.5t64 154.5t155 62.5zM869 1408q154 0 294.5 -57t242.5 -153.5t162 -229.5t60 -280t-60 -280t-162 -229.5t-242.5 -153.5t-294.5 -57q-155 0 -295.5 57t-242.5 153.5t-162 229.5t-60 280
t60 280t162 229.5t242.5 153.5t295.5 57zM869 1063q-139 0 -237.5 -108t-98.5 -267q0 -158 98.5 -266.5t237.5 -108.5t236.5 108t97.5 267t-97.5 267t-236.5 108zM1179 2049q92 0 153.5 -62.5t61.5 -154.5t-61.5 -154.5t-153.5 -62.5t-155.5 62.5t-63.5 154.5t63.5 154.5
t155.5 62.5z" />
    <glyph glyph-name="divide" unicode="&#xf7;" horiz-adv-x="1816" 
d="M909 535q101 0 172 -71t71 -172t-71 -172t-172 -71t-172 71t-71 172t71 172t172 71zM909 1832q101 0 172 -71t71 -172t-71 -172t-172 -71t-172 71t-71 172t71 172t172 71zM114 1122h1591v-362h-1591v362z" />
    <glyph glyph-name="oslash" unicode="&#xf8;" horiz-adv-x="1733" 
d="M195 -31l150 197q-111 100 -173.5 235.5t-62.5 286.5q0 147 60 280t162 229.5t242.5 153.5t294.5 57q183 0 351 -83l157 209l164 -128l-150 -198q112 -100 174.5 -235t62.5 -285q0 -147 -60 -280t-162 -229.5t-242.5 -153.5t-294.5 -57q-185 0 -352 82l-157 -209z
M868 311q140 0 238 109t98 268q0 96 -54 201l-414 -549q66 -29 132 -29zM586 486l413 549q-66 29 -131 29q-140 0 -238.5 -108.5t-98.5 -267.5q0 -112 55 -202z" />
    <glyph glyph-name="ugrave" unicode="&#xf9;" horiz-adv-x="1776" 
d="M1140 374v1002h439v-1191q-305 -217 -670 -217q-123 0 -221.5 15.5t-194.5 59t-160.5 114t-104 187.5t-39.5 273v759h439v-697q0 -108 22.5 -183t64 -113.5t89 -54.5t109.5 -16q115 0 227 62zM829 2096l289 -507h-345l-401 507h457z" />
    <glyph glyph-name="uacute" unicode="&#xfa;" horiz-adv-x="1776" 
d="M1140 374v1002h439v-1191q-305 -217 -670 -217q-123 0 -221.5 15.5t-194.5 59t-160.5 114t-104 187.5t-39.5 273v759h439v-697q0 -108 22.5 -183t64 -113.5t89 -54.5t109.5 -16q115 0 227 62zM1410 2096l-401 -507h-345l290 507h456z" />
    <glyph glyph-name="ucircumflex" unicode="&#xfb;" horiz-adv-x="1777" 
d="M1140 374v1002h440v-1191q-305 -217 -671 -217q-122 0 -221 15.5t-195 59t-160.5 114t-104 187.5t-39.5 273v759h440v-697q0 -108 22.5 -183t64 -113.5t89 -54.5t109.5 -16q114 0 226 62zM1058 1589l-173 254l-178 -254h-329l378 509h249l386 -509h-333z" />
    <glyph glyph-name="udieresis" unicode="&#xfc;" horiz-adv-x="1777" 
d="M1140 374v1002h440v-1191q-306 -217 -671 -217q-123 0 -221.5 15.5t-194.5 59t-160.5 114t-104 187.5t-39.5 273v759h439v-697q0 -87 15.5 -153t41 -106t63.5 -65t77.5 -34t87.5 -9q115 0 227 62zM792 1833q0 -93 -60.5 -155t-153.5 -62q-92 0 -155.5 62.5t-63.5 154.5
t63.5 154.5t155.5 62.5q93 0 153.5 -62t60.5 -155zM1410 1833q0 -92 -61.5 -154.5t-153.5 -62.5t-155.5 62.5t-63.5 154.5t63.5 154.5t155.5 62.5t153.5 -62.5t61.5 -154.5z" />
    <glyph glyph-name="yacute" unicode="&#xfd;" horiz-adv-x="1663" 
d="M1220 1376h453l-1080 -2135h-454l469 926l-614 1209h451l387 -764zM952 2096h457l-401 -507h-345z" />
    <glyph glyph-name="ydieresis" unicode="&#xff;" horiz-adv-x="1663" 
d="M562 2050q92 0 153 -62t61 -155t-61 -155t-153 -62t-156 62.5t-64 154.5t64 154.5t156 62.5zM1177 2050q93 0 155 -62.5t62 -154.5t-62 -154.5t-155 -62.5q-92 0 -155 62.5t-63 154.5t63 154.5t155 62.5zM1220 1376h453l-1080 -2135h-454l469 926l-614 1209h451l387 -764
z" />
    <glyph glyph-name="Abreve" unicode="&#x102;" horiz-adv-x="2078" 
d="M639 2822h252q11 -74 60.5 -123.5t132.5 -49.5q82 0 131.5 49.5t61.5 123.5h252q-14 -175 -127 -285.5t-318 -110.5q-105 0 -188.5 31t-136.5 85.5t-83 125t-37 154.5zM1493 300h-892l-138 -300h-506l1126 2304l1030 -2304h-494zM1066 1313l-303 -660h581z" />
    <glyph glyph-name="abreve" unicode="&#x103;" horiz-adv-x="1618" 
d="M344 1034l-105 246q245 128 559 128q102 0 193 -16.5t174.5 -55.5t143.5 -97.5t95.5 -148t35.5 -200.5v-705q-156 -107 -335.5 -162t-359.5 -55q-133 0 -250.5 33.5t-208 95.5t-143.5 159.5t-53 217.5q0 209 152.5 332t406.5 123q205 0 350 -118q0 72 -20 124.5
t-50.5 82.5t-78.5 47.5t-93.5 23t-105.5 5.5q-159 0 -307 -60zM1022 2053h252q-7 -96 -37 -177t-83.5 -144t-137 -98.5t-188.5 -35.5t-188 35.5t-136.5 98.5t-83.5 144t-37 177h252q11 -85 61 -142t132 -57q83 0 132.5 57t61.5 142zM999 349v151q-82 145 -282 145
q-89 0 -150 -48t-61 -126q0 -88 68.5 -137.5t180.5 -49.5q120 0 244 65z" />
    <glyph glyph-name="Aogonek" unicode="&#x104;" horiz-adv-x="2078" 
d="M2060 -387l64 -169q-59 -49 -140 -77t-155 -28q-141 0 -231.5 74t-90.5 201q0 102 64 204t153 182h-105l-126 300h-892l-138 -300h-506l1126 2304l1030 -2304h-148q-184 -181 -184 -313q0 -58 31 -93t86 -35q83 0 162 54zM1345 653l-278 660l-304 -660h582z" />
    <glyph glyph-name="aogonek" unicode="&#x105;" horiz-adv-x="1619" 
d="M345 1034l-105 246q248 128 559 128q102 0 193 -16.5t174.5 -55.5t143.5 -97.5t95.5 -148t35.5 -200.5v-705q-39 -26 -86 -54q-75 -71 -134 -156.5t-59 -165.5q0 -58 31 -92.5t86 -34.5q83 0 162 54l64 -169q-59 -49 -140.5 -77t-155.5 -28q-141 0 -231.5 74t-90.5 201
q0 120 100 256q-119 -25 -241 -25q-133 0 -251 33.5t-208.5 95.5t-143.5 159.5t-53 217.5q0 209 153 332t408 123q205 0 349 -118q0 72 -20 124.5t-50.5 82.5t-78.5 47.5t-93.5 23t-105.5 5.5q-159 0 -307 -60zM507 471q0 -88 68.5 -137.5t180.5 -49.5q120 0 244 65v151
q-82 145 -282 145q-89 0 -150 -48t-61 -126z" />
    <glyph glyph-name="Cacute" unicode="&#x106;" horiz-adv-x="2257" 
d="M2207 1840l-311 -265q-245 278 -599 278q-191 0 -353 -98.5t-256 -267t-94 -367.5t94 -367.5t256 -267t353 -98.5q183 0 334.5 73.5t282.5 224.5l289 -289q-177 -201 -413 -314.5t-493 -113.5q-237 0 -452.5 91.5t-371.5 245.5t-248.5 367.5t-92.5 447.5t92.5 447.5
t248.5 367.5t371.5 245.5t452.5 91.5q258 0 494.5 -114.5t415.5 -317.5zM1818 2839l-430 -410h-369l310 410h489z" />
    <glyph glyph-name="cacute" unicode="&#x107;" horiz-adv-x="1531" 
d="M1440 1159l-266 -222q-119 126 -292 126q-143 0 -247 -108t-104 -267t104 -267t247 -108q95 0 179 44.5t142 126.5l281 -215q-113 -140 -275 -220.5t-343 -80.5q-155 0 -295.5 57t-242.5 153.5t-162 229.5t-60 280t60 280t162 229.5t242.5 153.5t295.5 57
q163 0 311 -65.5t263 -183.5zM1320 2092l-401 -507h-345l289 507h457z" />
    <glyph glyph-name="Ccaron" unicode="&#x10c;" horiz-adv-x="2257" 
d="M2208 1840l-312 -265q-244 278 -598 278q-191 0 -353.5 -98.5t-256.5 -267t-94 -367.5t94 -367.5t256.5 -267t353.5 -98.5q183 0 334.5 73.5t282.5 224.5l289 -289q-178 -201 -413.5 -314.5t-492.5 -113.5q-237 0 -453 91.5t-372 245.5t-248.5 367.5t-92.5 447.5
t92.5 447.5t248.5 367.5t372 245.5t453 91.5q257 0 493.5 -114.5t416.5 -317.5zM1443 2841h352l-405 -412h-265l-414 412h357l185 -206z" />
    <glyph glyph-name="ccaron" unicode="&#x10d;" horiz-adv-x="1531" 
d="M1440 1158l-266 -221q-119 126 -292 126q-143 0 -247 -108t-104 -267t104 -267t247 -108q95 0 179 44.5t142 126.5l281 -215q-113 -140 -275 -220.5t-343 -80.5q-155 0 -295.5 57t-242.5 153.5t-162 229.5t-60 280q0 146 60 279.5t162 230t242.5 153.5t295.5 57
q162 0 310.5 -66t263.5 -184zM1000 2093h329l-378 -509h-248l-387 509h334l172 -254z" />
    <glyph glyph-name="Dcaron" unicode="&#x10e;" horiz-adv-x="2301" 
d="M961 0h-694v2240h574q218 0 417 -48.5t364.5 -144.5t287.5 -229.5t190 -312.5t68 -385q0 -230 -89.5 -435.5t-246 -356.5t-383 -239.5t-488.5 -88.5zM851 1837h-122v-1434h241q156 0 293.5 56.5t234.5 153t153 228.5t56 279q0 218 -114.5 383t-307.5 249.5t-434 84.5z
M1313 2829h351l-405 -412h-265l-413 412h357l184 -206z" />
    <glyph glyph-name="dcaron" unicode="&#x10f;" horiz-adv-x="1767" 
d="M1132 1303v1193h438v-2311q-303 -217 -659 -217q-190 0 -341 54t-250 152t-151 234t-52 301q0 158 54 291t146.5 221.5t216 137.5t263.5 49q187 0 335 -105zM1132 381v536q-100 139 -252 139q-140 0 -232.5 -91t-92.5 -259q0 -177 98 -279.5t254 -102.5q118 0 225 57z
M2192 2496l-271 -657h-247l200 657h318z" />
    <glyph glyph-name="Eogonek" unicode="&#x118;" horiz-adv-x="1659" 
d="M1481 1837h-753v-461h633v-403h-633v-570h805v-403h-139q-185 -180 -185 -313q0 -58 31 -93t86 -35q84 0 162 54l65 -169q-59 -49 -140.5 -77t-155.5 -28q-141 0 -231.5 74t-90.5 201q0 102 64 204t153 182h-885v2240h1214v-403z" />
    <glyph glyph-name="eogonek" unicode="&#x119;" horiz-adv-x="1638" 
d="M1543 603h-1006q5 -148 98.5 -241t240.5 -93q108 0 193 38t181 126l229 -190q-202 -204 -429 -254q-173 -175 -173 -302q0 -58 31 -93t86 -35q83 0 162 54l64 -169q-58 -49 -139.5 -77t-155.5 -28q-142 0 -232 73.5t-90 201.5q0 92 53.5 185.5t132.5 171.5
q-146 11 -271 67.5t-214.5 149t-140 221.5t-50.5 279q0 211 96 376.5t258.5 254.5t360.5 89q155 0 286.5 -55.5t226.5 -157.5t148.5 -254t53.5 -338zM1122 847q-29 121 -106 189t-188 68q-105 0 -180 -68t-101 -189h575z" />
    <glyph glyph-name="Ecaron" unicode="&#x11a;" horiz-adv-x="1660" 
d="M267 2240h1214v-403h-752v-461h632v-403h-632v-570h804v-403h-1266v2240zM874 2633l191 206h351l-404 -412h-266l-413 412h357z" />
    <glyph glyph-name="ecaron" unicode="&#x11b;" horiz-adv-x="1637" 
d="M1543 603h-1006q5 -148 98.5 -241t240.5 -93q108 0 193 38t181 126l229 -190q-136 -135 -283.5 -205t-336.5 -70q-214 0 -383.5 89.5t-266.5 254t-97 376.5q0 127 36 240t102 199.5t154.5 150.5t197 97t226.5 33q155 0 286.5 -55.5t226.5 -157.5t148.5 -254.5
t53.5 -337.5zM655 2093l173 -254l178 254h328l-378 -509h-249l-385 509h333zM547 847h574q-28 121 -105 189t-188 68q-105 0 -180 -68t-101 -189z" />
    <glyph glyph-name="Gbreve" unicode="&#x11e;" horiz-adv-x="2484" 
d="M1841 738h-555v371h1106q-2 -242 -84.5 -453t-226 -362.5t-349 -238.5t-443.5 -87q-237 0 -453 91.5t-372 245.5t-248.5 367.5t-92.5 447.5t92.5 447.5t248.5 367.5t372 245.5t453 91.5q276 0 526 -131t427 -359l-314 -265q-246 336 -639 336q-191 0 -353 -98.5
t-256 -267t-94 -367.5t94 -367.5t256 -267t353 -98.5q205 0 353.5 93.5t198.5 257.5zM858 2851h252q11 -74 60.5 -123.5t132.5 -49.5q82 0 132 49.5t62 123.5h251q-14 -175 -127 -285.5t-318 -110.5q-105 0 -188.5 31t-136.5 85.5t-83 125t-37 154.5z" />
    <glyph glyph-name="gbreve" unicode="&#x11f;" horiz-adv-x="1769" 
d="M1134 -57v130q-146 -105 -335 -105q-145 0 -270.5 51t-215.5 141t-142 221.5t-52 285.5q0 165 52 301t151 234t250 152t341 54q354 0 660 -217v-1285q0 -327 -192 -512t-549 -185q-282 0 -604 139l121 302q252 -98 456 -98q94 0 159 26.5t102 79.5t52.5 122t15.5 163z
M1090 2052h252q-7 -96 -37 -177t-83.5 -143.5t-136.5 -98t-188 -35.5t-188 35.5t-136.5 98.5t-83.5 143.5t-37 176.5h251q11 -84 61 -141t133 -57q82 0 132 57t61 141zM1134 459v536q-108 57 -225 57q-155 0 -253 -102.5t-98 -279.5q0 -169 92 -259.5t232 -90.5
q152 0 252 139z" />
    <glyph glyph-name="Idotaccent" unicode="&#x130;" horiz-adv-x="988" 
d="M500 2892q96 0 160 -65t64 -161t-64 -161t-160 -65t-161.5 65t-65.5 161q0 95 65.5 160.5t161.5 65.5zM268 2240h462v-2240h-462v2240z" />
    <glyph glyph-name="dotlessi" unicode="&#x131;" horiz-adv-x="814" 
d="M192 1376h439v-1376h-439v1376z" />
    <glyph glyph-name="Lacute" unicode="&#x139;" horiz-adv-x="1428" 
d="M267 2240h462v-1837h688v-403h-1150v2240zM635 2837h488l-429 -410h-368z" />
    <glyph glyph-name="lacute" unicode="&#x13a;" horiz-adv-x="831" 
d="M204 2496h439v-2496h-439v2496zM527 3073h489l-429 -410h-369z" />
    <glyph glyph-name="Lcaron" unicode="&#x13d;" horiz-adv-x="1428" 
d="M267 2240h462v-1837h688v-403h-1150v2240zM1113 2339h318l-271 -657h-247z" />
    <glyph glyph-name="lcaron" unicode="&#x13e;" horiz-adv-x="831" 
d="M204 2496h439v-2496h-439v2496zM947 2496h317l-270 -657h-247z" />
    <glyph glyph-name="Lslash" unicode="&#x141;" horiz-adv-x="1478" 
d="M87 989l231 156v1095h461v-785l364 247v-327l-364 -247v-725h689v-403h-1150v819l-231 -156v326z" />
    <glyph glyph-name="lslash" unicode="&#x142;" horiz-adv-x="1111" 
d="M338 1021l-278 -218v336l278 218v1139h439v-800l297 232v-337l-297 -232v-1359h-439v1021z" />
    <glyph glyph-name="Nacute" unicode="&#x143;" horiz-adv-x="2595" 
d="M1863 915v1325h461v-2304l-1596 1392v-1328h-461v2304zM1391 2901h488l-429 -410h-368z" />
    <glyph glyph-name="nacute" unicode="&#x144;" horiz-adv-x="1801" 
d="M1181 0v713q0 175 -65 263t-190 88q-142 0 -214 -89t-72 -256v-719h-439v1376h439v-142q75 83 179.5 128.5t225.5 45.5q575 0 575 -662v-746h-439zM968 2092h457l-401 -507h-345z" />
    <glyph glyph-name="Ncaron" unicode="&#x147;" horiz-adv-x="2595" 
d="M1863 915v1325h461v-2304l-1596 1392v-1328h-461v2304zM1295 2687l191 206h351l-405 -412h-266l-412 412h356z" />
    <glyph glyph-name="ncaron" unicode="&#x148;" horiz-adv-x="1801" 
d="M1181 0v713q0 351 -255 351q-142 0 -214 -89t-72 -256v-719h-439v1376h439v-142q75 83 179.5 128.5t225.5 45.5q575 0 575 -662v-746h-439zM909 1839l179 254h329l-379 -509h-248l-386 509h333z" />
    <glyph glyph-name="Ohungarumlaut" unicode="&#x150;" horiz-adv-x="2599" 
d="M1297 2272q237 0 453 -91.5t372 -245.5t248.5 -367.5t92.5 -447.5t-92.5 -447.5t-248.5 -367.5t-372 -245.5t-453 -91.5t-453 91.5t-372 245.5t-248.5 367.5t-92.5 447.5t92.5 447.5t248.5 367.5t372 245.5t453 91.5zM1297 1853q-191 0 -353 -98.5t-256 -267t-94 -367.5
t94 -367.5t256 -267t353 -98.5t353.5 98.5t256.5 267t94 367.5t-94 367.5t-256.5 267t-353.5 98.5zM1095 2862h473l-407 -410h-360zM1739 2862h473l-407 -410h-360z" />
    <glyph glyph-name="ohungarumlaut" unicode="&#x151;" horiz-adv-x="1735" 
d="M869 1408q206 0 381 -96.5t277 -262t102 -361.5t-102 -361.5t-277 -262t-381 -96.5q-155 0 -295.5 57t-242.5 153.5t-162 229.5t-60 280t60 280t162 229.5t242.5 153.5t295.5 57zM869 1063q-139 0 -237 -108t-98 -267t98 -267t237 -108t237 108t98 267t-98 267t-237 108z
M621 2105h442l-381 -507h-336zM1223 2105h442l-381 -507h-336z" />
    <glyph glyph-name="OE" unicode="&#x152;" horiz-adv-x="3392" 
d="M3213 1837h-752v-461h632v-403h-632v-570h804v-403h-1265v222q-145 -121 -325.5 -187.5t-378.5 -66.5q-237 0 -452.5 91.5t-371.5 245.5t-248.5 367.5t-92.5 447.5t92.5 447.5t248.5 367.5t371.5 245.5t452.5 91.5q198 0 378.5 -66.5t325.5 -187.5v222h1213v-403z
M1296 1853q-191 0 -353 -98.5t-256 -267t-94 -367.5t94 -367.5t256 -267t353 -98.5t353.5 98.5t256.5 267t94 367.5t-94 367.5t-256.5 267t-353.5 98.5z" />
    <glyph glyph-name="oe" unicode="&#x153;" horiz-adv-x="2728" 
d="M2569 243q-134 -135 -281.5 -205t-337.5 -70q-153 0 -289 64.5t-241 173.5q-103 -112 -246.5 -175t-305.5 -63q-154 0 -294.5 57t-242.5 153.5t-162 229.5t-60 280t60 280t162 229.5t242.5 153.5t294.5 57q162 0 304 -62.5t246 -173.5q102 108 230.5 172t269.5 64
q156 0 287 -55.5t226 -157.5t148.5 -254t54.5 -338h-1007q5 -148 98.5 -241t241.5 -93q108 0 192.5 38t180.5 126zM533 688q0 -158 98 -266.5t237 -108.5q140 0 238 108t98 267t-98 267t-238 108q-139 0 -237 -108t-98 -267zM1637 847h575q-29 121 -106 189t-188 68
q-104 0 -179 -68t-102 -189z" />
    <glyph glyph-name="Racute" unicode="&#x154;" horiz-adv-x="1909" 
d="M955 892h-226v-892h-462v2240h742q208 0 378.5 -80.5t274 -236t103.5 -357.5q0 -190 -95.5 -347t-259.5 -244l423 -975h-504zM973 1837h-244v-561h246q149 0 239 72.5t90 211.5q0 135 -90.5 206t-240.5 71zM1007 2827h489l-429 -410h-369z" />
    <glyph glyph-name="racute" unicode="&#x155;" horiz-adv-x="1229" 
d="M201 0v1376h440v-174q187 206 381 206q131 0 227 -67l-169 -305q-73 36 -150 36q-123 0 -206 -93t-83 -235v-744h-440zM756 2108h457l-401 -507h-345z" />
    <glyph glyph-name="Rcaron" unicode="&#x158;" horiz-adv-x="1909" 
d="M955 892h-226v-892h-462v2240h742q155 0 292.5 -47.5t240.5 -133t163 -213t60 -279.5q0 -191 -95.5 -348t-259.5 -244l423 -975h-504zM973 1837h-244v-561h246q149 0 239 73t90 212q0 135 -90.5 205.5t-240.5 70.5zM971 2623l191 206h351l-405 -412h-265l-413 412h357z
" />
    <glyph glyph-name="rcaron" unicode="&#x159;" horiz-adv-x="1228" 
d="M201 0v1376h439v-174q188 206 382 206q130 0 226 -67l-169 -305q-72 36 -149 36q-123 0 -206.5 -93t-83.5 -235v-744h-439zM724 1839l179 254h328l-378 -509h-249l-385 509h333z" />
    <glyph glyph-name="Sacute" unicode="&#x15a;" horiz-adv-x="1634" 
d="M1453 1946l-293 -235q-86 95 -160 139.5t-148 44.5q-80 0 -137.5 -46t-57.5 -134q0 -55 29.5 -107.5t80 -98.5t115.5 -93l137.5 -96.5l144.5 -103t137 -118t115.5 -135.5t80 -162.5t29.5 -192.5q0 -140 -49.5 -258t-141 -202.5t-228 -132t-304.5 -47.5
q-241 0 -425.5 117.5t-307.5 329.5l342 198q80 -130 177.5 -197t223.5 -67q96 0 173.5 63t77.5 161q0 68 -29.5 129.5t-79.5 112t-114.5 99.5t-136.5 98.5l-143.5 101.5t-136 115.5t-114.5 134t-79.5 164t-29.5 198.5q0 154 82.5 279t228.5 196t325 71q167 0 318.5 -80.5
t297.5 -245.5zM1401 2839l-429 -410h-370l310 410h489z" />
    <glyph glyph-name="sacute" unicode="&#x15b;" horiz-adv-x="1240" 
d="M1035 1249l-181 -214q-101 81 -186 81q-41 0 -68.5 -23.5t-27.5 -61.5q0 -33 32 -67t83.5 -65.5l114 -67t124.5 -79.5t113.5 -94.5t83.5 -121t32 -150.5q0 -200 -142 -309t-406 -109q-294 0 -540 229l213 216q103 -84 169.5 -115.5t135.5 -31.5q64 0 101.5 35.5
t37.5 87.5q0 40 -31 77t-81 69.5t-110 67.5t-120 76.5t-110 89.5t-81 115t-31 144q0 178 128 279t323 101q115 0 227 -39.5t197 -119.5zM1147 2092l-401 -507h-344l288 507h457z" />
    <glyph glyph-name="Scedilla" unicode="&#x15e;" horiz-adv-x="1633" 
d="M458 -588l61 161q106 -53 200 -53q48 0 78.5 19t30.5 59q0 33 -27 57.5t-70 37.5t-87 19t-87 6l152 255q-208 21 -368 136t-271 306l342 198q80 -130 177 -197t223 -67q96 0 173.5 63t77.5 161q0 68 -29.5 129.5t-79.5 112t-114.5 99.5l-136 98.5l-143 101.5t-136 115.5
t-114.5 134t-79.5 164t-29.5 198.5q0 154 82.5 279t228 196t324.5 71q329 0 616 -326l-292 -235q-87 95 -160.5 139.5t-147.5 44.5q-80 0 -137.5 -46t-57.5 -134q0 -55 29.5 -107.5t80 -98.5t115.5 -93l137 -96.5l144 -103t137 -118t115.5 -135.5t80 -162.5t29.5 -192.5
q0 -250 -149.5 -419.5t-415.5 -208.5l-91 -141q98 -12 168.5 -72.5t70.5 -152.5q0 -73 -31 -127.5t-85 -86t-119 -46.5t-141 -15q-152 0 -274 73z" />
    <glyph glyph-name="scedilla" unicode="&#x15f;" horiz-adv-x="1240" 
d="M275 -588l62 161q105 -53 199 -53q48 0 78.5 19t30.5 59q0 33 -27 57.5t-70 37.5t-86.5 19t-86.5 6l151 255q-248 28 -459 224l213 216q103 -84 169.5 -115.5t135.5 -31.5q64 0 101.5 35.5t37.5 87.5q0 40 -31 77t-81 69.5t-110 67.5t-120 76.5t-110 89.5t-81 115
t-31 144q0 119 61 206.5t162 130.5t228 43q114 0 226.5 -39.5t197.5 -119.5l-182 -214q-102 81 -185 81q-41 0 -68.5 -23.5t-27.5 -61.5q0 -33 32 -67t83.5 -65.5l114 -67t124.5 -79.5t113.5 -94.5t83.5 -121t32 -150.5q0 -165 -97 -269t-281 -135l-91 -143
q97 -12 167.5 -72.5t70.5 -152.5q0 -73 -31 -127.5t-84.5 -86t-119 -46.5t-141.5 -15q-149 0 -273 73z" />
    <glyph glyph-name="Scaron" unicode="&#x160;" horiz-adv-x="1634" 
d="M1453 1946l-293 -235q-86 95 -160 139.5t-148 44.5q-80 0 -137.5 -45.5t-57.5 -133.5q0 -55 29.5 -107.5t80 -99t115.5 -93.5l137.5 -96.5l144.5 -103t137 -118t115.5 -135.5t80 -162.5t29.5 -192.5q0 -140 -49.5 -258t-141 -202.5t-228 -132t-304.5 -47.5
q-241 0 -425.5 117.5t-307.5 329.5l342 198q80 -130 177.5 -197t223.5 -67q96 0 173.5 63t77.5 161q0 68 -29.5 129.5t-79.5 112t-114.5 99.5t-136.5 98.5l-143.5 101.5t-136 115.5t-114.5 134t-79.5 164t-29.5 198.5q0 116 48.5 217.5t132.5 173.5t202.5 113.5t252.5 41.5
q167 0 318.5 -80.5t297.5 -245.5zM1017 2841h352l-404 -412h-267l-413 412h357l184 -206z" />
    <glyph glyph-name="scaron" unicode="&#x161;" horiz-adv-x="1240" 
d="M1035 1249l-181 -214q-103 81 -185 81q-41 0 -69 -23.5t-28 -61.5q0 -33 32 -67t83.5 -65.5l114 -67t124.5 -79.5t113.5 -94.5t83.5 -121t32 -150.5q0 -200 -141.5 -309t-405.5 -109q-296 0 -540 229l212 216q104 -84 170 -115.5t135 -31.5q64 0 101.5 35.5t37.5 87.5
q0 40 -31 77t-81 69.5t-110 67.5t-120 76.5t-110 89.5t-81 115t-31 144q0 119 61 206.5t162 130.5t228 43q115 0 227 -39.5t197 -119.5zM789 2093h329l-379 -509h-248l-386 509h334l172 -254z" />
    <glyph glyph-name="uni0162" unicode="&#x162;" horiz-adv-x="1525" 
d="M1522 1837h-527v-1837h-461v1837h-527v403h1515v-403zM619 -200h295l-251 -610h-229z" />
    <glyph glyph-name="uni0163" unicode="&#x163;" horiz-adv-x="1005" 
d="M932 998h-295v-998h-439v1881h439v-505h295v-378zM280 -177h296l-252 -610h-229z" />
    <glyph glyph-name="Tcaron" unicode="&#x164;" horiz-adv-x="1526" 
d="M1523 1837h-527v-1837h-462v1837h-527v403h1516v-403zM764 2633l191 206h352l-405 -412h-266l-413 412h357z" />
    <glyph glyph-name="tcaron" unicode="&#x165;" horiz-adv-x="1005" 
d="M932 998h-295v-998h-439v1881h439v-505h295v-378zM986 2275h319l-272 -657h-246z" />
    <glyph glyph-name="Uring" unicode="&#x16e;" horiz-adv-x="2354" 
d="M1634 478v1762h462v-2000q-184 -126 -405 -199t-442 -73q-124 0 -228.5 10.5t-209 37.5t-186.5 70.5t-153.5 112.5t-118.5 160.5t-74 217.5t-27 280v1383h461v-1286q0 -140 27.5 -245t73.5 -169.5t116 -104.5t145.5 -54.5t170.5 -14.5q202 0 388 112zM1505 2698
q0 -137 -97 -234t-234 -97t-234 97t-97 234q0 136 97.5 233.5t233.5 97.5t233.5 -97.5t97.5 -233.5zM1019 2698q0 -64 45.5 -109.5t109.5 -45.5q65 0 110.5 45.5t45.5 109.5t-45.5 109t-110.5 45q-64 0 -109.5 -45t-45.5 -109z" />
    <glyph glyph-name="uring" unicode="&#x16f;" horiz-adv-x="1776" 
d="M1140 374v1002h439v-1191q-305 -217 -670 -217q-123 0 -221.5 15.5t-194.5 59t-160.5 114t-104 187.5t-39.5 273v759h439v-697q0 -108 22.5 -183t64 -113.5t89 -54.5t109.5 -16q115 0 227 62zM1215 1880q0 -137 -97 -234t-234 -97t-233.5 97t-96.5 234t97 234t233 97
q137 0 234 -97t97 -234zM729 1880q0 -64 45.5 -109.5t109.5 -45.5t109.5 45.5t45.5 109.5t-45 109t-110 45q-64 0 -109.5 -45t-45.5 -109z" />
    <glyph glyph-name="Uhungarumlaut" unicode="&#x170;" horiz-adv-x="2354" 
d="M1635 478v1762h461v-2000q-184 -127 -404.5 -199.5t-441.5 -72.5q-124 0 -229 10.5t-209 37.5t-186 70.5t-154 112.5t-119 160.5t-74 217.5t-27 280v1383h462v-1286q0 -140 27.5 -245t73.5 -169.5t115.5 -104.5t145 -54.5t170.5 -14.5q203 0 389 112zM1383 2860
l-407 -410h-361l295 410h473zM2028 2860l-408 -410h-360l294 410h474z" />
    <glyph glyph-name="uhungarumlaut" unicode="&#x171;" horiz-adv-x="1777" 
d="M1141 374v1002h439v-1191q-303 -217 -670 -217q-123 0 -221.5 15.5t-195 59t-161 114t-104 187.5t-39.5 273v759h440v-697q0 -87 15.5 -153t41 -106t63.5 -65t77.5 -34t87.5 -9q113 0 227 62zM1082 2110l-381 -507h-337l275 507h443zM1684 2110l-381 -507h-336l274 507
h443z" />
    <glyph glyph-name="Ydieresis" unicode="&#x178;" horiz-adv-x="1913" 
d="M672 2864q92 0 153 -62t61 -155t-61 -155t-153 -62t-156 62.5t-64 154.5t64 154.5t156 62.5zM1288 2864q92 0 153.5 -62.5t61.5 -154.5t-61.5 -154.5t-153.5 -62.5t-155 62.5t-63 154.5t63 154.5t155 62.5zM1190 1032v-1032h-461v1032l-756 1208h535l451 -721l449 721
h535z" />
    <glyph glyph-name="Zacute" unicode="&#x179;" horiz-adv-x="1836" 
d="M775 403h971v-403h-1714l1005 1837h-881v403h1624zM1031 2837h489l-429 -410h-369z" />
    <glyph glyph-name="zacute" unicode="&#x17a;" horiz-adv-x="1596" 
d="M746 355h752v-355h-1472l763 1021h-600v355h1322zM916 2096h457l-401 -507h-345z" />
    <glyph glyph-name="Zdotaccent" unicode="&#x17b;" horiz-adv-x="1836" 
d="M948 2892q96 0 160 -65t64 -161t-64 -161t-160 -65t-161.5 65t-65.5 161q0 95 66 160.5t161 65.5zM775 403h971v-403h-1714l1005 1837h-881v403h1624z" />
    <glyph glyph-name="zdotaccent" unicode="&#x17c;" horiz-adv-x="1596" 
d="M838 2068q96 0 160 -65t64 -161t-64 -161t-160 -65t-162 65t-66 161q0 95 66 160.5t162 65.5zM746 355h752v-355h-1472l763 1021h-599v355h1322z" />
    <glyph glyph-name="Zcaron" unicode="&#x17d;" horiz-adv-x="1836" 
d="M775 403h971v-403h-1714l1005 1837h-881v403h1624zM961 2633l191 206h351l-405 -412h-265l-413 412h356z" />
    <glyph glyph-name="zcaron" unicode="&#x17e;" horiz-adv-x="1596" 
d="M746 355h752v-355h-1472l763 1021h-600v355h1323zM847 1844l178 254h329l-379 -509h-248l-387 509h335z" />
    <glyph glyph-name="uni0218" unicode="&#x218;" horiz-adv-x="1634" 
d="M1453 1946l-293 -235q-86 95 -160 139.5t-148 44.5q-80 0 -137.5 -45.5t-57.5 -133.5q0 -55 29.5 -107.5t80 -99t115.5 -93.5l137.5 -96.5l144.5 -103t137 -118t115.5 -135.5t80 -162.5t29.5 -192.5q0 -140 -49.5 -258t-141 -202.5t-228 -132t-304.5 -47.5
q-241 0 -425.5 117.5t-307.5 329.5l343 198q161 -264 400 -264q96 0 173.5 63t77.5 161q0 68 -29.5 129.5t-79.5 112t-114.5 99.5t-136.5 98.5l-143.5 101.5t-136 115.5t-114.5 134t-79.5 164t-29.5 198.5q0 116 48.5 217.5t132.5 173.5t202.5 113.5t252.5 41.5
q167 0 318.5 -80.5t297.5 -245.5zM1038 -195l-251 -611h-229l185 611h295z" />
    <glyph glyph-name="uni0219" unicode="&#x219;" horiz-adv-x="1240" 
d="M1035 1249l-181 -214q-101 81 -185 81q-41 0 -69 -23.5t-28 -61.5q0 -33 32 -67t83.5 -65.5l114 -67t124.5 -79.5t113.5 -94.5t83.5 -121t32 -150.5q0 -200 -141.5 -309t-405.5 -109q-296 0 -540 229l212 216q104 -84 170 -115.5t136 -31.5q63 0 100.5 35.5t37.5 87.5
q0 40 -31 77t-81 69.5t-110 67.5t-120 76.5t-110 89.5t-81 115t-31 144q0 178 128 279t323 101q116 0 228 -39.5t196 -119.5zM852 -195l-252 -611h-229l185 611h296z" />
    <glyph glyph-name="uni021A" unicode="&#x21a;" horiz-adv-x="1525" 
d="M1522 1837h-527v-1837h-461v1837h-527v403h1515v-403zM619 -200h295l-251 -610h-229z" />
    <glyph glyph-name="uni021B" unicode="&#x21b;" horiz-adv-x="1006" 
d="M932 998h-295v-998h-439v1881h439v-505h295v-378zM280 -177h296l-252 -610h-229z" />
    <glyph glyph-name="circumflex" unicode="&#x2c6;" horiz-adv-x="1204" 
d="M1113 1806h-333l-172 254l-179 -254h-329l379 509h248z" />
    <glyph glyph-name="caron" unicode="&#x2c7;" horiz-adv-x="1083" 
d="M544 2061l178 254h329l-379 -509h-248l-386 509h334z" />
    <glyph glyph-name="uni02C9" unicode="&#x2c9;" horiz-adv-x="1352" 
d="M192 2173h974v-282h-974v282z" />
    <glyph glyph-name="breve" unicode="&#x2d8;" horiz-adv-x="1102" 
d="M111 2288h252q11 -85 61 -142t132 -57t131.5 57t61.5 142h252q-7 -96 -37 -177t-83.5 -144t-136.5 -98.5t-188 -35.5t-188 35.5t-136.5 98.5t-83.5 144t-37 177z" />
    <glyph glyph-name="dotaccent" unicode="&#x2d9;" horiz-adv-x="730" 
d="M372 2282q96 0 160 -65t64 -161t-64 -160.5t-160 -64.5t-161.5 64.5t-65.5 160.5t65.5 161t161.5 65z" />
    <glyph glyph-name="ring" unicode="&#x2da;" horiz-adv-x="938" 
d="M474 2425q137 0 234 -97t97 -234t-97 -234t-234 -97t-234 97t-97 234t97 234t234 97zM474 2249q-64 0 -109.5 -45.5t-45.5 -109.5t45.5 -109.5t109.5 -45.5t109.5 45.5t45.5 109.5t-45.5 109.5t-109.5 45.5z" />
    <glyph glyph-name="ogonek" unicode="&#x2db;" horiz-adv-x="735" 
d="M616 -404l65 -169q-59 -49 -140.5 -77t-155.5 -28q-141 0 -231.5 74t-90.5 201q0 108 71.5 216t165.5 187h239q-201 -192 -201 -330q0 -59 31 -93.5t86 -34.5q83 0 161 54z" />
    <glyph glyph-name="tilde" unicode="&#x2dc;" horiz-adv-x="1211" 
d="M846 2256h236q-13 -202 -97 -312t-193 -110q-57 0 -102.5 18t-73 43.5t-49 51t-43 43.5t-43.5 18q-36 0 -57.5 -39t-33.5 -126h-236q13 201 97 311t192 110q57 0 103 -18t73.5 -43.5t49 -51t43.5 -43.5t44 -18q35 0 56.5 39t33.5 127z" />
    <glyph glyph-name="hungarumlaut" unicode="&#x2dd;" horiz-adv-x="1496" 
d="M406 2303h442l-380 -506h-337zM1008 2303h442l-380 -506h-337z" />
    <glyph glyph-name="uni03A9" unicode="&#x3a9;" horiz-adv-x="2471" 
d="M1375 0v254q96 58 180 144.5t153 200t109 260.5t40 309q0 108 -24.5 215.5t-75.5 206.5t-122 175t-172.5 121.5t-218.5 45.5q-187 0 -331.5 -104t-220.5 -278.5t-76 -387.5q0 -153 40 -298t108 -260t152.5 -204t179.5 -145v-255h-949v340h378q-151 167 -242 384.5
t-91 471.5q0 233 81.5 434.5t222 341.5t335.5 220t416 80q184 0 348 -57t287.5 -157.5t213.5 -234t136.5 -292t46.5 -325.5q0 -260 -92.5 -481.5t-242.5 -384.5h379v-340h-948z" />
    <glyph glyph-name="uni03BC" unicode="&#x3bc;" horiz-adv-x="1904" 
d="M621 75v-834h-355v2135h356v-770q0 -146 71 -236.5t198 -90.5q341 0 341 590v507h358v-784q0 -54 0.5 -78.5t2.5 -68.5t7.5 -65t15 -51.5t24 -47.5t37 -33.5t51.5 -26.5v-253q-338 0 -430 266q-75 -137 -176 -201.5t-234 -64.5q-161 0 -267 107z" />
    <glyph glyph-name="pi" unicode="&#x3c0;" horiz-adv-x="1793" 
d="M488 1376h1238l-31 -279h-314q-30 -193 -30 -459q0 -412 312 -412l-24 -258q-106 0 -192 15t-148.5 42t-109.5 68t-77 88.5t-48 108.5t-25 122.5t-7 135.5q0 267 40 549h-338q-50 -779 -148 -1097h-348q76 252 116 498.5t69 596.5h-54q-65 0 -115.5 -15.5t-120.5 -51.5
l-79 188q150 160 434 160z" />
    <glyph glyph-name="uni200A" unicode="&#x200a;" horiz-adv-x="73" 
 />
    <glyph glyph-name="uni2010" unicode="&#x2010;" horiz-adv-x="1255" 
d="M193 1022h879v-341h-879v341z" />
    <glyph glyph-name="endash" unicode="&#x2013;" horiz-adv-x="1983" 
d="M193 1013h1607v-323h-1607v323z" />
    <glyph glyph-name="emdash" unicode="&#x2014;" horiz-adv-x="3536" 
d="M193 1013h3160v-323h-3160v323z" />
    <glyph glyph-name="quoteleft" unicode="&#x2018;" horiz-adv-x="838" 
d="M466 2496h330l-267 -879h-426z" />
    <glyph glyph-name="quoteright" unicode="&#x2019;" horiz-adv-x="828" 
d="M383 2496h426l-363 -879h-330z" />
    <glyph glyph-name="quotesinglbase" unicode="&#x201a;" horiz-adv-x="847" 
d="M316 443h425l-363 -879h-329z" />
    <glyph glyph-name="quotedblleft" unicode="&#x201c;" horiz-adv-x="1467" 
d="M466 2496h329l-266 -879h-426zM1094 2496h331l-267 -879h-426z" />
    <glyph glyph-name="quotedblright" unicode="&#x201d;" horiz-adv-x="1457" 
d="M383 2496h426l-363 -879h-330zM1012 2496h426l-363 -879h-330z" />
    <glyph glyph-name="quotedblbase" unicode="&#x201e;" horiz-adv-x="1477" 
d="M316 443h425l-363 -879h-329zM945 443h426l-364 -879h-329z" />
    <glyph glyph-name="dagger" unicode="&#x2020;" horiz-adv-x="1692" 
d="M633 1398h-575v349h575v538h425v-538h579v-349h-579v-1801h-425v1801z" />
    <glyph glyph-name="daggerdbl" unicode="&#x2021;" horiz-adv-x="1875" 
d="M723 2285h425v-538h579v-349h-579v-424h579v-347h-579v-1030h-425v1030h-575v347h575v424h-575v349h575v538z" />
    <glyph glyph-name="bullet" unicode="&#x2022;" horiz-adv-x="1194" 
d="M600 1523q185 0 316.5 -131t131.5 -317q0 -185 -131.5 -316.5t-316.5 -131.5q-186 0 -317 131.5t-131 316.5q0 186 131 317t317 131z" />
    <glyph glyph-name="ellipsis" unicode="&#x2026;" horiz-adv-x="2959" 
d="M416 480q106 0 181 -75.5t75 -180.5q0 -106 -75 -181t-181 -75q-105 0 -180 75t-75 181q0 105 75 180.5t180 75.5zM1483 480q106 0 181 -75.5t75 -180.5q0 -106 -75 -181t-181 -75q-105 0 -180.5 75t-75.5 181q0 105 75.5 180.5t180.5 75.5zM2550 480q106 0 181 -75.5
t75 -180.5q0 -106 -75 -181t-181 -75q-105 0 -180.5 75t-75.5 181q0 105 75.5 180.5t180.5 75.5z" />
    <glyph glyph-name="perthousand" unicode="&#x2030;" horiz-adv-x="3827" 
d="M593 2256q120 0 219 -56t161 -148t95.5 -207t33.5 -237q0 -98 -18.5 -194t-59.5 -184.5t-99.5 -156t-144 -108t-187.5 -40.5t-188 40.5t-144 107.5t-99 156t-59.5 185t-18.5 194q0 122 33.5 237t95.5 207t161 148t219 56zM593 2002q-70 0 -120 -62.5t-71 -149t-21 -182.5
q0 -73 11 -144t34 -137t66.5 -106.5t100.5 -40.5t100.5 40.5t66.5 106.5t34 137t11 144q0 70 -13 137.5t-37.5 126t-66.5 94.5t-95 36zM2078 1315q120 0 219 -56t161 -148t95.5 -207t33.5 -237q0 -98 -18.5 -194t-59.5 -185t-99 -156t-144 -107.5t-188 -40.5t-187.5 40.5
t-144 108t-99.5 156t-59.5 184.5t-18.5 194q0 97 20.5 190.5t63.5 176.5t102.5 145.5t142.5 99t180 36.5zM2078 1061q-53 0 -95 -36t-66.5 -94t-37.5 -126t-13 -138q0 -74 11 -145t34.5 -137t66.5 -106.5t100 -40.5t100.5 40.5t67 106.5t34.5 137t11 145q0 70 -13 138
t-37.5 126t-67 94t-95.5 36zM3231 1315q120 0 219 -56t161 -148t95.5 -207t33.5 -237q0 -98 -18.5 -194t-59.5 -185t-99 -156t-144 -107.5t-188 -40.5t-187.5 40.5t-144 108t-99.5 156t-59.5 184.5t-18.5 194q0 122 33.5 237t95.5 207t161 148t219 56zM3231 1061
q-70 0 -120 -62.5t-71 -149t-21 -182.5q0 -74 11 -145t34 -137t66.5 -106.5t100.5 -40.5t100.5 40.5t66.5 106.5t34 137t11 145q0 96 -21 182.5t-71 149t-120 62.5zM1841 2304h325l-1335 -2368h-325z" />
    <glyph glyph-name="guilsinglleft" unicode="&#x2039;" horiz-adv-x="1010" 
d="M51 715l467 662h395l-425 -662l425 -660h-395z" />
    <glyph glyph-name="guilsinglright" unicode="&#x203a;" horiz-adv-x="1011" 
d="M533 715l-426 662h395l468 -662l-468 -660h-395z" />
    <glyph glyph-name="fraction" unicode="&#x2044;" horiz-adv-x="486" 
d="M752 2304h325l-1336 -2368h-325z" />
    <glyph glyph-name="uni2070" unicode="&#x2070;" horiz-adv-x="1212" 
d="M607 2625q97 0 180.5 -36.5t143 -99t102 -145.5t63 -176t20.5 -190q0 -99 -18.5 -194.5t-59.5 -184.5t-99 -156.5t-144 -108t-188 -40.5t-187.5 40.5t-144 108t-99.5 156.5t-59.5 184.5t-18.5 194.5q0 97 20.5 190t63.5 176t102.5 145.5t142.5 99t180 36.5zM607 2372
q-53 0 -95 -36t-66.5 -94.5t-37.5 -126t-13 -137.5q0 -74 11 -145t34.5 -137t66.5 -106.5t100 -40.5t100.5 40.5t66.5 106.5t34 137t11 145q0 96 -21 182.5t-71 149t-120 62.5z" />
    <glyph glyph-name="uni2074" unicode="&#x2074;" horiz-adv-x="1072" 
d="M576 1306v218h-567v82l740 1014h122v-847h134v-249h-134v-218h-295zM580 1769v249l-181 -249h181z" />
    <glyph glyph-name="uni2075" unicode="&#x2075;" horiz-adv-x="1061" 
d="M954 2610v-252h-405l-39 -135q193 -4 327 -132t134 -320q0 -203 -143 -338t-354 -135q-140 0 -257 68.5t-191 193.5l206 142q40 -71 99 -110.5t121 -39.5q92 0 155.5 65.5t63.5 160.5q0 98 -68 162t-169 64q-152 0 -303 -113l208 719h615z" />
    <glyph glyph-name="uni2076" unicode="&#x2076;" horiz-adv-x="1122" 
d="M186 2084l411 526h346l-299 -380q173 -23 290.5 -153t117.5 -302q0 -129 -66 -239t-179 -174t-246 -64t-246.5 64t-179.5 174t-66 239q0 159 117 309zM561 1996q-83 0 -142 -64.5t-59 -156.5q0 -91 58.5 -156t142.5 -65q83 0 141.5 64.5t58.5 156.5q0 91 -58 156t-142 65
z" />
    <glyph glyph-name="uni2077" unicode="&#x2077;" horiz-adv-x="1167" 
d="M669 2354h-602v253h1104l-778 -1294h-342z" />
    <glyph glyph-name="uni2078" unicode="&#x2078;" horiz-adv-x="1081" 
d="M539 2625q181 0 298.5 -108.5t117.5 -274.5q0 -136 -127 -244q160 -120 160 -294q0 -172 -128 -291t-321 -119q-194 0 -321.5 118.5t-127.5 291.5q0 172 160 294q-126 106 -126 244q0 168 116.5 275.5t298.5 107.5zM539 1864q-66 0 -111.5 -46.5t-45.5 -113.5
q0 -68 45.5 -114.5t111.5 -46.5q67 0 112.5 46.5t45.5 114.5t-45.5 114t-112.5 46zM539 2385q-54 0 -92.5 -40t-38.5 -99t38.5 -99t92.5 -40q55 0 93.5 40t38.5 99t-38.5 99t-93.5 40z" />
    <glyph glyph-name="uni2079" unicode="&#x2079;" horiz-adv-x="1119" 
d="M939 1836l-411 -526h-346l298 380q-172 23 -290 153t-118 303q0 129 66 238.5t179.5 173.5t245.5 64q133 0 246.5 -64t179.5 -173.5t66 -238.5q0 -162 -116 -310zM563 2367q-82 0 -141 -64.5t-59 -156.5q0 -91 58.5 -156.5t141.5 -65.5q84 0 143 64.5t59 157.5
q0 91 -59 156t-143 65z" />
    <glyph glyph-name="uni2080" unicode="&#x2080;" horiz-adv-x="1212" 
d="M607 945q97 0 180.5 -36.5t143 -99t102 -145.5t63 -176t20.5 -190q0 -99 -18.5 -194.5t-59.5 -184.5t-99 -156.5t-144 -108t-188 -40.5t-187.5 40.5t-144 108t-99.5 156.5t-59.5 184.5t-18.5 194.5q0 97 20.5 190t63.5 176t102.5 145.5t142.5 99t180 36.5zM607 692
q-53 0 -95 -36t-66.5 -94.5t-37.5 -126t-13 -137.5q0 -74 11 -145t34.5 -137t66.5 -106.5t100 -40.5t100.5 40.5t66.5 106.5t34 137t11 145q0 96 -21 182.5t-71 149t-120 62.5z" />
    <glyph glyph-name="uni2081" unicode="&#x2081;" horiz-adv-x="732" 
d="M258 674h-198l58 253h439v-1294h-299v1041z" />
    <glyph glyph-name="uni2082" unicode="&#x2082;" horiz-adv-x="1066" 
d="M973 -116v-254h-932l549 695q83 107 83 204q0 66 -44 112.5t-104 46.5q-66 0 -110 -51t-61 -138h-275q3 87 40 168.5t97.5 141.5t143.5 96.5t171 36.5q195 0 318.5 -121.5t123.5 -290.5q0 -60 -11 -111t-34.5 -95t-41.5 -69.5t-51 -66.5l-242 -304h380z" />
    <glyph glyph-name="uni2083" unicode="&#x2083;" horiz-adv-x="1070" 
d="M64 41h277q7 -75 57.5 -123.5t116.5 -48.5q69 0 114.5 46t45.5 117q0 76 -58 123.5t-148 47.5v205q78 0 126 39t48 104q0 60 -38.5 100.5t-92.5 40.5q-56 0 -94.5 -42.5t-51.5 -113.5h-267q6 167 133 288t286 121q185 0 303.5 -113.5t118.5 -269.5q0 -140 -122 -243
q158 -108 158 -295q0 -166 -127 -288t-331 -122q-110 0 -212.5 54t-170 153.5t-71.5 219.5z" />
    <glyph glyph-name="uni2084" unicode="&#x2084;" horiz-adv-x="1072" 
d="M576 -374v218h-567v82l740 1014h122v-847h134v-249h-134v-218h-295zM580 89v249l-181 -249h181z" />
    <glyph glyph-name="uni2085" unicode="&#x2085;" horiz-adv-x="1061" 
d="M954 930v-252h-405l-39 -135q193 -4 327 -132t134 -320q0 -203 -143 -338t-354 -135q-140 0 -257 68.5t-191 193.5l206 142q40 -71 99 -110.5t121 -39.5q92 0 155.5 65.5t63.5 160.5q0 98 -68 162t-169 64q-152 0 -303 -113l208 719h615z" />
    <glyph glyph-name="uni2086" unicode="&#x2086;" horiz-adv-x="1122" 
d="M186 404l411 526h346l-299 -380q173 -23 290.5 -153t117.5 -302q0 -129 -66 -239t-179 -174t-246 -64t-246.5 64t-179.5 174t-66 239q0 160 117 309zM561 316q-83 0 -142 -64.5t-59 -156.5q0 -91 58.5 -156t142.5 -65q83 0 141.5 64.5t58.5 156.5q0 91 -58 156t-142 65z
" />
    <glyph glyph-name="uni2087" unicode="&#x2087;" horiz-adv-x="1167" 
d="M669 674h-602v253h1104l-778 -1294h-342z" />
    <glyph glyph-name="uni2088" unicode="&#x2088;" horiz-adv-x="1081" 
d="M539 945q181 0 298.5 -108.5t117.5 -274.5q0 -136 -127 -244q160 -120 160 -294q0 -172 -128 -291t-321 -119q-194 0 -321.5 118.5t-127.5 291.5q0 172 160 294q-126 106 -126 244q0 168 116.5 275.5t298.5 107.5zM539 184q-66 0 -111.5 -46.5t-45.5 -113.5
q0 -68 45.5 -114.5t111.5 -46.5q67 0 112.5 46.5t45.5 114.5t-45.5 114t-112.5 46zM539 705q-54 0 -92.5 -40t-38.5 -99t38.5 -99t92.5 -40q55 0 93.5 40t38.5 99t-38.5 99t-93.5 40z" />
    <glyph glyph-name="uni2089" unicode="&#x2089;" horiz-adv-x="1119" 
d="M939 156l-411 -526h-346l298 380q-172 23 -290 153t-118 303q0 129 66 238.5t179.5 173.5t245.5 64q133 0 246.5 -64t179.5 -173.5t66 -238.5q0 -162 -116 -310zM563 687q-82 0 -141 -64.5t-59 -156.5q0 -91 58.5 -156.5t141.5 -65.5q84 0 143 64.5t59 157.5
q0 91 -59 156t-143 65z" />
    <glyph glyph-name="Euro" unicode="&#x20ac;" horiz-adv-x="2213" 
d="M373 1208h-302l119 252h225q48 175 142.5 325t220 257.5t283 168.5t325.5 61q214 0 406.5 -100t339.5 -279l-303 -259q-190 219 -443 219q-158 0 -288.5 -107.5t-200.5 -285.5h887l-118 -252h-834q-5 -48 -5 -88q0 -38 3 -74h767l-119 -252h-586q67 -183 200 -295
t294 -112q259 0 455 237l285 -284q-146 -175 -337.5 -273.5t-402.5 -98.5q-173 0 -333 63.5t-285 174t-217.5 262t-138.5 326.5h-341l119 252h182q-2 22 -2 74q-2 41 3 88z" />
    <glyph glyph-name="uni2113" unicode="&#x2113;" horiz-adv-x="1563" 
d="M346 603l-199 -120l-112 217l287 196q1 529 44 796q65 400 257 549q130 101 327 101q104 0 186.5 -39t133 -106.5t76.5 -154.5t26 -188q0 -484 -662 -1023q12 -149 30.5 -250.5t54 -182t92.5 -119t139 -38.5q80 0 160.5 51t192.5 161l151 -169q-239 -316 -578 -316
q-140 0 -249 50t-179.5 140.5t-113 199.5t-64.5 245zM1045 1863q0 223 -122 223q-150 0 -193 -336q-17 -138 -22 -469q0 -43 -1 -71q168 175 253 330.5t85 322.5z" />
    <glyph glyph-name="trademark" unicode="&#x2122;" horiz-adv-x="3047" 
d="M1720 2240l356 -904l349 904h374v-1344h-270v940h-2l-367 -940h-178l-366 940h-2v-940h-271v1344h377zM1152 2007h-399v-1111h-270v1111h-400v233h1069v-233z" />
    <glyph glyph-name="Omega" unicode="&#x2126;" horiz-adv-x="2471" 
d="M1375 0v254q96 58 180 144.5t153 200t109 260.5t40 309q0 108 -24.5 215.5t-75.5 206.5t-122 175t-172.5 121.5t-218.5 45.5q-187 0 -331.5 -104t-220.5 -278.5t-76 -387.5q0 -153 40 -298t108 -260t152.5 -204t179.5 -145v-255h-949v340h378q-151 167 -242 384.5
t-91 471.5q0 233 81.5 434.5t222 341.5t335.5 220t416 80q184 0 348 -57t287.5 -157.5t213.5 -234t136.5 -292t46.5 -325.5q0 -260 -92.5 -481.5t-242.5 -384.5h379v-340h-948z" />
    <glyph glyph-name="estimated" unicode="&#x212e;" horiz-adv-x="2574" 
d="M2125 467h198q-196 -239 -442 -369t-572 -130q-255 0 -473.5 80.5t-369.5 221t-236.5 334.5t-85.5 417q0 167 51.5 323.5t152.5 288.5t240.5 231t325 154.5t395.5 55.5q215 0 397 -52t316 -146t231.5 -225.5t153 -289.5t71.5 -340h-1824v-713q267 -226 655 -226
q515 0 816 385zM654 1731v-596h1314v596q-289 230 -659 230q-389 0 -655 -230z" />
    <glyph glyph-name="uni2190" unicode="&#x2190;" horiz-adv-x="2411" 
d="M869 760l476 -595h-411l-724 776l724 776h410l-475 -595h1332v-362h-1332z" />
    <glyph glyph-name="uni2191" unicode="&#x2191;" horiz-adv-x="1972" 
d="M1167 1278v-1333h-361v1333l-596 -476v411l776 723l776 -723v-411z" />
    <glyph glyph-name="uni2192" unicode="&#x2192;" horiz-adv-x="2411" 
d="M2201 941l-724 -776h-411l476 595h-1332v362h1332l-476 595h411z" />
    <glyph glyph-name="uni2193" unicode="&#x2193;" horiz-adv-x="1972" 
d="M1762 1080v-411l-776 -724l-776 724v411l596 -476v1332h361v-1332z" />
    <glyph glyph-name="uni21E8" unicode="&#x21e8;" horiz-adv-x="2540" 
d="M186 1378h1309v534l1004 -971l-1004 -971v534h-1309v874zM1653 1221h-1312v-560h1312v-314l624 594l-624 593v-313z" />
    <glyph glyph-name="partialdiff" unicode="&#x2202;" horiz-adv-x="1772" 
d="M307 2189q252 176 539 176q155 0 280.5 -52.5t214.5 -149t149 -235t88 -307.5t28 -370q0 -379 -100.5 -667t-297.5 -452t-466 -164q-153 0 -275.5 57.5t-199 155.5t-116.5 223t-40 267q0 180 51.5 331.5t146.5 261t237.5 170.5t317.5 61q99 0 183.5 -37.5t144.5 -91.5
q-27 692 -425 692q-110 0 -196 -29t-188 -94zM779 258q76 0 139.5 45t107 118t76.5 173t51 202t27 213q-58 88 -128.5 136.5t-167.5 48.5q-83 0 -151.5 -43.5t-111.5 -117t-66.5 -166.5t-23.5 -195q0 -107 25.5 -198.5t83.5 -153.5t139 -62z" />
    <glyph glyph-name="Delta" unicode="&#x2206;" horiz-adv-x="2081" 
d="M53 234l780 2006h431l764 -1999v-241h-1975v234zM1563 328l-526 1390l-531 -1390h1057z" />
    <glyph glyph-name="product" unicode="&#x220f;" horiz-adv-x="2429" 
d="M414 1950h-358v357h2315v-357h-355v-2376h-429v2376h-744v-2376h-429v2376z" />
    <glyph glyph-name="summation" unicode="&#x2211;" horiz-adv-x="1868" 
d="M15 -175l861 1114l-823 1108v260h1744v-344h-1172l740 -977l-806 -1040h1289v-372h-1833v251z" />
    <glyph glyph-name="minus" unicode="&#x2212;" horiz-adv-x="2011" 
d="M210 1121h1591v-362h-1591v362z" />
    <glyph glyph-name="uni2215" unicode="&#x2215;" horiz-adv-x="486" 
d="M752 2304h325l-1336 -2368h-325z" />
    <glyph glyph-name="uni2219" unicode="&#x2219;" horiz-adv-x="861" 
d="M434 1174q106 0 181 -75t75 -181t-75 -181t-181 -75q-105 0 -180.5 75t-75.5 181t75.5 181t180.5 75z" />
    <glyph glyph-name="radical" unicode="&#x221a;" horiz-adv-x="1746" 
d="M1764 2755l-676 -2957h-350l-444 1294l-218 -84l-86 276l569 224l338 -1049l517 2296h350z" />
    <glyph glyph-name="infinity" unicode="&#x221e;" horiz-adv-x="2682" 
d="M136 940q0 112 40.5 218t110.5 187t172 130t216 49q293 0 559 -306q63 77 106.5 125.5t112 112t128.5 100t140 62.5t163 26q118 0 220.5 -38t177 -104t127.5 -155t79.5 -192.5t26.5 -214.5t-26.5 -214t-79.5 -192t-127.5 -155t-177 -104t-220.5 -38q-60 0 -118 13.5
t-106.5 33.5t-99.5 55t-89 67t-84.5 80t-77.5 84l-75 89q-261 -298 -559 -298q-115 0 -216.5 48.5t-171.5 128.5t-110.5 185t-40.5 217zM473 940q0 -111 56.5 -175t145.5 -64q78 0 161 54t192 185q-109 133 -192.5 188.5t-160.5 55.5q-88 0 -145 -66t-57 -178zM1884 1301
q-189 0 -439 -361q48 -69 91.5 -122.5t102.5 -112.5t122 -92t123 -33q126 0 205.5 95t79.5 265q0 171 -79.5 266t-205.5 95z" />
    <glyph glyph-name="integral" unicode="&#x222b;" horiz-adv-x="1164" 
d="M1263 2546l-77 -277q-97 72 -202 72q-53 0 -94 -22.5t-67.5 -64.5t-44 -92t-26 -116.5t-12 -125t-3.5 -130.5q0 -253 28.5 -762t28.5 -775q0 -77 -7.5 -153.5t-27 -160.5t-48.5 -158t-76 -141.5t-106.5 -116t-143 -77.5t-181.5 -29q-86 0 -188.5 32t-159.5 69l74 285
q106 -73 240 -73q70 0 117.5 34t74.5 105t38 166t11 232q0 240 -27.5 774t-27.5 776q0 86 6.5 164.5t25 163.5t47 155.5t76 135.5t109.5 109.5t150 71t194 26.5q79 0 161 -29.5t138 -67.5z" />
    <glyph glyph-name="approxequal" unicode="&#x2248;" horiz-adv-x="2092" 
d="M687 876q85 0 163.5 -20.5t140 -50l122 -58.5t134 -49.5t150.5 -20.5q127 0 255 46t214 136v-360q-86 -91 -213.5 -136.5t-255.5 -45.5q-85 0 -163.5 20.5t-139.5 49.5l-121.5 58.5t-134 50t-151.5 20.5q-127 0 -254.5 -46t-213.5 -136v360q86 90 213.5 136t254.5 46z
M1866 1546v-360q-86 -90 -214 -136t-255 -46q-85 0 -163.5 20.5t-139.5 50l-121.5 58.5t-134 49.5t-151.5 20.5q-128 0 -255 -45.5t-213 -136.5v360q86 91 213 136.5t255 45.5q85 0 163.5 -20.5t140 -49.5l122 -58.5t134 -50t150.5 -20.5q127 0 255 46t214 136z" />
    <glyph glyph-name="notequal" unicode="&#x2260;" horiz-adv-x="1934" 
d="M1259 1930h287l-204 -465h422v-362h-580l-142 -326h722v-362h-881l-204 -465h-287l203 465h-422v362h580l143 326h-723v362h882z" />
    <glyph glyph-name="lessequal" unicode="&#x2264;" horiz-adv-x="2004" 
d="M1792 1963v-373l-1100 -403l1100 -403v-372l-1635 625v299zM157 280h1635v-362h-1635v362z" />
    <glyph glyph-name="greaterequal" unicode="&#x2265;" horiz-adv-x="2005" 
d="M213 1590v373l1635 -627v-299l-1635 -625v372l1101 403zM213 280h1635v-362h-1635v362z" />
    <glyph glyph-name="lozenge" unicode="&#x25ca;" horiz-adv-x="1737" 
d="M67 1122l643 1207h322l643 -1207l-643 -1212h-322zM1278 1122l-407 800l-407 -800l407 -798z" />
    <glyph glyph-name="zero.numerator" horiz-adv-x="1212" 
d="M607 2256q97 0 180.5 -36.5t143 -99t102 -145.5t63 -176t20.5 -190q0 -99 -18.5 -194.5t-59.5 -184.5t-99 -156.5t-144 -108t-188 -40.5t-187.5 40.5t-144 108t-99.5 156.5t-59.5 184.5t-18.5 194.5q0 97 20.5 190t63.5 176t102.5 145.5t142.5 99t180 36.5zM607 2003
q-53 0 -95 -36t-66.5 -94.5t-37.5 -126t-13 -137.5q0 -74 11 -145t34.5 -137t66.5 -106.5t100 -40.5t100.5 40.5t66.5 106.5t34 137t11 145q0 96 -21 182.5t-71 149t-120 62.5z" />
    <glyph glyph-name="one.numerator" horiz-adv-x="732" 
d="M258 1985h-198l58 253h439v-1294h-299v1041z" />
    <glyph glyph-name="two.numerator" horiz-adv-x="1066" 
d="M973 1195v-254h-932l549 695q83 107 83 204q0 66 -44 112.5t-104 46.5q-66 0 -110 -51t-61 -138h-275q3 87 40 168.5t97.5 141.5t143.5 96.5t171 36.5q195 0 318.5 -121.5t123.5 -290.5q0 -60 -11 -111t-34.5 -95t-41.5 -69.5t-51 -66.5l-242 -304h380z" />
    <glyph glyph-name="three.numerator" horiz-adv-x="1070" 
d="M64 1352h277q7 -75 57.5 -123.5t116.5 -48.5q69 0 114.5 46t45.5 117q0 76 -58 123.5t-148 47.5v205q78 0 126 39t48 104q0 60 -38.5 100.5t-92.5 40.5q-56 0 -94.5 -42.5t-51.5 -113.5h-267q6 167 133 288t286 121q185 0 303.5 -113.5t118.5 -269.5q0 -140 -122 -243
q158 -108 158 -295q0 -166 -127 -288t-331 -122q-110 0 -212.5 54t-170 153.5t-71.5 219.5z" />
    <glyph glyph-name="four.numerator" horiz-adv-x="1072" 
d="M576 937v218h-567v82l740 1014h122v-847h134v-249h-134v-218h-295zM580 1400v249l-181 -249h181z" />
    <glyph glyph-name="five.numerator" horiz-adv-x="1061" 
d="M954 2241v-252h-405l-39 -135q193 -4 327 -132t134 -320q0 -203 -143 -338t-354 -135q-140 0 -257 68.5t-191 193.5l206 142q40 -71 99 -110.5t121 -39.5q92 0 155.5 65.5t63.5 160.5q0 98 -68 162t-169 64q-152 0 -303 -113l208 719h615z" />
    <glyph glyph-name="six.numerator" horiz-adv-x="1122" 
d="M186 1715l411 526h346l-299 -380q173 -23 290.5 -153t117.5 -302q0 -129 -66 -239t-179 -174t-246 -64t-246.5 64t-179.5 174t-66 239q0 160 117 309zM561 1627q-83 0 -142 -64.5t-59 -156.5q0 -91 58.5 -156t142.5 -65q83 0 141.5 64.5t58.5 156.5q0 91 -58 156t-142 65
z" />
    <glyph glyph-name="seven.numerator" horiz-adv-x="1167" 
d="M669 1985h-602v253h1104l-778 -1294h-342z" />
    <glyph glyph-name="eight.numerator" horiz-adv-x="1081" 
d="M539 2256q181 0 298.5 -108.5t117.5 -274.5q0 -136 -127 -244q160 -120 160 -294q0 -172 -128 -291t-321 -119q-194 0 -321.5 118.5t-127.5 291.5q0 172 160 294q-126 106 -126 244q0 168 116.5 275.5t298.5 107.5zM539 1495q-66 0 -111.5 -46.5t-45.5 -113.5
q0 -68 45.5 -114.5t111.5 -46.5q67 0 112.5 46.5t45.5 114.5t-45.5 114t-112.5 46zM539 2016q-54 0 -92.5 -40t-38.5 -99t38.5 -99t92.5 -40q55 0 93.5 40t38.5 99t-38.5 99t-93.5 40z" />
    <glyph glyph-name="nine.numerator" horiz-adv-x="1119" 
d="M939 1467l-411 -526h-346l298 380q-172 23 -290 153t-118 303q0 129 66 238.5t179.5 173.5t245.5 64q133 0 246.5 -64t179.5 -173.5t66 -238.5q0 -162 -116 -310zM563 1998q-82 0 -141 -64.5t-59 -156.5q0 -91 58.5 -156.5t141.5 -65.5q84 0 143 64.5t59 157.5
q0 91 -59 156t-143 65z" />
    <glyph glyph-name="zero.denominator" horiz-adv-x="1212" 
d="M607 1315q97 0 180.5 -36.5t143 -99t102 -145.5t63 -176t20.5 -190q0 -99 -18.5 -194.5t-59.5 -184.5t-99 -156.5t-144 -108t-188 -40.5t-187.5 40.5t-144 108t-99.5 156.5t-59.5 184.5t-18.5 194.5q0 97 20.5 190t63.5 176t102.5 145.5t142.5 99t180 36.5zM607 1062
q-53 0 -95 -36t-66.5 -94.5t-37.5 -126t-13 -137.5q0 -74 11 -145t34.5 -137t66.5 -106.5t100 -40.5t100.5 40.5t66.5 106.5t34 137t11 145q0 96 -21 182.5t-71 149t-120 62.5z" />
    <glyph glyph-name="one.denominator" horiz-adv-x="732" 
d="M258 1044h-198l58 253h439v-1294h-299v1041z" />
    <glyph glyph-name="two.denominator" horiz-adv-x="1066" 
d="M973 254v-254h-932l549 695q83 107 83 204q0 66 -44 112.5t-104 46.5q-66 0 -110 -51t-61 -138h-275q3 87 40 168.5t97.5 141.5t143.5 96.5t171 36.5q195 0 318.5 -121.5t123.5 -290.5q0 -60 -11 -111t-34.5 -95t-41.5 -69.5t-51 -66.5l-242 -304h380z" />
    <glyph glyph-name="three.denominator" horiz-adv-x="1070" 
d="M64 411h277q7 -75 57.5 -123.5t116.5 -48.5q69 0 114.5 46t45.5 117q0 76 -58 123.5t-148 47.5v205q78 0 126 39t48 104q0 60 -38.5 100.5t-92.5 40.5q-56 0 -94.5 -42.5t-51.5 -113.5h-267q6 167 133 288t286 121q185 0 303.5 -113.5t118.5 -269.5q0 -140 -122 -243
q158 -108 158 -295q0 -166 -127 -288t-331 -122q-110 0 -212.5 54t-170 153.5t-71.5 219.5z" />
    <glyph glyph-name="four.denominator" horiz-adv-x="1072" 
d="M576 -4v218h-567v82l740 1014h122v-847h134v-249h-134v-218h-295zM580 459v249l-181 -249h181z" />
    <glyph glyph-name="five.denominator" horiz-adv-x="1061" 
d="M954 1300v-252h-405l-39 -135q193 -4 327 -132t134 -320q0 -203 -143 -338t-354 -135q-140 0 -257 68.5t-191 193.5l206 142q40 -71 99 -110.5t121 -39.5q92 0 155.5 65.5t63.5 160.5q0 98 -68 162t-169 64q-152 0 -303 -113l208 719h615z" />
    <glyph glyph-name="six.denominator" horiz-adv-x="1122" 
d="M186 774l411 526h346l-299 -380q173 -23 290.5 -153t117.5 -302q0 -129 -66 -239t-179 -174t-246 -64t-246.5 64t-179.5 174t-66 239q0 159 117 309zM561 686q-83 0 -142 -64.5t-59 -156.5q0 -91 58.5 -156t142.5 -65q83 0 141.5 64.5t58.5 156.5q0 91 -58 156t-142 65z
" />
    <glyph glyph-name="seven.denominator" horiz-adv-x="1167" 
d="M669 1044h-602v253h1104l-778 -1294h-342z" />
    <glyph glyph-name="eight.denominator" horiz-adv-x="1081" 
d="M539 1315q181 0 298.5 -108.5t117.5 -274.5q0 -136 -127 -244q160 -120 160 -294q0 -172 -128 -291t-321 -119q-194 0 -321.5 118.5t-127.5 291.5q0 172 160 294q-126 106 -126 244q0 168 116.5 275.5t298.5 107.5zM539 554q-66 0 -111.5 -46.5t-45.5 -113.5
q0 -68 45.5 -114.5t111.5 -46.5q67 0 112.5 46.5t45.5 114.5t-45.5 114t-112.5 46zM539 1075q-54 0 -92.5 -40t-38.5 -99t38.5 -99t92.5 -40q55 0 93.5 40t38.5 99t-38.5 99t-93.5 40z" />
    <glyph glyph-name="nine.denominator" horiz-adv-x="1119" 
d="M939 526l-411 -526h-346l298 380q-172 23 -290 153t-118 303q0 129 66 238.5t179.5 173.5t245.5 64q133 0 246.5 -64t179.5 -173.5t66 -238.5q0 -162 -116 -310zM563 1057q-82 0 -141 -64.5t-59 -156.5q0 -91 58.5 -156.5t141.5 -65.5q84 0 143 64.5t59 157.5
q0 91 -59 156t-143 65z" />
    <glyph glyph-name="zero.onum" horiz-adv-x="1861" 
d="M932 1510q155 0 286.5 -44t223.5 -118.5t157 -173t95.5 -207.5t30.5 -222t-29 -222t-92.5 -210t-154.5 -177.5t-224.5 -122t-292.5 -45.5t-293 45.5t-225 122t-154.5 177.5t-92.5 210t-29 222t30.5 222t95.5 208t157 173t224 118t287 44zM932 1135q-91 0 -164.5 -36
t-117 -94t-66.5 -125t-23 -135q0 -52 13 -106t42 -108t71 -95t105.5 -67t139.5 -26t139 26t105 67t71 95t42 108t13 106q0 68 -23 135t-66.5 125t-117 94t-163.5 36z" />
    <glyph glyph-name="one.onum" horiz-adv-x="1137" 
d="M449 1107h-312l82 374h657v-1481h-427v1107z" />
    <glyph glyph-name="two.onum" horiz-adv-x="1674" 
d="M1518 343v-343h-1433l867 773q135 120 135 213q0 90 -76 135.5t-190 45.5q-101 0 -185 -44.5t-113 -127.5h-390q4 104 62 199.5t152 164.5t222 110t266 41q307 0 495 -142t188 -363q0 -129 -56.5 -226t-149.5 -180l-288 -256h494z" />
    <glyph glyph-name="three.onum" horiz-adv-x="1611" 
d="M74 52h391q10 -122 100 -200.5t207 -78.5q123 0 205.5 78.5t82.5 201.5q0 131 -94.5 212.5t-239.5 81.5v297q127 0 204.5 67t77.5 180q0 105 -71 174.5t-169 69.5q-101 0 -169.5 -68.5t-90.5 -182.5h-378q5 128 62 244.5t146 199.5t205 132.5t235 49.5q143 0 267 -49.5
t207.5 -132.5t131 -192t47.5 -227q0 -237 -206 -392q263 -168 263 -477q0 -125 -50 -240.5t-139.5 -205t-225 -143t-295.5 -53.5q-102 0 -203.5 31t-189.5 89.5t-157 137.5t-110 181.5t-44 214.5z" />
    <glyph glyph-name="four.onum" horiz-adv-x="1668" 
d="M925 -358v358h-923v125l1176 1614h175v-1365h220v-374h-220v-358h-428zM933 367v506l-370 -506h370z" />
    <glyph glyph-name="five.onum" horiz-adv-x="1590" 
d="M1434 1108h-649l-72 -251h16q149 0 283.5 -54t233 -147.5t157 -227t58.5 -285.5q0 -158 -60 -297t-163 -237t-246.5 -154.5t-304.5 -56.5q-215 0 -395 105t-295 297l291 202q61 -109 158 -169.5t207 -60.5q160 0 270.5 111t110.5 271q0 165 -118 274t-292 109
q-135 0 -251 -49t-204 -134l325 1127h940v-373z" />
    <glyph glyph-name="six.onum" horiz-adv-x="1746" 
d="M950 2051h499l-480 -610l14 -2q187 -27 337 -126t235.5 -254.5t85.5 -338.5q0 -152 -61 -291t-163.5 -240t-244 -161t-296.5 -60t-296.5 60t-244 161t-163.5 240t-61 291q0 256 182 488zM876 345q146 0 248.5 109.5t102.5 265.5q0 154 -102.5 264t-248.5 110
q-145 0 -248 -109t-103 -265q0 -153 102.5 -264t248.5 -111z" />
    <glyph glyph-name="seven.onum" horiz-adv-x="1853" 
d="M1104 1107h-985v374h1715l-1237 -2056h-493z" />
    <glyph glyph-name="eight.onum" horiz-adv-x="1682" 
d="M844 2080q138 0 257 -45.5t203.5 -124.5t132.5 -190.5t48 -240.5q0 -120 -53 -215t-158 -180q266 -186 266 -474q0 -131 -52.5 -249.5t-144 -204.5t-221.5 -137t-278 -51q-149 0 -279.5 50.5t-221.5 136.5t-143.5 204.5t-52.5 250.5q0 147 66 262t199 211
q-106 85 -157.5 179.5t-51.5 216.5q0 173 81.5 310.5t227.5 214t332 76.5zM844 886q-119 0 -200.5 -80t-81.5 -196t81.5 -196t200.5 -80t200.5 80t81.5 196t-81.5 196t-200.5 80zM844 1726q-99 0 -170 -69.5t-71 -171.5q0 -103 71 -172.5t170 -69.5t170 69.5t71 172.5
q0 102 -71 171.5t-170 69.5z" />
    <glyph glyph-name="nine.onum" horiz-adv-x="1769" 
d="M806 -575h-498l482 612l-13 2q-290 45 -474.5 243.5t-184.5 475.5q0 152 61 291t163.5 240t244 161t296.5 60t296.5 -60t244 -161t163.5 -240t61 -291q0 -257 -181 -488zM1234 758q0 153 -102.5 264t-248.5 111q-145 0 -248 -109.5t-103 -265.5q0 -154 102.5 -264
t248.5 -110t248.5 109t102.5 265z" />
    <glyph glyph-name="dollar.onum" horiz-adv-x="1503" 
d="M1343 1778l-275 -221q-80 88 -147 128.5t-134 40.5q-70 0 -121 -40.5t-51 -118.5q0 -49 27 -96.5t73 -89.5t105.5 -85l125 -88l131 -94t125 -108.5t105.5 -124.5t73 -148.5t27 -175.5q0 -227 -134 -382t-373 -194v-288h-310v290q-324 62 -520 392l316 203
q76 -125 163.5 -189t201.5 -64q86 0 154.5 56t68.5 144q0 62 -27 118t-72.5 102t-104.5 90.5t-124.5 89l-130.5 92t-124 105.5t-104.5 122.5t-72.5 150t-27 182.5q0 178 118 310.5t307 174.5v293h299v-291q221 -51 432 -286z" />
    <glyph glyph-name="cent.onum" horiz-adv-x="1458" 
d="M1340 1454l-251 -209q-113 117 -266 117q-128 0 -221 -97t-93 -241t93 -241t221 -97q85 0 161 41.5t131 116.5l265 -202q-83 -101 -194 -170t-237 -95v-238h-307v243q-232 53 -382.5 232t-150.5 410q0 232 150.5 410.5t382.5 232.5v242h307v-238q222 -45 391 -217z" />
    <glyph glyph-name="Euro.onum" horiz-adv-x="2052" 
d="M350 1101h-278l113 238h205q59 214 189 382t313 263.5t388 95.5q196 0 374.5 -92.5t314.5 -257.5l-285 -245q-174 203 -404 203q-141 0 -258.5 -95.5t-180.5 -253.5h811l-113 -238h-759q-3 -39 -3 -77q0 -43 2 -63h701l-112 -239h-530q61 -163 180 -262.5t262 -99.5
q233 0 415 219l267 -267q-134 -162 -310.5 -253t-371.5 -91q-158 0 -304.5 58t-261 159t-199.5 239t-128 298h-314l111 239h165l-2 63q0 29 3 77z" />
    <glyph glyph-name="sterling.onum" horiz-adv-x="1760" 
d="M133 0v260q160 149 231.5 284.5t67.5 241.5l-1 26h-252v307h167q-66 181 -66 315q0 129 49.5 246.5t137 207t217.5 142.5t281 53q139 0 266.5 -56t220 -148.5t149.5 -217.5t61 -258h-391q-27 141 -104 221.5t-197 80.5q-108 0 -182.5 -79.5t-74.5 -194.5q0 -30 4 -61
t8 -52t15 -54t16 -46l20.5 -51l19.5 -48h317v-307h-249q2 -11 2 -36q0 -115 -36 -203t-113 -195h894v-378h-1478z" />
    <glyph glyph-name="yen.onum" horiz-adv-x="1749" 
d="M1232 2054h463l-487 -899h283v-268h-396v-211h396v-268h-396v-408h-432v408h-399v268h399v211h-399v268h285l-489 899h464l355 -651z" />
    <glyph glyph-name="zero.tnum" 
d="M941 2272q137 0 259 -44.5t215.5 -123t168 -185t122 -231.5t72.5 -261.5t25 -276.5q0 -170 -31.5 -335.5t-100.5 -319.5t-168 -270.5t-244 -186.5t-318 -70q-125 0 -236 36.5t-197 101t-157.5 153.5t-121.5 193t-84.5 221.5t-50.5 237t-16 239.5q0 140 25 276.5t73 261.5
t122.5 231.5t168 185t215.5 123t259 44.5zM941 1871q-103 0 -184.5 -65.5t-129.5 -172.5t-73 -231t-25 -252q0 -105 12.5 -208.5t43 -209t76 -184.5t118 -129t162.5 -50t162.5 50t118 129t76 184.5t43 209t12.5 208.5q0 128 -25 252t-73 231t-129.5 172.5t-184.5 65.5z" />
    <glyph glyph-name="one.tnum" 
d="M790 1840h-339l85 400h709v-2240h-455v1840z" />
    <glyph glyph-name="two.tnum" 
d="M1671 400v-400h-1550l940 1190q154 194 154 374q0 128 -88.5 218t-210.5 90q-132 0 -218 -91t-116 -245h-416q4 145 67 280t165 235t241.5 160.5t288.5 60.5q165 0 306 -57.5t235.5 -154.5t148 -224.5t53.5 -267.5q0 -86 -15 -164t-33.5 -131t-56 -114.5t-61 -93
t-69.5 -88.5l-460 -577h695z" />
    <glyph glyph-name="three.tnum" 
d="M146 674h415q12 -133 112.5 -219t230.5 -86q138 0 230 87t92 224q0 146 -104 236.5t-262 90.5v316q139 0 223.5 75.5t84.5 200.5q0 118 -79 195t-190 77q-114 0 -190.5 -75t-99.5 -200h-402q5 136 67 262t158.5 216t222.5 144t255 54q156 0 290.5 -54t225 -144.5
t142 -208.5t51.5 -246q0 -260 -229 -431q292 -181 292 -521q0 -137 -54.5 -262.5t-151.5 -223t-244.5 -155.5t-321.5 -58q-139 0 -274.5 53t-242.5 144.5t-175 225t-72 283.5z" />
    <glyph glyph-name="four.tnum" 
d="M1045 0v392h-1008v136l1274 1747h190v-1483h241v-400h-241v-392h-456zM1053 784v577l-421 -577h421z" />
    <glyph glyph-name="five.tnum" 
d="M1651 1842h-710l-82 -285h26q161 0 307.5 -58.5t254 -160.5t171 -247.5t63.5 -311.5q0 -229 -111.5 -415.5t-304 -291t-426.5 -104.5t-429.5 113.5t-319.5 320.5l308 214q66 -118 173.5 -183t229.5 -65q179 0 301.5 123t122.5 301q0 182 -131 303t-324 121
q-277 0 -487 -183l349 1207h1019v-398z" />
    <glyph glyph-name="six.tnum" 
d="M1023 2240h531l-525 -668l25 -3q147 -18 278 -84.5t228 -168t153.5 -239t56.5 -290.5q0 -166 -66 -317.5t-178 -261.5t-266 -175t-322 -65t-322 65t-266 175t-178 261.5t-66 317.5q0 280 198 532zM1329 787q0 171 -114 293.5t-277 122.5q-162 0 -276.5 -121.5
t-114.5 -294.5q0 -112 52 -207.5t142 -152t197 -56.5q162 0 276.5 121.5t114.5 294.5z" />
    <glyph glyph-name="seven.tnum" 
d="M1141 1840h-1082v400h1862l-1348 -2240h-525z" />
    <glyph glyph-name="eight.tnum" 
d="M936 2272q199 0 358.5 -84t248.5 -233t89 -336q0 -133 -59 -237t-176 -196q296 -203 296 -519q0 -143 -57.5 -272t-156.5 -223t-240.5 -149t-302.5 -55q-216 0 -390 93t-270.5 253t-96.5 353q0 162 72.5 287.5t220.5 230.5q-118 92 -175.5 196t-57.5 238q0 141 52 262.5
t143.5 207.5t221 134.5t280.5 48.5zM936 974q-133 0 -224.5 -89t-91.5 -218q0 -130 91 -218.5t225 -88.5q133 0 224 88.5t91 218.5q0 129 -91 218t-224 89zM936 1895q-111 0 -190.5 -78.5t-79.5 -192.5t79.5 -192t190.5 -78t190 78t79 192t-79 192.5t-190 78.5z" />
    <glyph glyph-name="nine.tnum" 
d="M861 0h-531l525 668l-24 3q-144 18 -274.5 83t-228.5 165.5t-156 239t-58 294.5q0 166 66 317.5t178 261.5t266 175t322 65t322 -65t266 -175t178 -261.5t66 -317.5q0 -279 -197 -532zM1337 1453q0 112 -52 207.5t-142 152t-197 56.5q-162 0 -276.5 -121.5t-114.5 -294.5
q0 -112 52 -207.5t142 -152t197 -56.5q162 0 276.5 121.5t114.5 294.5z" />
    <glyph glyph-name="dollar.tnum" 
d="M1576 1946l-293 -235q-86 95 -160 139.5t-148 44.5q-80 0 -137.5 -46t-57.5 -134q0 -55 29.5 -107.5t80 -98.5t115.5 -93l137 -96.5l144.5 -103t137.5 -118t115.5 -135.5t80 -162.5t29.5 -192.5q0 -248 -147 -416t-409 -210v-316h-328v317q-356 67 -568 425l336 215
q82 -135 178.5 -204.5t224.5 -69.5q96 0 173.5 63t77.5 161q0 68 -29.5 129.5t-79.5 112t-114.5 99.5t-136.5 98.5l-143.5 101.5t-136 115.5t-114.5 134t-79.5 164t-29.5 198.5q0 195 128.5 338.5t336.5 188.5v321h317v-318q243 -55 470 -310z" />
    <glyph glyph-name="cent.tnum" 
d="M1610 1591l-267 -221q-120 126 -292 126q-143 0 -246.5 -108t-103.5 -268q0 -159 103.5 -267t246.5 -108q96 0 180 44.5t142 126.5l280 -215q-89 -110 -210 -184.5t-259 -101.5v-259h-325v264q-253 57 -418 252t-165 448t165 448.5t418 251.5v265h325v-260
q243 -47 426 -234z" />
    <glyph glyph-name="Euro.tnum" 
d="M205 1208h-302l119 252h225q48 175 142.5 325t220 257.5t283 168.5t325.5 61q214 0 406.5 -100t339.5 -279l-303 -259q-190 219 -443 219q-158 0 -288.5 -107.5t-200.5 -285.5h887l-118 -252h-834q-5 -48 -5 -88q0 -38 3 -74h767l-119 -252h-586q67 -183 200 -295
t294 -112q259 0 455 237l285 -284q-146 -175 -337.5 -273.5t-402.5 -98.5q-173 0 -333 63.5t-285 174t-217.5 262t-138.5 326.5h-341l119 252h182q-2 22 -2 74q-2 41 3 88z" />
    <glyph glyph-name="sterling.tnum" 
d="M462 889h-276v327h185q-23 65 -36.5 108t-25.5 110.5t-12 132.5q0 140 53.5 267.5t148.5 225t236.5 155t306.5 57.5q150 0 289 -60.5t239.5 -160.5t162 -235t65.5 -279h-416q-29 155 -115 243t-219 88q-122 0 -206 -88t-84 -217q0 -47 10.5 -97t20.5 -79t34 -88t33 -83
h341v-327h-272l1 -43q3 -126 -38 -223t-131 -219h986v-404h-1607v278q173 161 250.5 310t77.5 268q0 13 -2 33z" />
    <glyph glyph-name="yen.tnum" 
d="M1335 2240h494l-535 -985h313v-283h-432v-241h432v-284h-432v-447h-462v447h-436v284h436v241h-436v283h315l-536 985h495l393 -720z" />
    <glyph glyph-name="period.tnum" horiz-adv-x="939" 
d="M474 480q106 0 181 -75.5t75 -180.5q0 -106 -75 -181t-181 -75q-105 0 -180.5 75t-75.5 181q0 105 75.5 180.5t180.5 75.5z" />
    <glyph glyph-name="comma.tnum" horiz-adv-x="939" 
d="M354 464h448l-382 -925h-346z" />
    <glyph glyph-name="colon.tnum" horiz-adv-x="939" 
d="M474 480q106 0 181 -75.5t75 -180.5q0 -106 -75 -181t-181 -75q-105 0 -180.5 75t-75.5 181q0 105 75.5 180.5t180.5 75.5zM474 1408q106 0 181 -75.5t75 -180.5q0 -106 -75 -181t-181 -75q-105 0 -180.5 75t-75.5 181q0 105 75.5 180.5t180.5 75.5z" />
    <glyph glyph-name="semicolon.tnum" horiz-adv-x="939" 
d="M539 1408q106 0 181.5 -75.5t75.5 -180.5q0 -106 -75.5 -181t-181.5 -75q-105 0 -180 75t-75 181q0 105 75.5 180.5t179.5 75.5zM305 464h447l-381 -925h-348z" />
    <glyph glyph-name="zero.onum_tnum" horiz-adv-x="1742" 
d="M872 1510q155 0 286.5 -44t223.5 -118.5t157 -173t95.5 -207.5t30.5 -222t-29 -222t-92.5 -210t-154.5 -177.5t-224.5 -122t-292.5 -45.5t-293 45.5t-225 122t-154.5 177.5t-92.5 210t-29 222t30.5 222t95.5 208t157 173t224 118t287 44zM872 1135q-91 0 -164.5 -36
t-117 -94t-66.5 -125t-23 -135q0 -52 13 -106t42 -108t71 -95t105.5 -67t139.5 -26t139 26t105 67t71 95t42 108t13 106q0 68 -23 135t-66.5 125t-117 94t-163.5 36z" />
    <glyph glyph-name="one.onum_tnum" horiz-adv-x="1742" 
d="M752 1107h-312l82 374h657v-1481h-427v1107z" />
    <glyph glyph-name="two.onum_tnum" horiz-adv-x="1742" 
d="M1552 343v-343h-1433l867 773q135 120 135 213q0 90 -76 135.5t-190 45.5q-101 0 -185 -44.5t-113 -127.5h-390q4 104 62 199.5t152 164.5t222 110t266 41q307 0 495 -142t188 -363q0 -129 -56.5 -226t-149.5 -180l-288 -256h494z" />
    <glyph glyph-name="three.onum_tnum" horiz-adv-x="1742" 
d="M140 52h391q10 -122 100 -200.5t207 -78.5q123 0 205.5 78.5t82.5 201.5q0 131 -94.5 212.5t-239.5 81.5v297q127 0 204.5 67t77.5 180q0 105 -71 174.5t-169 69.5q-101 0 -169.5 -68.5t-90.5 -182.5h-378q5 128 62 244.5t146 199.5t205 132.5t235 49.5q143 0 267 -49.5
t207.5 -132.5t131 -192t47.5 -227q0 -237 -206 -392q263 -168 263 -477q0 -125 -50 -240.5t-139.5 -205t-225 -143t-295.5 -53.5q-102 0 -203.5 31t-189.5 89.5t-157 137.5t-110 181.5t-44 214.5z" />
    <glyph glyph-name="four.onum_tnum" horiz-adv-x="1742" 
d="M962 -358v358h-923v125l1176 1614h175v-1365h220v-374h-220v-358h-428zM970 367v506l-370 -506h370z" />
    <glyph glyph-name="five.onum_tnum" horiz-adv-x="1742" 
d="M1510 1108h-649l-72 -251h16q149 0 283.5 -54t233 -147.5t157 -227t58.5 -285.5q0 -158 -60 -297t-163 -237t-246.5 -154.5t-304.5 -56.5q-215 0 -395 105t-295 297l291 202q61 -109 158 -169.5t207 -60.5q160 0 270.5 111t110.5 271q0 165 -118 274t-292 109
q-135 0 -251 -49t-204 -134l325 1127h940v-373z" />
    <glyph glyph-name="six.onum_tnum" horiz-adv-x="1742" 
d="M948 2051h499l-480 -610l14 -2q187 -27 337 -126t235.5 -254.5t85.5 -338.5q0 -152 -61 -291t-163.5 -240t-244 -161t-296.5 -60t-296.5 60t-244 161t-163.5 240t-61 291q0 256 182 488zM874 345q146 0 248.5 109.5t102.5 265.5q0 154 -102.5 264t-248.5 110
q-145 0 -248 -109t-103 -265q0 -153 102.5 -264t248.5 -111z" />
    <glyph glyph-name="seven.onum_tnum" horiz-adv-x="1742" 
d="M1048 1107h-985v374h1715l-1237 -2056h-493z" />
    <glyph glyph-name="eight.onum_tnum" horiz-adv-x="1742" 
d="M874 2080q138 0 257 -45.5t203.5 -124.5t132.5 -190.5t48 -240.5q0 -120 -53 -215t-158 -180q266 -186 266 -474q0 -131 -52.5 -249.5t-144 -204.5t-221.5 -137t-278 -51q-149 0 -279.5 50.5t-221.5 136.5t-143.5 204.5t-52.5 250.5q0 147 66 262t199 211
q-106 85 -157.5 179.5t-51.5 216.5q0 173 81.5 310.5t227.5 214t332 76.5zM874 886q-119 0 -200.5 -80t-81.5 -196t81.5 -196t200.5 -80t200.5 80t81.5 196t-81.5 196t-200.5 80zM874 1726q-99 0 -170 -69.5t-71 -171.5q0 -103 71 -172.5t170 -69.5t170 69.5t71 172.5
q0 102 -71 171.5t-170 69.5z" />
    <glyph glyph-name="nine.onum_tnum" horiz-adv-x="1742" 
d="M792 -575h-498l482 612l-13 2q-290 45 -474.5 243.5t-184.5 475.5q0 152 61 291t163.5 240t244 161t296.5 60t296.5 -60t244 -161t163.5 -240t61 -291q0 -257 -181 -488zM1220 758q0 153 -102.5 264t-248.5 111q-145 0 -248 -109.5t-103 -265.5q0 -154 102.5 -264
t248.5 -110t248.5 109t102.5 265z" />
    <glyph glyph-name="dollar.onum_tnum" horiz-adv-x="1742" 
d="M1463 1778l-275 -221q-80 88 -147 128.5t-134 40.5q-70 0 -121 -40.5t-51 -118.5q0 -49 27 -96.5t73 -89.5t105.5 -85l125 -88l131 -94t125 -108.5t105.5 -124.5t73 -148.5t27 -175.5q0 -227 -134 -382t-373 -194v-288h-310v290q-324 62 -520 392l316 203
q76 -125 163.5 -189t201.5 -64q86 0 154.5 56t68.5 144q0 78 -43.5 147.5t-113 125.5t-153.5 112.5t-167.5 121.5t-153 139t-113 178.5t-43.5 227.5q0 178 118 310.5t307 174.5v293h299v-291q221 -51 432 -286z" />
    <glyph glyph-name="cent.onum_tnum" horiz-adv-x="1742" 
d="M1482 1454l-251 -209q-113 117 -266 117q-128 0 -221 -97t-93 -241t93 -241t221 -97q85 0 161 41.5t131 116.5l265 -202q-83 -101 -194 -170t-237 -95v-238h-307v243q-232 53 -382.5 232t-150.5 410q0 232 150.5 410.5t382.5 232.5v242h307v-238q222 -45 391 -217z" />
    <glyph glyph-name="Euro.onum_tnum" horiz-adv-x="1742" 
d="M195 1101h-278l113 238h205q59 214 189 382t313 263.5t388 95.5q196 0 374.5 -92.5t314.5 -257.5l-285 -245q-174 203 -404 203q-141 0 -258.5 -95.5t-180.5 -253.5h811l-113 -238h-759q-3 -39 -3 -77q0 -43 2 -63h701l-112 -239h-530q61 -163 180 -262.5t262 -99.5
q233 0 415 219l267 -267q-134 -162 -310.5 -253t-371.5 -91q-158 0 -304.5 58t-261 159t-199.5 239t-128 298h-314l111 239h165l-2 63q0 29 3 77z" />
    <glyph glyph-name="sterling.onum_tnum" horiz-adv-x="1742" 
d="M124 0v260q160 149 231.5 284.5t67.5 241.5l-1 26h-252v307h167q-66 181 -66 315q0 129 49.5 246.5t137 207t217.5 142.5t281 53q139 0 266.5 -56t220 -148.5t149.5 -217.5t61 -258h-391q-27 141 -104 221.5t-197 80.5q-108 0 -182.5 -79.5t-74.5 -194.5q0 -30 4 -61
t8 -52t15 -54t16 -46l20.5 -51l19.5 -48h317v-307h-249q2 -11 2 -36q0 -115 -36 -203t-113 -195h894v-378h-1478z" />
    <glyph glyph-name="yen.onum_tnum" horiz-adv-x="1742" 
d="M1228 2054h463l-487 -899h283v-268h-396v-211h396v-268h-396v-408h-432v408h-399v268h399v211h-399v268h285l-489 899h464l355 -651z" />
    <glyph glyph-name="parenleft.case" horiz-adv-x="1059" 
d="M1053 -358h-411q-218 293 -350 675.5t-132 797.5q0 780 482 1483h411q-482 -734 -482 -1483q0 -746 482 -1473z" />
    <glyph glyph-name="parenright.case" horiz-adv-x="1060" 
d="M418 -358h-412q482 725 482 1473q0 749 -482 1483h412q482 -703 482 -1483q0 -415 -131.5 -798t-350.5 -675z" />
    <glyph glyph-name="bracketleft.case" horiz-adv-x="1027" 
d="M634 13h348v-349h-733v2911h733v-348h-348v-2214z" />
    <glyph glyph-name="bracketright.case" horiz-adv-x="1027" 
d="M45 2575h733v-2911h-733v349h348v2214h-348v348z" />
    <glyph glyph-name="braceleft.case" horiz-adv-x="1079" 
d="M355 1580v535q0 101 24.5 180t67 131t103 86t128 48.5t147.5 14.5h223v-335h-112q-103 0 -149.5 -69t-46.5 -186v-466q0 -92 -23 -165.5t-61 -119.5t-79 -73t-85 -39v-2q44 -11 85 -38t79 -72t61 -118.5t23 -165.5v-469q0 -117 48 -187t148 -70h112v-336h-223
q-80 0 -147.5 14.5t-128 48.5t-103 87t-67 134.5t-24.5 186.5v528q0 126 -66 207t-192 81v341q126 0 192 81.5t66 206.5z" />
    <glyph glyph-name="braceright.case" horiz-adv-x="1079" 
d="M31 0h112q101 0 149 70t48 187v469q0 92 23 165.5t61 118.5t78.5 72t84.5 38v2q-44 12 -84.5 39t-78.5 73t-61 119.5t-23 165.5v466q0 117 -47 186t-150 69h-112v335h224q100 0 182 -24t148 -76t102.5 -143.5t36.5 -216.5v-535q0 -125 66.5 -206.5t191.5 -81.5v-341
q-125 0 -191.5 -81t-66.5 -207v-528q0 -105 -24.5 -186.5t-66.5 -134.5t-103 -87t-128 -48.5t-147 -14.5h-224v336z" />
    <glyph glyph-name="questiondown.case" horiz-adv-x="1455" 
d="M554 1401v159h423v-245q0 -92 -27 -169.5t-70 -131t-95.5 -100t-105 -85.5t-95.5 -77t-70 -84.5t-27 -99.5q0 -100 77.5 -170.5t182.5 -70.5q111 0 186 69.5t98 184.5h407q-7 -169 -105.5 -315t-254 -230t-325.5 -84q-153 0 -285 50.5t-221.5 135t-140 195t-50.5 229.5
q0 92 27.5 169t71.5 131.5t97 102.5l106 93t97 92.5t71.5 111.5t27.5 139zM765 2256q107 0 184 -76.5t77 -184.5q0 -107 -77 -184t-184 -77t-183.5 77t-76.5 184q0 108 76.5 184.5t183.5 76.5z" />
    <glyph glyph-name="exclamdown.case" horiz-adv-x="934" 
d="M472 2256q107 0 184 -76.5t77 -184.5q0 -107 -77 -184t-184 -77q-108 0 -184.5 77t-76.5 184q0 108 76.5 184.5t184.5 76.5zM259 1560h427v-1576h-427v1576z" />
    <glyph glyph-name="at.case" horiz-adv-x="2774" 
d="M2212 1521l326 133q107 -247 107 -489q0 -245 -97 -466.5t-263.5 -381.5t-399 -254.5t-492.5 -94.5q-208 0 -400 60t-345.5 170.5t-267.5 257.5t-176 330t-62 379t58 370.5t164 307.5t249 230.5t318 148t366 50.5q82 0 166.5 -17t167.5 -50t155 -87t127.5 -122.5
t87.5 -162t32 -200.5v-785q-291 -202 -640 -202q-127 0 -238.5 35t-195.5 99t-132.5 163t-48.5 219q0 233 159 364t424 131q178 0 308 -103q-6 102 -36.5 179t-81 122.5t-114 68t-140.5 22.5q-229 0 -409 -93.5t-283.5 -272.5t-103.5 -415q0 -179 66.5 -339.5t183 -277.5
t283.5 -185.5t359 -68.5t359 68.5t283.5 185.5t183 277.5t66.5 339.5q0 175 -73 356zM1674 1035v141q-82 156 -316 156q-91 0 -156 -49t-65 -124q0 -93 75.5 -142.5t199.5 -49.5t262 68z" />
    <glyph glyph-name="guilsinglleft.case" horiz-adv-x="1010" 
d="M51 1119l467 662h395l-425 -662l425 -660h-395z" />
    <glyph glyph-name="guilsinglright.case" horiz-adv-x="1011" 
d="M533 1119l-426 662h395l468 -662l-468 -660h-395z" />
    <glyph glyph-name="guillemotleft.case" horiz-adv-x="1743" 
d="M51 1119l468 662h394l-425 -662l425 -660h-394zM783 1119l468 662h395l-425 -662l425 -660h-395z" />
    <glyph glyph-name="guillemotright.case" horiz-adv-x="1744" 
d="M532 1119l-425 662h395l468 -662l-468 -660h-395zM1265 1119l-425 662h395l468 -662l-468 -660h-395z" />
    <glyph glyph-name="hyphen.case" horiz-adv-x="1255" 
d="M193 1290h879v-341h-879v341z" />
    <glyph glyph-name="endash.case" horiz-adv-x="1983" 
d="M193 1281h1607v-323h-1607v323z" />
    <glyph glyph-name="emdash.case" horiz-adv-x="3536" 
d="M193 1281h3160v-323h-3160v323z" />
    <glyph glyph-name="periodcentered.case" horiz-adv-x="861" 
d="M434 1376q106 0 181 -75t75 -181t-75 -181t-181 -75q-105 0 -180.5 75t-75.5 181t75.5 181t180.5 75z" />
    </font>
</defs>
</svg>
