<?xml version="1.0" standalone="no"?>
<!DOCTYPE svg PUBLIC "-//W3C//DTD SVG 1.1//EN" "http://www.w3.org/Graphics/SVG/1.1/DTD/svg11.dtd" >
<svg>
<metadata>
Created by FontForge 20090622 at Fri Apr 12 11:21:47 2019
 By deploy user
Copyright &#194;&#169; 2011 Durotype, www.durotype.com. All rights reserved.
</metadata>
<defs>
<font id="Simplo-Light" horiz-adv-x="1878" >
  <font-face 
    font-family="Simplo Light"
    font-weight="300"
    font-stretch="normal"
    units-per-em="3333"
    panose-1="0 0 0 0 0 0 0 0 0 0"
    ascent="2556"
    descent="-777"
    x-height="1376"
    cap-height="2240"
    bbox="-520 -791 3512 3046"
    underline-thickness="167"
    underline-position="-215"
    unicode-range="U+0020-U+FB04"
  />
<missing-glyph horiz-adv-x="2146" 
d="M251 2368h1641v-2368h-1641v2368zM973 1184l-558 862v-1724zM1630 169l-558 863l-558 -863h1116zM1630 2199h-1116l558 -863zM1728 2046l-557 -862l557 -862v1724z" />
    <glyph glyph-name="f_f" unicode="ff" horiz-adv-x="1648" 
d="M1562 1376v-172h-288v-1963h-186v2736q0 129 31 226q-86 79 -168.5 107.5t-176.5 28.5q-53 0 -101 -14t-94 -48.5t-79 -88.5t-53.5 -140t-20.5 -196v-476h288v-172h-288v-1963h-186v2614q0 139 30 251.5t81 187t120 124.5t144.5 72t158.5 22q254 0 429 -151
q124 163 359 167v-173q-288 -4 -288 -380v-599h288z" />
    <glyph glyph-name="fi" unicode="fi" horiz-adv-x="1502" 
d="M426 1204v-1963h-186v2630q0 139 30.5 251.5t81.5 187t121 124.5t145.5 72t158.5 22q318 0 503 -213v-303h-187v229q-75 63 -149.5 88.5t-166.5 25.5q-53 0 -101 -13.5t-95 -48.5t-80.5 -89t-54 -140t-20.5 -196v-492h288v-172h-288zM1093 1376h187v-1376h-187v1376z" />
    <glyph glyph-name="fl" unicode="fl" horiz-adv-x="1548" 
d="M426 1204v-1963h-186v2630q0 139 31.5 251.5t84 187t124 124.5t148.5 72t160 22q315 0 514 -213v-2315h-186v2241q-84 63 -159.5 88.5t-168.5 25.5q-54 0 -102.5 -13.5t-97 -48.5t-83.5 -89t-57 -140t-22 -196v-492h288v-172h-288z" />
    <glyph glyph-name="f_f_i" unicode="ffi" horiz-adv-x="2350" 
d="M1562 1376v-172h-288v-1963h-186v2630q0 184 50 314q-90 90 -177 122t-187 32q-53 0 -101 -14t-94 -48.5t-79 -88.5t-53.5 -140t-20.5 -196v-476h288v-172h-288v-1963h-186v2614q0 139 30 251.5t81 187t120 124.5t144.5 72t158.5 22q271 0 450 -172q74 96 178.5 142
t222.5 46q319 0 503 -213v-303h-187v229q-75 63 -149.5 88.5t-166.5 25.5q-53 0 -101 -13.5t-95 -48.5t-80.5 -89t-54 -140t-20.5 -196v-492h288zM1941 1376h187v-1376h-187v1376z" />
    <glyph glyph-name="f_f_l" unicode="ffl" horiz-adv-x="2396" 
d="M1562 1376v-172h-288v-1963h-186v2630q0 180 51 313q-90 91 -177.5 123t-187.5 32q-53 0 -101 -14t-94 -48.5t-79 -88.5t-53.5 -140t-20.5 -196v-476h288v-172h-288v-1963h-186v2614q0 139 30 251.5t81 187t120 124.5t144.5 72t158.5 22q274 0 452 -174q76 97 184 143.5
t226 46.5q315 0 514 -213v-2315h-186v2241q-84 63 -159.5 88.5t-168.5 25.5q-54 0 -102.5 -13.5t-97 -48.5t-83.5 -89t-57 -140t-22 -196v-492h288z" />
    <glyph glyph-name="f_b" unicode="fb" horiz-adv-x="2618" 
d="M426 1204v-1963h-186v2630q0 139 31.5 251.5t84 187t124 124.5t148.5 72t160 22q315 0 514 -213v-1077q226 170 466 170q156 0 285.5 -54t216.5 -148.5t134.5 -222.5t47.5 -276q0 -164 -47 -298.5t-138.5 -233.5t-234 -153t-325.5 -54q-334 0 -591 173v2099
q-83 64 -159 89.5t-169 25.5q-54 0 -102.5 -13.5t-97 -48.5t-83.5 -89t-57 -140t-22 -196v-492h288v-172h-288zM1302 1021v-775q194 -105 402 -105q261 0 410.5 148.5t149.5 413.5q0 236 -145 384t-368 148q-257 0 -449 -214z" />
    <glyph glyph-name="f_f_b" unicode="ffb" horiz-adv-x="3466" 
d="M1562 1376v-172h-288v-1963h-186v2630q0 180 51 313q-90 91 -177.5 123t-187.5 32q-53 0 -101 -14t-94 -48.5t-79 -88.5t-53.5 -140t-20.5 -196v-476h288v-172h-288v-1963h-186v2614q0 139 30 251.5t81 187t120 124.5t144.5 72t158.5 22q274 0 452 -174q76 97 184 143.5
t226 46.5q315 0 514 -213v-1077q226 170 466 170q156 0 285.5 -54t216.5 -148.5t134.5 -222.5t47.5 -276q0 -164 -47 -298.5t-138.5 -233.5t-234 -153t-325.5 -54q-334 0 -591 173v2100q-83 63 -159 88.5t-169 25.5q-54 0 -102.5 -13.5t-97 -48.5t-83.5 -89t-57 -140
t-22 -196v-492h288zM2150 1021v-775q194 -105 402 -105q261 0 410.5 148.5t149.5 413.5q0 236 -145 384t-368 148q-257 0 -449 -214z" />
    <glyph glyph-name="f_f_h" unicode="ffh" horiz-adv-x="3445" 
d="M1562 1376v-172h-288v-1963h-186v2630q0 180 51 313q-90 91 -177.5 123t-187.5 32q-53 0 -101 -14t-94 -48.5t-79 -88.5t-53.5 -140t-20.5 -196v-476h288v-172h-288v-1963h-186v2614q0 139 30 251.5t81 187t120 124.5t144.5 72t158.5 22q274 0 452 -174q76 97 184 143.5
t226 46.5q315 0 514 -213v-1156q92 120 226 184.5t298 64.5q255 0 393.5 -155.5t138.5 -468.5v-784h-186v695q0 287 -99.5 413t-311.5 126q-93 0 -175.5 -34t-146 -99t-100.5 -167.5t-37 -229.5v-704h-186v2241q-84 63 -159.5 88.5t-168.5 25.5q-54 0 -102.5 -13.5
t-97 -48.5t-83.5 -89t-57 -140t-22 -196v-492h288z" />
    <glyph glyph-name="f_f_j" unicode="ffj" horiz-adv-x="2347" 
d="M1562 1376v-172h-288v-1963h-186v2630q0 184 50 314q-90 90 -177 122t-187 32q-53 0 -101 -14t-94 -48.5t-79 -88.5t-53.5 -140t-20.5 -196v-476h288v-172h-288v-1963h-186v2614q0 139 30 251.5t81 187t120 124.5t144.5 72t158.5 22q271 0 450 -172q74 96 178.5 142
t222.5 46q319 0 503 -213v-303h-187v229q-75 63 -149.5 88.5t-166.5 25.5q-53 0 -101 -13.5t-95 -48.5t-80.5 -89t-54 -140t-20.5 -196v-492h288zM1941 1376h187v-2135h-187v2135z" />
    <glyph glyph-name="f_f_k" unicode="ffk" horiz-adv-x="3038" 
d="M1562 1376v-172h-288v-1963h-186v2630q0 180 51 313q-90 91 -177.5 123t-187.5 32q-53 0 -101 -14t-94 -48.5t-79 -88.5t-53.5 -140t-20.5 -196v-476h288v-172h-288v-1963h-186v2614q0 139 30 251.5t81 187t120 124.5t144.5 72t158.5 22q274 0 452 -174q76 97 184 143.5
t226 46.5q315 0 514 -213v-1514l598 575h251l-673 -648l712 -728h-251l-637 649v-649h-186v2241q-83 63 -159 88.5t-169 25.5q-54 0 -102.5 -13.5t-97 -48.5t-83.5 -89t-57 -140t-22 -196v-492h288z" />
    <glyph glyph-name="f_h" unicode="fh" horiz-adv-x="2597" 
d="M2358 784v-784h-186v695q0 287 -99.5 413t-311.5 126q-93 0 -175 -34t-146 -97.5t-101 -165t-37 -227.5v-710h-186v2241q-84 63 -159.5 88.5t-168.5 25.5q-54 0 -102.5 -13.5t-97 -48.5t-83.5 -89t-57 -140t-22 -196v-492h288v-172h-288v-1963h-186v2630
q0 139 31.5 251.5t84 187t124 124.5t148.5 72t160 22q315 0 514 -213v-1156q92 120 226 184.5t298 64.5q255 0 393.5 -155.5t138.5 -468.5z" />
    <glyph glyph-name="f_j" unicode="fj" horiz-adv-x="1499" 
d="M426 1204v-1963h-186v2630q0 139 30.5 251.5t81.5 187t121 124.5t145.5 72t158.5 22q318 0 503 -213v-303h-187v229q-75 63 -149.5 88.5t-166.5 25.5q-53 0 -101 -13.5t-95 -48.5t-80.5 -89t-54 -140t-20.5 -196v-492h288v-172h-288zM1093 1376h187v-2135h-187v2135z" />
    <glyph glyph-name="f_k" unicode="fk" horiz-adv-x="2189" 
d="M2189 0h-250l-637 649v-649h-186v2240q-83 64 -159 89.5t-169 25.5q-54 0 -102.5 -13.5t-97 -48.5t-83.5 -89t-57 -140t-22 -196v-492h288v-172h-288v-1963h-186v2630q0 139 31.5 251.5t84 187t124 124.5t148.5 72t160 22q315 0 514 -213v-1514l598 575h251l-673 -648z
" />
    <glyph glyph-name=".notdef" horiz-adv-x="2146" 
d="M251 2368h1641v-2368h-1641v2368zM973 1184l-558 862v-1724zM1630 169l-558 863l-558 -863h1116zM1630 2199h-1116l558 -863zM1728 2046l-557 -862l557 -862v1724z" />
    <glyph glyph-name=".null" horiz-adv-x="0" 
 />
    <glyph glyph-name="nonmarkingreturn" horiz-adv-x="1111" 
 />
    <glyph glyph-name="space" unicode=" " horiz-adv-x="1000" 
 />
    <glyph glyph-name="exclam" unicode="!" horiz-adv-x="822" 
d="M415 259q60 0 103 -42.5t43 -102.5t-43 -103t-103 -43q-59 0 -102 43t-43 103t43 102.5t102 42.5zM321 2240h188v-1732h-188v1732z" />
    <glyph glyph-name="quotedbl" unicode="&#x22;" horiz-adv-x="1008" 
d="M199 2496h210l-28 -774h-153zM612 2496h209l-28 -774h-152z" />
    <glyph glyph-name="numbersign" unicode="#" horiz-adv-x="1783" 
d="M1654 1398h-312l-75 -553h297v-164h-320l-93 -681h-170l92 681h-448l-92 -681h-171l93 681h-316v164h339l75 553h-330v165h352l93 677h170l-93 -677h448l93 677h171l-93 -677h290v-165zM1097 845l74 553h-448l-74 -553h448z" />
    <glyph glyph-name="dollar" unicode="$" horiz-adv-x="1477" 
d="M1226 2002l-134 -108q-99 106 -188 156.5t-185 50.5q-138 0 -234 -80t-96 -234q0 -79 33 -152t89.5 -132.5t129 -117t153 -112.5l161.5 -112.5t153.5 -123t129 -137t89.5 -163t33 -193.5q0 -240 -143 -397t-387 -176v-313h-173v318q-367 43 -544 375l153 98
q88 -151 207.5 -226.5t296.5 -75.5q104 0 194 45t146 129t56 189q0 93 -33 175.5t-89 146.5t-128 123.5t-152.5 114.5l-160.5 110.5t-152 120.5t-128 136t-89 164.5t-33 199.5q0 182 122.5 313t306.5 153v314h170v-318q236 -37 426 -261z" />
    <glyph glyph-name="percent" unicode="%" horiz-adv-x="2536" 
d="M597 2256q108 0 197 -53.5t147 -143.5t89.5 -204.5t31.5 -239.5q0 -102 -18 -198.5t-56 -184t-92 -153t-131 -104t-168 -38.5t-168 38.5t-131 104t-92 153t-56 184t-18 198.5q0 125 31.5 239.5t89.5 204.5t147 143.5t197 53.5zM597 2116q-80 0 -142 -48.5t-97 -126
t-52.5 -161t-17.5 -165.5q0 -91 17 -181t51.5 -173t97 -134t143.5 -51t143.5 51t97 134t51.5 173t17 181q0 83 -17 166.5t-52 160.5t-97.5 125.5t-142.5 48.5zM1930 1303q108 0 197 -53.5t147 -143.5t89.5 -204.5t31.5 -239.5q0 -102 -18 -198.5t-56 -184t-92 -153
t-131 -104t-168 -38.5t-168 38.5t-131 104t-92 153t-56 184t-18 198.5q0 125 31.5 239.5t89.5 204.5t147 143.5t197 53.5zM1930 1164q-80 0 -142 -48.5t-97 -126t-52.5 -161.5t-17.5 -166q0 -72 10 -144t33.5 -144t58 -127t88.5 -89.5t119 -34.5q81 0 143.5 51t97 134
t51.5 173t17 181q0 83 -17.5 166.5t-52 161t-97 126t-142.5 48.5zM1846 2304h175l-1335 -2368h-176z" />
    <glyph glyph-name="ampersand" unicode="&#x26;" horiz-adv-x="1914" 
d="M1534 480l371 -480h-231l-268 349q-319 -381 -649 -381q-170 0 -312 80t-226 225t-84 325q0 99 27 180t93.5 165t161.5 166.5t248 194.5q-254 298 -254 519q0 198 128.5 323.5t328.5 125.5q190 0 324.5 -122.5t134.5 -314.5q0 -79 -28.5 -152.5t-88 -145t-125 -131
t-165.5 -137.5l499 -647l235 290l123 -131zM862 2106q-117 0 -193 -77.5t-76 -196.5q0 -75 46 -166t172 -256q71 52 124.5 98t104 101.5t77.5 113.5t27 115q0 124 -83 196t-199 72zM1293 487l-518 673q-93 -65 -155 -112.5t-124.5 -105.5t-98 -108.5t-58 -110t-22.5 -122.5
q0 -190 127.5 -324t303.5 -134q63 0 125.5 20t112 48.5t108.5 79t99 91z" />
    <glyph glyph-name="quotesingle" unicode="'" horiz-adv-x="595" 
d="M199 2496h209l-28 -774h-153z" />
    <glyph glyph-name="parenleft" unicode="(" horiz-adv-x="923" 
d="M875 -582h-192q-218 294 -349 676t-131 797q0 781 480 1483h192q-472 -736 -472 -1483t472 -1473z" />
    <glyph glyph-name="parenright" unicode=")" horiz-adv-x="923" 
d="M240 -582h-192q472 726 472 1473t-472 1483h192q480 -702 480 -1483q0 -415 -131 -797.5t-349 -675.5z" />
    <glyph glyph-name="asterisk" unicode="*" horiz-adv-x="1265" 
d="M563 1942v387h146v-384l336 191l72 -129l-335 -189l336 -194l-74 -129l-335 191v-381h-146v384l-338 -194l-73 129l334 194l-333 189l72 129z" />
    <glyph glyph-name="plus" unicode="+" horiz-adv-x="1816" 
d="M813 852h-700v181h700v704h189v-704h703v-181h-703v-708h-189v708z" />
    <glyph glyph-name="comma" unicode="," horiz-adv-x="686" 
d="M293 257h234l-271 -753h-162z" />
    <glyph glyph-name="hyphen" unicode="-" horiz-adv-x="1216" 
d="M186 935h849v-167h-849v167z" />
    <glyph glyph-name="period" unicode="." horiz-adv-x="709" 
d="M359 259q60 0 103 -43t43 -102q0 -60 -43 -103t-103 -43q-61 0 -103.5 43t-42.5 103t42.5 102.5t103.5 42.5z" />
    <glyph glyph-name="slash" unicode="/" horiz-adv-x="1188" 
d="M936 2318h193l-909 -2576h-192z" />
    <glyph glyph-name="zero" unicode="0" horiz-adv-x="2019" 
d="M1010 2272q147 0 275 -60.5t222 -167t161.5 -248t101.5 -305.5t34 -338q0 -148 -22 -291t-65 -275.5t-110.5 -245t-153.5 -196t-199.5 -130.5t-243.5 -47t-243.5 47t-199.5 130.5t-153.5 196t-110.5 245t-65 275.5t-22 291q0 145 24 284t69.5 263t115 229t155.5 181.5
t196.5 119t233.5 42.5zM1010 2095q-105 0 -195.5 -43t-154.5 -116.5t-113.5 -167t-78.5 -201t-43.5 -211t-14.5 -203.5q0 -111 14 -223.5t43 -227.5t78 -214t113 -176.5t154.5 -122t197.5 -44.5q106 0 196.5 44.5t155 122t113.5 176.5t77.5 214t43 227.5t14.5 223.5
q0 122 -19.5 247t-66 251t-113.5 223.5t-171 159t-230 61.5z" />
    <glyph glyph-name="one" unicode="1" horiz-adv-x="1013" 
d="M459 2065h-347l100 175h440v-2240h-193v2065z" />
    <glyph glyph-name="two" unicode="2" horiz-adv-x="1597" 
d="M1437 175v-175h-1312l916 1133q202 251 202 483q0 131 -64 241.5t-174.5 174t-241.5 63.5q-181 0 -301 -109.5t-177 -294.5h-178q24 156 115 288t236 212.5t311 80.5q149 0 276 -53.5t212 -143t132.5 -208t47.5 -247.5q0 -173 -60 -306.5t-168 -268.5l-697 -870h925z" />
    <glyph glyph-name="three" unicode="3" horiz-adv-x="1725" 
d="M140 514h179q42 -165 187.5 -267t315.5 -102q216 0 360 132.5t144 335.5q0 191 -124 323t-310 155v159q163 21 267 132t104 279q0 179 -131 307.5t-310 128.5q-157 0 -270.5 -94.5t-161.5 -243.5h-178q37 214 214 363.5t396 149.5q140 0 259.5 -49.5t199.5 -132.5
t125 -190t45 -222q0 -167 -68.5 -288.5t-216.5 -210.5q99 -50 170.5 -116.5t110.5 -142t56.5 -150.5t17.5 -157q0 -125 -48.5 -240.5t-136 -206t-221.5 -144.5t-293 -54q-161 0 -308 69.5t-248.5 195.5t-125.5 281z" />
    <glyph glyph-name="four" unicode="4" horiz-adv-x="1693" 
d="M1304 439v-439h-193v439h-1076l1269 1865v-1690h266v-175h-266zM1111 614v1093l-735 -1093h735z" />
    <glyph glyph-name="five" unicode="5" horiz-adv-x="1658" 
d="M1455 2240v-175h-725l-157 -552q57 15 118 15q224 0 406 -99.5t286.5 -278.5t104.5 -403q0 -166 -60.5 -311t-165.5 -247.5t-253 -161.5t-318 -59q-197 0 -368.5 94.5t-281.5 265.5l146 102q86 -136 220.5 -210.5t283.5 -74.5q166 0 304.5 80t218.5 218.5t80 303.5
q0 166 -80 305t-219 219.5t-304 80.5q-227 0 -397 -113l286 1001h875z" />
    <glyph glyph-name="six" unicode="6" horiz-adv-x="1841" 
d="M349 1259l754 981h229l-564 -732q75 20 158 20q154 0 295 -62t243 -167t162.5 -249.5t60.5 -302.5t-60.5 -302t-162.5 -248.5t-243 -166.5t-295 -62t-295.5 62t-243.5 166.5t-163 248.5t-61 302q0 270 186 512zM926 1352q-158 0 -290 -84t-205.5 -223t-73.5 -298
q0 -116 43.5 -225.5t117.5 -193t181 -134t227 -50.5q118 0 224.5 49.5t181 132t118.5 193t44 228.5q0 157 -72.5 295t-204.5 224t-291 86z" />
    <glyph glyph-name="seven" unicode="7" horiz-adv-x="1770" 
d="M1423 2065h-1311v175h1641l-1351 -2240h-221z" />
    <glyph glyph-name="eight" unicode="8" horiz-adv-x="1765" 
d="M881 2272q132 0 247 -45.5t195.5 -124.5t127 -189t46.5 -235q0 -89 -28.5 -176t-98.5 -174.5t-175 -148.5q183 -91 276 -246t93 -320q0 -131 -51 -249.5t-140 -205.5t-217.5 -138.5t-274.5 -51.5q-148 0 -276 51t-216.5 138t-139 205.5t-50.5 250.5q0 166 92.5 319
t275.5 247q-80 46 -140 107t-94 127.5t-50.5 132.5t-16.5 132q0 167 79 302.5t220 213.5t316 78zM881 1082q-205 0 -346.5 -136t-141.5 -333q0 -195 142 -331.5t346 -136.5q134 0 246.5 62.5t177.5 170t65 235.5q0 196 -141.5 332.5t-347.5 136.5zM881 2105
q-115 0 -214 -56.5t-157.5 -153.5t-58.5 -211q0 -177 126.5 -302t303.5 -125q178 0 304 125t126 302q0 114 -58 211t-157 153.5t-215 56.5z" />
    <glyph glyph-name="nine" unicode="9" horiz-adv-x="1835" 
d="M1494 981l-754 -981h-230l564 732q-74 -20 -157 -20q-154 0 -295 62t-243.5 167t-163 249.5t-60.5 302.5t60.5 302t163 248.5t243.5 166.5t295 62t295 -62t243.5 -166.5t163 -248.5t60.5 -302q0 -271 -185 -512zM917 2096q-157 0 -289 -84t-206 -222.5t-74 -296.5
q0 -117 43.5 -227t117.5 -193.5t181 -134t227 -50.5q158 0 290 84t205.5 223t73.5 298q0 116 -43.5 225.5t-117.5 193t-181 134t-227 50.5z" />
    <glyph glyph-name="colon" unicode=":" horiz-adv-x="706" 
d="M359 259q59 0 102 -42.5t43 -102.5t-43 -103t-102 -43q-60 0 -103 43t-43 103t43 102.5t103 42.5zM359 1408q59 0 102 -43t43 -103t-43 -102.5t-102 -42.5q-60 0 -103 42.5t-43 102.5t43 103t103 43z" />
    <glyph glyph-name="semicolon" unicode=";" horiz-adv-x="718" 
d="M396 1408q60 0 103 -43t43 -103t-43 -102.5t-103 -42.5t-103 42.5t-43 102.5t43 103t103 43zM275 257h233l-271 -753h-161z" />
    <glyph glyph-name="less" unicode="&#x3c;" horiz-adv-x="1869" 
d="M1654 1779v-200l-1341 -638l1341 -640v-200l-1549 747v184z" />
    <glyph glyph-name="equal" unicode="=" horiz-adv-x="2058" 
d="M234 697h1592v-180h-1592v180zM234 1364h1592v-179h-1592v179z" />
    <glyph glyph-name="greater" unicode="&#x3e;" horiz-adv-x="1872" 
d="M219 1579v200l1550 -747v-184l-1550 -747v200l1342 640z" />
    <glyph glyph-name="question" unicode="?" horiz-adv-x="1445" 
d="M776 658v-150h-186v219q0 79 19 149t51.5 123t74.5 101t88.5 88.5l93.5 80t89 80.5t74.5 85t51.5 99t19 116q0 118 -58 220t-163 164t-233 62q-96 0 -178.5 -36t-138 -95.5t-90 -132t-45.5 -149.5h-177q7 157 93 293t229 216.5t307 80.5q187 0 336.5 -89t228.5 -232
t79 -308q0 -79 -19.5 -147.5t-52 -119.5t-75 -96.5t-89.5 -85.5l-93.5 -80t-89 -86t-75 -98t-52 -121.5t-19.5 -150.5zM683 259q60 0 103 -42.5t43 -102.5t-43 -103t-103 -43t-103 43t-43 103t43 102.5t103 42.5z" />
    <glyph glyph-name="at" unicode="@" horiz-adv-x="2786" 
d="M1980 1240v-801q-254 -175 -576 -175q-152 0 -276 54t-199.5 162t-75.5 252q0 207 142.5 326t374.5 119q118 0 229.5 -48.5t193.5 -144.5v167q0 83 -13 153.5t-47.5 139.5t-88 116.5t-141 77t-201.5 29.5q-263 0 -473.5 -113.5t-333 -326.5t-122.5 -490q0 -209 77.5 -398
t212.5 -328t328 -220.5t413 -81.5t413 81t328 219.5t212.5 327.5t77.5 400q0 179 -53 335l170 72q71 -185 71 -407q0 -164 -43 -320t-120.5 -288t-189 -242.5t-245 -187.5t-293 -120t-328.5 -43q-203 0 -390 60.5t-336.5 171t-261 258t-171.5 331t-60 380.5
q0 195 56.5 368.5t158.5 306.5t240.5 230t307.5 147.5t354 50.5q302 0 490 -166.5t188 -433.5zM1793 539v227q-68 113 -178.5 176t-252.5 63q-134 0 -227.5 -76t-93.5 -200q0 -140 106 -216.5t277 -76.5q183 0 369 103z" />
    <glyph glyph-name="A" unicode="A" horiz-adv-x="1936" 
d="M1728 0l-169 425h-1165l-185 -425h-209l1010 2304l924 -2304h-206zM1487 600l-484 1219l-530 -1219h1014z" />
    <glyph glyph-name="B" unicode="B" horiz-adv-x="1816" 
d="M902 0h-575v2240h512q190 0 341 -65.5t241 -194t90 -299.5q0 -314 -269 -484q89 -40 158.5 -94t113.5 -112t72.5 -124.5t40 -128.5t11.5 -128q0 -185 -98.5 -325t-265 -212.5t-372.5 -72.5zM917 1083h-398v-907h383q107 0 202 27t172.5 80t123 142.5t45.5 204.5
q0 112 -44.5 201t-119.5 143t-168 81.5t-196 27.5zM839 2064h-320v-805h334q90 0 171 24t148 71t106 126t39 181q0 105 -40.5 185t-109.5 126t-151.5 69t-176.5 23z" />
    <glyph glyph-name="C" unicode="C" horiz-adv-x="2303" 
d="M2179 1922l-137 -116q-136 133 -318.5 209t-381.5 76q-158 0 -305.5 -49t-266 -139.5t-207.5 -210t-137.5 -267t-48.5 -305.5t48.5 -305.5t137.5 -267t207.5 -210t266 -139.5t305.5 -49q204 0 389 79t323 219l128 -127q-161 -167 -378.5 -259.5t-461.5 -92.5
q-235 0 -450 91.5t-370 245.5t-247 367.5t-92 447.5t92 447t247 367.5t370 246t450 91.5q240 0 457.5 -92.5t379.5 -257.5z" />
    <glyph glyph-name="D" unicode="D" horiz-adv-x="2252" 
d="M897 0h-570v2240h442q219 0 416 -49t356.5 -145.5t276.5 -230.5t180.5 -312t63.5 -383q0 -231 -84 -435.5t-233.5 -356t-369.5 -240t-478 -88.5zM776 2064h-257v-1888h384q207 0 387 74t306 200t198.5 300.5t72.5 369.5q0 177 -54.5 329t-154 264t-235 191.5t-300 119.5
t-347.5 40z" />
    <glyph glyph-name="E" unicode="E" horiz-adv-x="1533" 
d="M327 2240h1038v-176h-846v-771h719v-175h-719v-942h901v-176h-1093v2240z" />
    <glyph glyph-name="F" unicode="F" horiz-adv-x="1430" 
d="M519 0h-192v2240h1038v-176h-846v-771h718v-175h-718v-1118z" />
    <glyph glyph-name="G" unicode="G" horiz-adv-x="2528" 
d="M2167 783h-772v176h1004q-11 -210 -95.5 -393t-224.5 -315t-335.5 -207.5t-419.5 -75.5q-234 0 -447.5 91.5t-367.5 245.5t-245.5 367.5t-91.5 447.5q0 156 41.5 305.5t115.5 275.5t180.5 232.5t233 181t275.5 116t306 41.5q275 0 518 -122t405 -335l-141 -116
q-135 181 -341.5 286.5t-440.5 105.5q-157 0 -303 -49t-264 -139t-206.5 -209.5t-136.5 -267.5t-48 -306t48 -306t136.5 -267.5t206.5 -209.5t264 -139t303 -49q152 0 289.5 40.5t250.5 118t192.5 199.5t110.5 276z" />
    <glyph glyph-name="H" unicode="H" horiz-adv-x="2255" 
d="M327 2240h192v-947h1213v947h193v-2240h-193v1118h-1213v-1118h-192v2240z" />
    <glyph glyph-name="I" unicode="I" horiz-adv-x="841" 
d="M328 2240h193v-2240h-193v2240z" />
    <glyph glyph-name="J" unicode="J" horiz-adv-x="1259" 
d="M20 45l79 160q112 -60 222 -60q436 0 436 596v1499h193v-1559q0 -154 -35 -277.5t-94.5 -203.5t-141 -133.5t-170.5 -76t-188 -22.5q-160 0 -301 77z" />
    <glyph glyph-name="K" unicode="K" horiz-adv-x="1871" 
d="M327 0v2240h192v-974l1003 974h269l-1081 -1051l1165 -1189h-269l-1087 1108v-1108h-192z" />
    <glyph glyph-name="L" unicode="L" horiz-adv-x="1268" 
d="M327 2240h192v-2064h726v-176h-918v2240z" />
    <glyph glyph-name="M" unicode="M" horiz-adv-x="2583" 
d="M1933 1672l-646 -1736l-644 1737l-370 -1673h-196l514 2304l696 -1864l696 1864l517 -2304h-196z" />
    <glyph glyph-name="N" unicode="N" horiz-adv-x="2608" 
d="M2081 412v1828h193v-2304l-1755 1893v-1829h-192v2304z" />
    <glyph glyph-name="O" unicode="O" horiz-adv-x="2675" 
d="M1334 2272q234 0 447 -91.5t367 -246t245 -367.5t91 -447t-91 -447.5t-245 -367.5t-367 -245.5t-447 -91.5t-446.5 91.5t-367 245.5t-245.5 367.5t-91 447.5t91 447t245.5 367.5t367 246t446.5 91.5zM1334 2091q-195 0 -372 -77t-305 -207.5t-203.5 -310t-75.5 -376.5
t75.5 -376.5t203.5 -310t305 -207.5t372 -77t372 77t305.5 207.5t204 310t75.5 376.5q0 158 -48 305.5t-136.5 267t-206 210t-264 139.5t-302.5 49z" />
    <glyph glyph-name="P" unicode="P" horiz-adv-x="1600" 
d="M519 980v-980h-192v2240h539q186 0 335.5 -74.5t238 -219t88.5 -336.5q0 -190 -88 -335t-236.5 -220t-332.5 -75h-352zM833 2064h-314v-908h319q79 0 150.5 16t135.5 52t110 88t73 128.5t27 169.5q0 94 -27 170.5t-74 128.5t-111 87.5t-136.5 51.5t-152.5 16z" />
    <glyph glyph-name="Q" unicode="Q" horiz-adv-x="2722" 
d="M2488 143v-175q-164 0 -297.5 43t-264.5 119q-271 -162 -588 -162q-234 0 -446.5 91.5t-367 245.5t-245.5 367.5t-91 447.5t91 447t245.5 367.5t367 246t446.5 91.5t447 -91.5t367 -246t245 -367.5t91 -447q0 -257 -106.5 -483.5t-294.5 -388.5q203 -105 401 -105z
M1215 445v175q84 0 165.5 -15.5t138.5 -34t132.5 -58.5t112.5 -62.5t114 -73.5q27 -17 40 -26q175 135 276 337t101 433q0 158 -48 305.5t-136.5 267t-206 210t-264 139.5t-302.5 49q-195 0 -372 -77t-305 -207.5t-203.5 -310t-75.5 -376.5t75.5 -376.5t203.5 -310
t305 -207.5t372 -77q215 0 409 96q-77 49 -124.5 76.5t-118.5 60.5t-141.5 48t-147.5 15z" />
    <glyph glyph-name="R" unicode="R" horiz-adv-x="1687" 
d="M920 1048h-401v-1048h-192v2240h538q187 0 336.5 -70t238 -207t88.5 -319q0 -197 -106 -348t-306 -220l412 -1076h-213zM865 2064h-346v-841h346q73 0 140 14.5t127.5 47t105 80.5t70.5 119.5t26 159.5q0 108 -39.5 191.5t-106.5 132t-148.5 72.5t-174.5 24z" />
    <glyph glyph-name="S" unicode="S" horiz-adv-x="1510" 
d="M1246 2002l-134 -108q-98 105 -188 156t-185 51q-138 0 -234 -80t-96 -234q0 -79 33 -152t89.5 -132.5t129 -117t153 -112.5l161.5 -112.5t153.5 -123t129 -137t89.5 -163t33 -193.5q0 -256 -161.5 -416t-433.5 -160q-230 0 -394 102t-260 285l156 89q87 -149 207 -223
t296 -74q104 0 194 45t146 129t56 189q0 93 -33 175.5t-89 146.5t-128 123.5t-152.5 114.5l-160.5 110.5t-152 120.5t-128 136t-89 164.5t-33 199.5q0 131 66.5 239.5t180.5 170t249 61.5q154 0 283 -66.5t246 -203.5z" />
    <glyph glyph-name="T" unicode="T" horiz-adv-x="1357" 
d="M1336 2064h-559v-2064h-193v2064h-559v176h1311v-176z" />
    <glyph glyph-name="U" unicode="U" horiz-adv-x="2258" 
d="M1749 311v1929h193v-2039q-159 -108 -352 -170.5t-383 -62.5q-114 0 -209 10t-189 36t-167.5 67.5t-137 108t-105 155t-65 210t-23.5 270.5v1415h193v-1352q0 -114 14.5 -210t38 -167t61.5 -128t77 -95t92 -65.5t99.5 -42.5t107 -23.5t107 -11t106.5 -2.5q281 0 542 168z
" />
    <glyph glyph-name="V" unicode="V" horiz-adv-x="1870" 
d="M3 2240h205l746 -1805l713 1805h206l-917 -2304z" />
    <glyph glyph-name="W" unicode="W" horiz-adv-x="3305" 
d="M1662 1782l-687 -1846l-940 2304h206l730 -1795l691 1859l700 -1855l699 1791h205l-906 -2304z" />
    <glyph glyph-name="X" unicode="X" horiz-adv-x="1647" 
d="M714 1182l-642 1058h222l531 -874l530 874h226l-644 -1058l718 -1182h-224l-606 1000l-606 -1000h-223z" />
    <glyph glyph-name="Y" unicode="Y" horiz-adv-x="1606" 
d="M903 1059v-1059h-193v1059l-718 1181h223l592 -970l587 970h223z" />
    <glyph glyph-name="Z" unicode="Z" horiz-adv-x="1514" 
d="M357 176h1088v-176h-1392l1068 2064h-992v176h1297z" />
    <glyph glyph-name="bracketleft" unicode="[" horiz-adv-x="905" 
d="M475 -389h375v-171h-561v2911h561v-170h-375v-2570z" />
    <glyph glyph-name="backslash" unicode="\" horiz-adv-x="1196" 
d="M67 2318h193l909 -2576h-194z" />
    <glyph glyph-name="bracketright" unicode="]" horiz-adv-x="904" 
d="M55 2351h560v-2911h-560v171h375v2570h-375v170z" />
    <glyph glyph-name="asciicircum" unicode="^" horiz-adv-x="1517" 
d="M1407 1056h-187l-458 1001l-459 -1001h-187l536 1184h221z" />
    <glyph glyph-name="underscore" unicode="_" horiz-adv-x="1738" 
d="M24 -291h1690v-167h-1690v167z" />
    <glyph glyph-name="grave" unicode="`" horiz-adv-x="688" 
d="M36 2289h249l285 -456h-163z" />
    <glyph glyph-name="a" unicode="a" horiz-adv-x="1558" 
d="M1132 720v119q0 102 -22 175t-57 115t-91.5 66.5t-112.5 32t-134 7.5q-157 0 -340 -78l-62 144q212 107 455 107q87 0 163.5 -14t149 -50t124 -91.5t83 -144.5t31.5 -203v-763q-259 -174 -604 -174q-160 0 -290 57t-208.5 169.5t-78.5 262.5q0 214 148.5 337t392.5 123
q127 0 245.5 -47t207.5 -150zM1132 246v249q-148 248 -461 248q-145 0 -244.5 -79t-99.5 -210q0 -146 116 -229.5t293 -83.5q203 0 396 105z" />
    <glyph glyph-name="b" unicode="b" horiz-adv-x="1758" 
d="M256 141v2355h186v-1258q226 170 466 170q156 0 285.5 -54t216.5 -148.5t134.5 -222.5t47.5 -276q0 -164 -47 -298.5t-138.5 -233.5t-234 -153t-325.5 -54q-334 0 -591 173zM442 1021v-775q194 -105 402 -105q261 0 410.5 148.5t149.5 413.5q0 236 -145 384t-368 148
q-259 0 -449 -214z" />
    <glyph glyph-name="c" unicode="c" horiz-adv-x="1480" 
d="M1341 1227l-132 -112q-152 120 -337 120q-141 0 -261.5 -74t-191 -200t-70.5 -273t70.5 -273t191 -200t261.5 -74q224 0 385 167l137 -107q-99 -109 -234.5 -171t-287.5 -62q-193 0 -357 96.5t-259 262t-95 361.5t95 361.5t259 262t357 96.5q267 0 469 -181z" />
    <glyph glyph-name="d" unicode="d" horiz-adv-x="1759" 
d="M1318 1238v1258h186v-2355q-259 -173 -591 -173q-183 0 -326 54t-234 153t-138 233.5t-47 298.5q0 148 47.5 276t134.5 222.5t216.5 148.5t285.5 54q240 0 466 -170zM1318 246v775q-192 214 -449 214q-223 0 -368.5 -148t-145.5 -384q0 -265 149.5 -413.5t411.5 -148.5
q208 0 402 105z" />
    <glyph glyph-name="e" unicode="e" horiz-adv-x="1603" 
d="M1462 680h-1099q0 -245 134.5 -395t353.5 -150q128 0 220.5 39.5t191.5 129.5l127 -107q-114 -112 -242.5 -170.5t-296.5 -58.5q-196 0 -352 90.5t-244.5 255t-88.5 374.5q0 157 50.5 292t138 228.5t207 146.5t254.5 53q273 0 450 -198.5t196 -529.5zM373 836h886
q-49 198 -166 302t-277 104q-162 0 -284.5 -105.5t-158.5 -300.5z" />
    <glyph glyph-name="f" unicode="f" horiz-adv-x="800" 
d="M714 1204h-288v-1963h-186v2736q0 254 125.5 400.5t348.5 150.5v-173q-288 -4 -288 -385v-594h288v-172z" />
    <glyph glyph-name="g" unicode="g" horiz-adv-x="1761" 
d="M1320 -88v226q-224 -170 -464 -170q-159 0 -290 55t-216.5 150.5t-132 222.5t-46.5 273q0 164 47 298.5t138 233.5t234 153t326 54q334 0 591 -173v-1346q0 -334 -171 -507t-485 -173q-132 0 -269 35.5t-252 97.5l65 155q104 -51 231.5 -82.5t234.5 -31.5q120 0 209.5 39
t143.5 111t80 166.5t26 212.5zM1320 355v775q-193 105 -401 105q-261 0 -410.5 -148.5t-149.5 -413.5q0 -236 144.5 -384t368.5 -148q258 0 448 214z" />
    <glyph glyph-name="h" unicode="h" horiz-adv-x="1739" 
d="M1314 0v695q0 287 -99.5 413t-311.5 126q-93 0 -175.5 -34t-146 -99t-100.5 -167.5t-37 -229.5v-704h-187v2496h187v-1337q92 120 226 184.5t298 64.5q255 0 393.5 -155.5t138.5 -468.5v-784h-186z" />
    <glyph glyph-name="i" unicode="i" horiz-adv-x="667" 
d="M445 2055v-142q0 -26 -18 -44.5t-43 -18.5h-93q-25 0 -42.5 18.5t-17.5 44.5v142q0 26 17.5 44.5t42.5 18.5h93q25 0 43 -18.5t18 -44.5zM431 1376v-1376h-186v1376h186z" />
    <glyph glyph-name="j" unicode="j" horiz-adv-x="663" 
d="M444 2055v-141q0 -27 -17.5 -45.5t-43.5 -18.5h-93q-26 0 -43.5 18.5t-17.5 45.5v141q0 26 18 44.5t43 18.5h93q25 0 43 -18.5t18 -44.5zM430 1376v-2135h-187v2135h187z" />
    <glyph glyph-name="k" unicode="k" horiz-adv-x="1328" 
d="M254 0v2496h187v-1695l597 575h252l-673 -648l711 -728h-250l-637 649v-649h-187z" />
    <glyph glyph-name="l" unicode="l" horiz-adv-x="691" 
d="M258 2496h187v-2496h-187v2496z" />
    <glyph glyph-name="m" unicode="m" horiz-adv-x="2583" 
d="M257 0v1376h187v-203q84 114 203 174.5t263 60.5q328 0 434 -298q192 298 513 298q231 0 356 -153t125 -461v-794h-186v695q0 288 -86.5 413.5t-270.5 125.5q-83 0 -155 -34t-128 -99.5t-88.5 -169t-32.5 -233.5v-698h-186v695q0 288 -86.5 413.5t-270.5 125.5
q-83 0 -155.5 -34t-128 -99.5t-88 -169t-32.5 -233.5v-698h-187z" />
    <glyph glyph-name="n" unicode="n" horiz-adv-x="1738" 
d="M1314 0v695q0 287 -99.5 413t-311.5 126q-93 0 -175.5 -34t-146 -99t-100.5 -167.5t-37 -229.5v-704h-187v1376h187v-217q92 120 226 184.5t298 64.5q255 0 393.5 -155.5t138.5 -468.5v-784h-186z" />
    <glyph glyph-name="o" unicode="o" horiz-adv-x="1744" 
d="M872 1408q144 0 276 -57t227.5 -153.5t152 -229.5t56.5 -280t-56.5 -280t-152 -229.5t-227.5 -153.5t-276 -57q-193 0 -356.5 96.5t-259 262t-95.5 361.5t95.5 361.5t259 262t356.5 96.5zM872 1235q-141 0 -261.5 -74t-191 -200t-70.5 -273t70.5 -273t191 -200t261.5 -74
t262 74t191.5 200t70.5 273t-70.5 273t-191.5 200t-262 74z" />
    <glyph glyph-name="p" unicode="p" horiz-adv-x="1757" 
d="M442 138v-897h-186v1994q255 173 591 173q183 0 325.5 -54t234 -153t138.5 -233.5t47 -298.5q0 -199 -81 -357t-238 -251t-365 -93q-240 0 -466 170zM442 1129v-774q192 -214 449 -214q223 0 368 148t145 384q0 264 -149.5 413t-410.5 149q-209 0 -402 -106z" />
    <glyph glyph-name="q" unicode="q" horiz-adv-x="1758" 
d="M1504 1235v-1994h-186v897q-226 -170 -465 -170q-156 0 -286 54t-217 148t-134.5 222.5t-47.5 276.5q0 164 47 298.5t138.5 233.5t234 153t324.5 54q335 0 592 -173zM1318 355v774q-193 106 -401 106q-262 0 -411.5 -148.5t-149.5 -413.5q0 -236 144.5 -384t367.5 -148
q258 0 450 214z" />
    <glyph glyph-name="r" unicode="r" horiz-adv-x="1080" 
d="M257 0v1376h186v-217q100 129 205 189t223 60q109 0 192 -55l-87 -164q-82 46 -163 46q-152 0 -261 -141t-109 -363v-731h-186z" />
    <glyph glyph-name="s" unicode="s" horiz-adv-x="1150" 
d="M886 1282l-101 -123q-115 86 -209 86q-81 0 -130.5 -44t-49.5 -128q0 -50 34.5 -95.5t89.5 -83t121.5 -76t133 -83.5t121.5 -97t89.5 -126t34.5 -160q0 -184 -115.5 -284t-344.5 -100q-264 0 -466 197l117 123q90 -74 171.5 -114t190.5 -40q127 0 192 61.5t65 171.5
q0 48 -21 90t-57 75.5t-82.5 65t-98 61.5l-102.5 62t-97.5 70t-82.5 80.5t-57 99t-21 120.5q0 148 100.5 232.5t251.5 84.5q87 0 173 -33.5t150 -92.5z" />
    <glyph glyph-name="t" unicode="t" horiz-adv-x="798" 
d="M715 1203h-288v-1203h-186v1881h186v-505h288v-173z" />
    <glyph glyph-name="u" unicode="u" horiz-adv-x="1704" 
d="M1263 246v1130h186v-1235q-259 -173 -575 -173q-103 0 -188 15.5t-170 58.5t-142.5 112.5t-93.5 185.5t-36 270v766h186v-701q0 -129 24.5 -225.5t65 -154.5t101 -93.5t122.5 -48t140 -12.5q186 0 380 105z" />
    <glyph glyph-name="v" unicode="v" horiz-adv-x="1444" 
d="M39 1376h194l493 -1040l493 1040h194l-687 -1440z" />
    <glyph glyph-name="w" unicode="w" horiz-adv-x="2353" 
d="M1176 1018l-479 -1082l-650 1440h193l455 -1024l481 1088l467 -1088l470 1024h194l-665 -1440z" />
    <glyph glyph-name="x" unicode="x" horiz-adv-x="1451" 
d="M613 752l-491 624h225l378 -480l370 480h225l-482 -623l591 -753h-225l-477 608l-470 -608h-225z" />
    <glyph glyph-name="y" unicode="y" horiz-adv-x="1500" 
d="M1264 1376h201l-1074 -2135h-202l461 917l-613 1218h201l512 -1020z" />
    <glyph glyph-name="z" unicode="z" horiz-adv-x="1410" 
d="M401 172h923v-172h-1267l890 1204h-764v172h1110z" />
    <glyph glyph-name="braceleft" unicode="{" horiz-adv-x="941" 
d="M387 1295v645q0 110 34 192.5t91 128.5t123 68t140 22h129v-166h-114q-113 0 -165 -75.5t-52 -202.5v-622q0 -89 -21.5 -160.5t-57 -116t-74 -71t-80.5 -38.5v-2q33 -9 63.5 -26.5t62 -49t55 -73t38 -102.5t14.5 -133v-627q0 -126 53.5 -202.5t163.5 -76.5h114v-167h-140
q-53 0 -104 13.5t-101.5 45.5t-88 79t-60.5 120.5t-23 164.5v637q0 132 -69.5 218.5t-205.5 92.5v174q136 6 205.5 92t69.5 218z" />
    <glyph glyph-name="bar" unicode="|" horiz-adv-x="749" 
d="M289 2496h181v-3255h-181v3255z" />
    <glyph glyph-name="braceright" unicode="}" horiz-adv-x="941" 
d="M37 -393h113q111 0 165 76.5t54 202.5v627q0 89 21.5 160.5t57 115.5t73.5 70.5t80 37.5v2q-42 12 -80 38.5t-73.5 71t-57 116t-21.5 160.5v622q0 127 -52.5 202.5t-166.5 75.5h-113v166h129q74 0 140 -22t123 -68t91 -128.5t34 -192.5v-645q0 -131 70 -217.5t205 -92.5
v-174q-135 -6 -205 -92.5t-70 -218.5v-637q0 -91 -23 -164.5t-60.5 -120.5t-87.5 -79t-101 -45.5t-104 -13.5h-141v167z" />
    <glyph glyph-name="asciitilde" unicode="~" horiz-adv-x="2012" 
d="M1621 1244h185q-10 -112 -45.5 -201t-89 -146t-121 -86.5t-144.5 -29.5q-99 0 -191.5 31t-162.5 74.5l-135 87.5t-134.5 75t-134.5 31q-102 0 -160 -69t-85 -217h-184q10 112 45.5 201t89 146t121 86.5t144.5 29.5q99 0 191.5 -31t162.5 -75l134.5 -88t134.5 -75t135 -31
q102 0 159.5 69.5t84.5 217.5z" />
    <glyph glyph-name="uni00A0" unicode="&#xa0;" horiz-adv-x="1000" 
 />
    <glyph glyph-name="exclamdown" unicode="&#xa1;" horiz-adv-x="779" 
d="M395 1718q60 0 103 -42.5t43 -102.5t-43 -103t-103 -43t-103 43t-43 103t43 102.5t103 42.5zM302 1178h187v-1732h-187v1732z" />
    <glyph glyph-name="cent" unicode="&#xa2;" horiz-adv-x="1457" 
d="M1318 1659l-132 -112q-152 120 -336 120q-141 0 -262 -74t-191.5 -200t-70.5 -273t70.5 -273t191.5 -200t262 -74q223 0 384 167l137 -107q-186 -203 -456 -229v-254h-170v258q-170 25 -308.5 125t-218.5 254.5t-80 332.5t80 332.5t218.5 254.5t308.5 125v257h170v-253
q228 -21 403 -177z" />
    <glyph glyph-name="sterling" unicode="&#xa3;" horiz-adv-x="1768" 
d="M1619 175v-175h-1462v119q132 128 216 263.5t115 242.5t31 209q0 53 -12 122h-283v166h236l-40 111.5t-45.5 133t-26 113t-14.5 139.5q0 129 47.5 247.5t132 208.5t211.5 143.5t275 53.5q129 0 247 -47t205.5 -126.5t146 -185t75.5 -221.5h-183q-43 170 -174 286.5
t-309 116.5q-204 0 -342 -138t-138 -344q0 -90 19 -166.5t60.5 -180t55.5 -144.5h358v-166h-319q11 -68 11 -142q0 -78 -22 -170.5t-86 -221.5t-163 -247h1177z" />
    <glyph glyph-name="currency" unicode="&#xa4;" horiz-adv-x="1965" 
d="M453 1483l-230 228l121 121l229 -230q181 140 410 140q231 0 409 -137l227 227l122 -121l-229 -223q147 -182 147 -415q0 -228 -147 -406l230 -222l-123 -123l-227 230q-184 -141 -409 -141q-232 0 -413 141l-226 -230l-121 124l229 223q-140 180 -140 404q0 231 141 410
zM488 1075q0 -130 64 -242t177.5 -179.5t250.5 -67.5q130 0 244.5 63.5t184.5 177t70 248.5q0 133 -65.5 245.5t-180.5 179.5t-253 67q-131 0 -244 -64.5t-180.5 -178t-67.5 -249.5z" />
    <glyph glyph-name="yen" unicode="&#xa5;" horiz-adv-x="1600" 
d="M1327 2240h209l-605 -1129h370v-156h-399v-243h399v-157h-399v-555h-192v555h-403v157h403v243h-403v156h374l-609 1129h211l523 -970z" />
    <glyph glyph-name="brokenbar" unicode="&#xa6;" horiz-adv-x="702" 
d="M266 553h181v-1124h-181v1124zM266 2309h181v-1125h-181v1125z" />
    <glyph glyph-name="section" unicode="&#xa7;" horiz-adv-x="1631" 
d="M295 -106h181q10 -138 100.5 -232.5t231.5 -94.5q156 0 250 93t94 228q0 70 -30.5 133t-78.5 108t-111.5 82t-124 59t-121.5 36q-227 51 -374.5 232.5t-147.5 422.5q0 198 106 360t298 265q-273 211 -273 472q0 126 71 234.5t191.5 172t260.5 63.5q214 0 361.5 -144
t159.5 -356h-181q-9 138 -99 232.5t-231 94.5q-157 0 -251 -93t-94 -229q0 -85 44.5 -158t117 -123t148 -83.5t154.5 -52.5q225 -54 374.5 -236t149.5 -419q0 -200 -106.5 -361.5t-296.5 -262.5q133 -104 202 -218t69 -254q0 -95 -42 -182.5t-112 -150.5t-166.5 -101
t-200.5 -38q-142 0 -259.5 66.5t-186.5 181t-77 253.5zM818 1455q-133 0 -240.5 -67.5t-166.5 -180.5t-59 -246q0 -205 132.5 -350t333.5 -145q131 0 239 67.5t167.5 181t59.5 246.5t-59.5 246t-167.5 180.5t-239 67.5z" />
    <glyph glyph-name="dieresis" unicode="&#xa8;" horiz-adv-x="1154" 
d="M343 2173q57 0 95.5 -39t38.5 -96t-38.5 -96t-95.5 -39q-56 0 -95.5 39.5t-39.5 95.5t39.5 95.5t95.5 39.5zM815 2173q56 0 95 -39.5t39 -95.5t-39 -95.5t-95 -39.5t-96 39.5t-40 95.5t40 95.5t96 39.5z" />
    <glyph glyph-name="copyright" unicode="&#xa9;" horiz-adv-x="2658" 
d="M1903 1439h-165q-20 120 -128 186t-264 66q-186 0 -306.5 -151.5t-120.5 -416.5q0 -269 115.5 -418t311.5 -149q147 0 258 77.5t134 208.5h165q-18 -198 -176.5 -318t-380.5 -120q-119 0 -217.5 36.5t-168.5 102t-118.5 156t-71.5 197.5t-23 227q0 108 24 210.5t73.5 194
t119.5 160t168.5 108.5t213.5 40q95 0 186.5 -24.5t170.5 -71t133 -125t67 -176.5zM2479 1123q0 -190 -57.5 -366.5t-163 -318.5t-247 -248t-318 -164t-366.5 -58t-366.5 58t-318 164t-247 248t-163 318.5t-57.5 366.5t57.5 366t163 317t247 246.5t318 162.5t366.5 57
t366.5 -57t318 -162.5t247 -246.5t163 -317t57.5 -366zM330 1123q0 -169 49.5 -324t141 -278.5t214 -216t275 -142t317.5 -49.5q206 0 390.5 78t317.5 212t211 322t78 398q0 208 -78 394.5t-211 320t-317.5 211.5t-390.5 78q-165 0 -317.5 -50t-274.5 -141.5t-214 -214.5
t-141.5 -277.5t-49.5 -320.5z" />
    <glyph glyph-name="ordfeminine" unicode="&#xaa;" horiz-adv-x="1196" 
d="M807 1803v39q0 73 -18 120.5t-54.5 70.5t-76.5 31.5t-97 8.5q-100 0 -225 -53l-51 116q149 77 311 77q58 0 109.5 -9.5t100 -33t83.5 -60.5t56 -95t21 -132v-495q-176 -119 -403 -119q-165 0 -275.5 88t-110.5 237q0 143 99.5 225t263.5 82q161 0 267 -98zM807 1468v147
q-87 146 -273 146q-83 0 -140.5 -46.5t-57.5 -122.5q0 -85 68 -133.5t171 -48.5q117 0 232 58z" />
    <glyph glyph-name="guillemotleft" unicode="&#xab;" horiz-adv-x="1453" 
d="M96 716l452 638h197l-410 -638l410 -638h-197zM651 716l452 638h197l-411 -638l412 -638h-198z" />
    <glyph glyph-name="logicalnot" unicode="&#xac;" horiz-adv-x="2044" 
d="M1561 1062h-1392v179h1593v-917h-201v738z" />
    <glyph glyph-name="uni00AD" unicode="&#xad;" horiz-adv-x="1216" 
d="M186 935h849v-167h-849v167z" />
    <glyph glyph-name="registered" unicode="&#xae;" horiz-adv-x="1750" 
d="M910 1515h-184v-347h-122v826h290q166 0 242.5 -60t76.5 -176q0 -90 -46 -148.5t-132 -77.5l179 -364h-137zM878 2271q145 0 275.5 -55t224 -148.5t148.5 -224t55 -275.5t-55 -275.5t-148.5 -224.5t-224 -149.5t-275.5 -55.5t-275.5 55.5t-224.5 149.5t-149 224.5
t-55 275.5t55 275.5t149 224t224.5 148.5t275.5 55zM878 2159q-162 0 -297 -78t-212.5 -214t-77.5 -299q0 -165 77.5 -301.5t212.5 -214.5t297 -78t296.5 78t212.5 214.5t78 301.5q0 163 -78 299t-212.5 214t-296.5 78zM880 1890h-154v-270h159q104 0 155.5 33t51.5 105
t-52 102t-160 30z" />
    <glyph glyph-name="macron" unicode="&#xaf;" horiz-adv-x="1326" 
d="M227 2106h875v-148h-875v148z" />
    <glyph glyph-name="degree" unicode="&#xb0;" horiz-adv-x="1217" 
d="M612 2272q184 0 314 -130t130 -313t-130 -313t-314 -130t-314 130t-130 313t130 313t314 130zM612 2124q-123 0 -209 -86.5t-86 -208.5q0 -124 86 -209.5t209 -85.5t209 85.5t86 209.5q0 122 -86 208.5t-209 86.5z" />
    <glyph glyph-name="plusminus" unicode="&#xb1;" horiz-adv-x="1973" 
d="M889 1062h-698v174h698v620h197v-620h697v-174h-697v-632h-197v632zM191 208h1592v-179h-1592v179z" />
    <glyph glyph-name="twosuperior" unicode="&#xb2;" horiz-adv-x="958" 
d="M862 1454v-139h-798l535 663q107 131 107 255q0 101 -70.5 172.5t-171.5 71.5q-92 0 -154 -60.5t-92 -163.5h-145q21 150 132.5 257t261.5 107q175 0 285 -112.5t110 -270.5q0 -99 -35 -176.5t-97 -155.5l-358 -448h490z" />
    <glyph glyph-name="threesuperior" unicode="&#xb3;" horiz-adv-x="1021" 
d="M83 1645h145q23 -91 98 -148t162 -57q109 0 182.5 67.5t73.5 171.5q0 98 -69 166.5t-172 80.5v125q90 10 148 67t58 142q0 91 -65.5 156t-155.5 65q-79 0 -137 -52t-85 -135h-144q22 136 128.5 231t237.5 95q165 0 269 -104.5t104 -246.5q0 -175 -142 -274
q181 -106 181 -316q0 -73 -28.5 -141t-80 -121t-130.5 -85t-173 -32q-147 0 -265.5 98.5t-139.5 246.5z" />
    <glyph glyph-name="acute" unicode="&#xb4;" horiz-adv-x="688" 
d="M412 2289h249l-371 -456h-162z" />
    <glyph glyph-name="mu" unicode="&#xb5;" horiz-adv-x="1862" 
d="M482 158v-917h-170v2135h171v-788q0 -93 23.5 -173t69.5 -141.5t119 -96.5t166 -35q148 0 258.5 96t166.5 259.5t56 371.5v507h172v-818q0 -55 0.5 -84t2 -75.5t5.5 -72t10.5 -61t17.5 -56.5t26.5 -43.5t36.5 -37t48 -23.5v-137q-66 0 -116.5 23t-82.5 59t-54.5 90.5
t-33.5 108t-18 121.5h-2q-61 -187 -195.5 -294.5t-295.5 -107.5q-117 0 -206 45t-175 145z" />
    <glyph glyph-name="paragraph" unicode="&#xb6;" horiz-adv-x="1946" 
d="M1460 2090h-478v-2583h-169v1467q-166 0 -304 49t-230.5 133.5t-143.5 198t-51 242.5q0 317 199.5 480t554.5 163h790v-2733h-168v2583z" />
    <glyph glyph-name="periodcentered" unicode="&#xb7;" horiz-adv-x="698" 
d="M355 1063q60 0 103 -42.5t43 -102.5t-43 -103t-103 -43t-103 43t-43 103t43 102.5t103 42.5z" />
    <glyph glyph-name="cedilla" unicode="&#xb8;" horiz-adv-x="717" 
d="M172 -243l144 243h143l-106 -165q107 -5 179.5 -64t72.5 -159q0 -67 -27 -117t-74.5 -79t-104.5 -43t-124 -14q-127 0 -219 50l41 108q92 -41 182 -41q66 0 114.5 28.5t48.5 93.5q0 54 -49.5 92t-108 52.5t-112.5 14.5z" />
    <glyph glyph-name="onesuperior" unicode="&#xb9;" horiz-adv-x="677" 
d="M282 2463h-207l79 139h282v-1284h-154v1145z" />
    <glyph glyph-name="ordmasculine" unicode="&#xba;" horiz-adv-x="1280" 
d="M642 2213q128 0 236.5 -63t171.5 -172t63 -237t-63 -236.5t-171.5 -172t-236.5 -63.5q-195 0 -333 138.5t-138 333.5q0 128 63 237t171.5 172t236.5 63zM642 2073q-128 0 -220.5 -98t-92.5 -234t92.5 -233.5t220.5 -97.5t220 97.5t92 233.5t-92 234t-220 98z" />
    <glyph glyph-name="guillemotright" unicode="&#xbb;" horiz-adv-x="1455" 
d="M573 716l-412 638h197l452 -638l-452 -638h-197zM1126 716l-409 638h197l452 -638l-452 -638h-197z" />
    <glyph glyph-name="onequarter" unicode="&#xbc;" horiz-adv-x="2073" 
d="M1804 226v-236h-148v236h-593l741 1083v-951h143v-132h-143zM292 2099h-207l80 139h282v-1283h-155v1144zM1591 2304h177l-1336 -2368h-176zM1656 358v492l-332 -492h332z" />
    <glyph glyph-name="onehalf" unicode="&#xbd;" horiz-adv-x="2338" 
d="M2199 138v-139h-799l537 662q106 130 106 255q0 102 -70.5 173.5t-171.5 71.5q-92 0 -154.5 -61t-91.5 -164h-145q21 150 133 256.5t262 106.5q175 0 284.5 -112t109.5 -269q0 -100 -35 -178.5t-97 -154.5l-359 -447h491zM292 2099h-207l80 139h282v-1283h-155v1144z
M1592 2304h176l-1335 -2368h-176z" />
    <glyph glyph-name="threequarters" unicode="&#xbe;" horiz-adv-x="2360" 
d="M101 1281h145q23 -91 97.5 -148t161.5 -57q110 0 183.5 67.5t73.5 171.5q0 98 -69 166.5t-172 80.5v125q91 10 148 67t57 143q0 90 -65.5 155t-155.5 65q-78 0 -136 -52t-85 -135h-144q22 136 128 231t237 95q165 0 269.5 -104t104.5 -246q0 -176 -142 -275
q181 -105 181 -316q0 -73 -28.5 -140.5t-80 -120.5t-131 -85t-173.5 -32q-146 0 -264.5 98t-139.5 246zM2095 226v-236h-148v236h-593l741 1083v-951h144v-132h-144zM1882 2304h176l-1335 -2368h-176zM1947 358v492l-332 -492h332z" />
    <glyph glyph-name="questiondown" unicode="&#xbf;" horiz-adv-x="1406" 
d="M655 1028v150h186v-218q0 -100 -31 -186t-80.5 -147t-109.5 -116l-119.5 -105.5t-109 -103t-80.5 -120t-31 -145.5q0 -118 58 -220t163 -164t233 -62q97 0 179.5 36t137.5 96t90 132.5t45 149.5h177q-5 -118 -57 -227t-136 -189t-198.5 -127.5t-237.5 -47.5
q-141 0 -263 52t-204.5 139t-129.5 201t-47 237q0 79 19.5 147.5t52 119.5t75 96.5t89 85.5l93.5 80t89.5 86t75 98t52 121.5t19.5 150.5zM748 1718q60 0 103 -42.5t43 -102.5t-43 -103t-103 -43t-103 43t-43 103t43 102.5t103 42.5z" />
    <glyph glyph-name="Agrave" unicode="&#xc0;" horiz-adv-x="1936" 
d="M1728 0l-169 425h-1165l-185 -425h-209l1010 2304l924 -2304h-206zM539 2817h267l304 -368h-174zM1487 600l-484 1219l-530 -1219h1014z" />
    <glyph glyph-name="Aacute" unicode="&#xc1;" horiz-adv-x="1936" 
d="M1728 0l-169 425h-1164l-185 -425h-210l1010 2304l924 -2304h-206zM1215 2810h266l-397 -368h-173zM1488 600l-485 1219l-530 -1219h1015z" />
    <glyph glyph-name="Acircumflex" unicode="&#xc2;" horiz-adv-x="1936" 
d="M1728 0l-169 425h-1165l-185 -425h-209l1010 2304l924 -2304h-206zM1424 2443h-178l-235 260l-237 -260h-175l318 368h190zM1487 600l-484 1219l-530 -1219h1014z" />
    <glyph glyph-name="Atilde" unicode="&#xc3;" horiz-adv-x="1937" 
d="M1256 2763h132q-14 -139 -76.5 -214t-142.5 -75q-50 0 -89.5 16t-64.5 39t-47 45.5t-46.5 38.5t-51.5 16q-86 0 -110 -148h-132q14 139 76.5 214t143.5 75q49 0 89 -16t65 -38.5t46.5 -45t46 -38.5t51.5 -16q86 0 110 147zM1559 425h-1164l-185 -425h-210l1011 2304
l924 -2304h-206zM1003 1819l-529 -1219h1014z" />
    <glyph glyph-name="Adieresis" unicode="&#xc4;" horiz-adv-x="1937" 
d="M775 2752q56 0 94.5 -39.5t38.5 -95.5t-38.5 -95t-94.5 -39t-95.5 39t-39.5 95t39.5 95.5t95.5 39.5zM1246 2752q56 0 94.5 -39.5t38.5 -95.5t-38.5 -95.5t-94.5 -39.5t-95.5 39.5t-39.5 95.5t39.5 95.5t95.5 39.5zM1729 0l-170 425h-1164l-185 -425h-210l1011 2304
l924 -2304h-206zM1488 600l-485 1219l-529 -1219h1014z" />
    <glyph glyph-name="Aring" unicode="&#xc5;" horiz-adv-x="1936" 
d="M1008 3034q130 0 222 -92t92 -222t-92 -222t-222 -92t-222.5 92t-92.5 222t92.5 222t222.5 92zM1008 2914q-81 0 -137.5 -56.5t-56.5 -137.5q0 -80 56.5 -137t137.5 -57q80 0 137 57t57 137q0 81 -57 137.5t-137 56.5zM1728 0l-169 425h-1165l-185 -425h-209l1010 2304
l924 -2304h-206zM1487 600l-484 1219l-530 -1219h1014z" />
    <glyph glyph-name="AE" unicode="&#xc6;" horiz-adv-x="2595" 
d="M1582 1293h718v-175h-718v-942h900v-176h-1093v425h-918l-260 -425h-223l1376 2240h1063v-176h-845v-771zM1389 600v1323l-808 -1323h808z" />
    <glyph glyph-name="Ccedilla" unicode="&#xc7;" horiz-adv-x="2303" 
d="M2180 1922l-138 -116q-136 133 -318 209t-381 76q-158 0 -306 -49t-266.5 -139.5t-207.5 -210t-137.5 -267t-48.5 -305.5t48.5 -305.5t137.5 -267t207.5 -210t266.5 -139.5t306 -49q204 0 389 79t323 219l127 -127q-151 -157 -354 -248.5t-430 -101.5l-76 -119
q107 -5 179.5 -64t72.5 -158q0 -67 -27 -117t-74.5 -79t-104.5 -43t-124 -14q-127 0 -219 50l41 108q92 -41 182 -41q66 0 114.5 28.5t48.5 93.5q0 54 -49.5 92t-108 52.5t-112.5 14.5l117 197q-222 16 -420.5 113t-342.5 249t-228 357.5t-84 429.5q0 234 92 447
t247.5 367.5t370 246t450.5 91.5q240 0 457.5 -92.5t379.5 -257.5z" />
    <glyph glyph-name="Egrave" unicode="&#xc8;" horiz-adv-x="1534" 
d="M327 2240h1038v-175h-845v-772h718v-175h-718v-942h900v-176h-1093v2240zM468 2817h267l304 -368h-174z" />
    <glyph glyph-name="Eacute" unicode="&#xc9;" horiz-adv-x="1533" 
d="M327 2240h1038v-176h-846v-771h719v-175h-719v-942h901v-176h-1093v2240zM1002 2810h267l-398 -368h-173z" />
    <glyph glyph-name="Ecircumflex" unicode="&#xca;" horiz-adv-x="1533" 
d="M327 2240h1038v-175h-846v-772h719v-175h-719v-942h901v-176h-1093v2240zM1287 2443h-179l-235 260l-237 -260h-175l318 368h190z" />
    <glyph glyph-name="Edieresis" unicode="&#xcb;" horiz-adv-x="1534" 
d="M617 2755q56 0 94.5 -39.5t38.5 -95.5t-38.5 -95t-94.5 -39t-96 39t-40 95t40 95.5t96 39.5zM1087 2755q56 0 95 -39.5t39 -95.5t-39 -95.5t-95 -39.5t-95.5 39.5t-39.5 95.5t39.5 95.5t95.5 39.5zM327 2240h1038v-176h-845v-771h718v-175h-718v-942h900v-176h-1093v2240
z" />
    <glyph glyph-name="Igrave" unicode="&#xcc;" horiz-adv-x="841" 
d="M-51 2817h267l305 -368h-175zM328 2240h193v-2240h-193v2240z" />
    <glyph glyph-name="Iacute" unicode="&#xcd;" horiz-adv-x="841" 
d="M328 2240h193v-2240h-193v2240zM636 2810h267l-397 -368h-174z" />
    <glyph glyph-name="Icircumflex" unicode="&#xce;" horiz-adv-x="841" 
d="M838 2443h-180l-234 260l-237 -260h-175l318 368h189zM328 2240h193v-2240h-193v2240z" />
    <glyph glyph-name="Idieresis" unicode="&#xcf;" horiz-adv-x="841" 
d="M189 2755q56 0 95 -39.5t39 -95.5t-39 -95t-95 -39t-95.5 39t-39.5 95t39.5 95.5t95.5 39.5zM660 2755q56 0 95 -39.5t39 -95.5t-39 -95.5t-95 -39.5t-95.5 39.5t-39.5 95.5t39.5 95.5t95.5 39.5zM328 2240h193v-2240h-193v2240z" />
    <glyph glyph-name="Ntilde" unicode="&#xd1;" horiz-adv-x="2608" 
d="M1549 2827h131q-14 -139 -76.5 -214t-143.5 -75q-50 0 -89.5 16t-64.5 39t-46.5 45.5t-46 38.5t-51.5 16q-43 0 -70 -35.5t-40 -112.5h-133q14 139 77 214t143 75q49 0 89 -16t65 -38.5t47 -45t46.5 -38.5t51.5 -16q43 0 70.5 35.5t40.5 111.5zM2081 2240h193v-2304
l-1755 1893v-1829h-192v2304l1754 -1892v1828z" />
    <glyph glyph-name="Ograve" unicode="&#xd2;" horiz-adv-x="2674" 
d="M1334 2272q234 0 446.5 -91.5t366.5 -245.5t245 -367.5t91 -447.5t-91 -447.5t-245 -367.5t-366.5 -245.5t-446.5 -91.5t-447 91.5t-367 245.5t-245 367.5t-91 447.5t91 447.5t245 367.5t367 245.5t447 91.5zM1334 2092q-195 0 -372.5 -77.5t-305.5 -208t-203.5 -310
t-75.5 -376.5t75.5 -376.5t204 -310t305.5 -207.5t372 -77q156 0 302 49t263.5 139.5t206 209.5t136.5 267t48 306q0 197 -75.5 376.5t-203.5 310t-305 208t-372 77.5zM907 2819h266l305 -368h-175z" />
    <glyph glyph-name="Oacute" unicode="&#xd3;" horiz-adv-x="2674" 
d="M1334 2272q234 0 446.5 -91.5t366.5 -246t245 -367.5t91 -447t-91 -447.5t-245 -367.5t-366.5 -245.5t-446.5 -91.5t-447 91.5t-367 245.5t-245 367.5t-91 447.5t91 447t245 367.5t367 246t447 91.5zM1334 2091q-156 0 -302.5 -49t-264 -139.5t-206 -210t-136.5 -267
t-48 -305.5q0 -197 75.5 -376.5t204 -310t305.5 -207.5t372 -77q156 0 302 49t263.5 139.5t206 209.5t136.5 267t48 306q0 197 -75.5 376.5t-203.5 310t-305 207.5t-372 77zM1516 2812h267l-397 -368h-174z" />
    <glyph glyph-name="Ocircumflex" unicode="&#xd4;" horiz-adv-x="2674" 
d="M1334 2272q234 0 446.5 -91.5t366.5 -245.5t245 -367.5t91 -447.5t-91 -447.5t-245 -367.5t-366.5 -245.5t-446.5 -91.5t-447 91.5t-367 245.5t-245 367.5t-91 447.5t91 447.5t245 367.5t367 245.5t447 91.5zM1334 2092q-195 0 -372.5 -77.5t-305.5 -208t-203.5 -310
t-75.5 -376.5t75.5 -376.5t204 -310t305.5 -207.5t372 -77q156 0 302 49t263.5 139.5t206 209.5t136.5 267t48 306q0 197 -75.5 376.5t-203.5 310t-305 208t-372 77.5zM1746 2445h-179l-235 260l-237 -260h-174l318 368h189z" />
    <glyph glyph-name="Otilde" unicode="&#xd5;" horiz-adv-x="2674" 
d="M1581 2761h132q-14 -138 -77 -213t-143 -75q-49 0 -88.5 16t-64.5 38.5t-47 45t-46.5 38.5t-51.5 16q-86 0 -110 -148h-132q14 140 76.5 215t142.5 75q50 0 89.5 -16t65 -38.5t47 -45t46 -38.5t51.5 -16q86 0 110 146zM2483 1120q0 -234 -91 -447.5t-245 -367.5
t-366.5 -245.5t-446.5 -91.5t-447 91.5t-367 245.5t-245 367.5t-91 447.5t91 447t245 367.5t367 246t447 91.5t446.5 -91.5t366.5 -246t245 -367.5t91 -447zM377 1120q0 -197 75.5 -376.5t204 -310t305.5 -207.5t372 -77q156 0 302 49t263.5 139.5t206 209.5t136.5 267
t48 306q0 197 -75.5 376.5t-203.5 310t-305 207.5t-372 77q-156 0 -302.5 -49t-264 -139.5t-206 -210t-136.5 -267t-48 -305.5z" />
    <glyph glyph-name="Odieresis" unicode="&#xd6;" horiz-adv-x="2674" 
d="M1099 2754q56 0 94.5 -39.5t38.5 -95.5t-38.5 -95t-94.5 -39t-95.5 39t-39.5 95t39.5 95.5t95.5 39.5zM1334 2272q234 0 446.5 -91.5t366.5 -245.5t245 -367.5t91 -447.5t-91 -447.5t-245 -367.5t-366.5 -245.5t-446.5 -91.5t-447 91.5t-367 245.5t-245 367.5t-91 447.5
t91 447.5t245 367.5t367 245.5t447 91.5zM1334 2092q-195 0 -372.5 -77.5t-305.5 -208t-203.5 -310t-75.5 -376.5t75.5 -376.5t204 -310t305.5 -207.5t372 -77q156 0 302 49t263.5 139.5t206 209.5t136.5 267t48 306q0 197 -75.5 376.5t-203.5 310t-305 208t-372 77.5z
M1569 2754q56 0 95 -39.5t39 -95.5t-39 -95.5t-95 -39.5t-95 39.5t-39 95.5t39 95.5t95 39.5z" />
    <glyph glyph-name="multiply" unicode="&#xd7;" horiz-adv-x="1735" 
d="M159 361l579 579l-578 579l133 133l579 -578l578 577l129 -129l-577 -578l580 -580l-132 -135l-581 581l-579 -581z" />
    <glyph glyph-name="Oslash" unicode="&#xd8;" horiz-adv-x="2675" 
d="M2017 2045l249 291l118 -110l-244 -286q162 -160 253 -372t91 -448q0 -234 -91 -447.5t-245 -367.5t-367 -245.5t-447 -91.5q-189 0 -363.5 59t-319.5 167l-249 -290l-117 109l243 286q-162 160 -253 372t-91 449q0 234 91 447t245.5 367.5t367 246t446.5 91.5
q376 0 683 -227zM1334 149q156 0 302 49t263.5 139t206 209.5t136.5 267.5t48 306q0 193 -71 367t-199 308l-1250 -1458q250 -188 564 -188zM649 443l1248 1459q-250 188 -563 188q-195 0 -372 -77t-305 -207t-203.5 -309.5t-75.5 -376.5q0 -194 71.5 -368.5t199.5 -308.5z
" />
    <glyph glyph-name="Ugrave" unicode="&#xd9;" horiz-adv-x="2258" 
d="M1750 311v1929h192v-2039q-159 -109 -351.5 -171t-383.5 -62q-114 0 -209 10t-189 36t-167 67.5t-137 108t-105.5 155t-65 210t-23.5 270.5v1415h193v-1352q0 -114 14.5 -210t38 -167t61.5 -128t77 -95t92 -65.5t100 -42.5t107.5 -23.5t106.5 -11t106 -2.5q281 0 543 168
zM987 2817l305 -368h-174l-397 368h266z" />
    <glyph glyph-name="Uacute" unicode="&#xda;" horiz-adv-x="2258" 
d="M1750 311v1929h192v-2039q-159 -109 -351.5 -171t-383.5 -62q-114 0 -209 10t-189 36t-167 67.5t-137 108t-105.5 155t-65 210t-23.5 270.5v1415h193v-1352q0 -114 14.5 -210t38 -167t61.5 -128t77 -95t92 -65.5t100 -42.5t107.5 -23.5t106.5 -11t106 -2.5q281 0 543 168
zM1550 2810l-396 -368h-175l305 368h266z" />
    <glyph glyph-name="Ucircumflex" unicode="&#xdb;" horiz-adv-x="2258" 
d="M1750 311v1929h192v-2039q-159 -109 -351.5 -171t-383.5 -62q-114 0 -209 10t-189 36t-167 67.5t-137 108t-105.5 155t-65 210t-23.5 270.5v1415h193v-1352q0 -114 14.5 -210t38 -167t61.5 -128t77 -95t92 -65.5t100 -42.5t107.5 -23.5t106.5 -11t106 -2.5q281 0 543 168
zM1378 2443l-235 260l-237 -260h-174l317 368h191l317 -368h-179z" />
    <glyph glyph-name="Udieresis" unicode="&#xdc;" horiz-adv-x="2257" 
d="M1749 311v1929h192v-2039q-158 -108 -351 -170.5t-383 -62.5q-114 0 -209 10t-189 36t-167.5 67.5t-137 108t-105 155t-65 210t-23.5 270.5v1415h192v-1352q0 -114 14.5 -210t38 -167t61.5 -128t77 -95t92.5 -65.5t100 -42.5t107 -23.5t107 -11t106.5 -2.5q280 0 542 168
zM1025 2620q0 -56 -38.5 -95t-94.5 -39t-96 39t-40 95t40 95.5t96 39.5t94.5 -39.5t38.5 -95.5zM1496 2620q0 -56 -39 -95.5t-95 -39.5t-95.5 39.5t-39.5 95.5t39.5 95.5t95.5 39.5t95 -39.5t39 -95.5z" />
    <glyph glyph-name="Yacute" unicode="&#xdd;" horiz-adv-x="1606" 
d="M903 1059v-1059h-193v1059l-718 1181h223l592 -970l587 970h223zM967 2800h267l-398 -368h-174z" />
    <glyph glyph-name="germandbls" unicode="&#xdf;" horiz-adv-x="1728" 
d="M444 1790v-1790h-187v1802q0 340 166.5 533t437.5 193q131 0 245 -46t193 -124t124.5 -184t45.5 -223q0 -89 -25 -166t-65 -131.5t-88 -103t-96 -90t-88 -82.5t-65 -91.5t-25 -105.5q0 -61 34 -118t88.5 -104t120.5 -94.5t132 -100.5t120.5 -111.5t88.5 -137t34 -167.5
q0 -178 -112.5 -279t-331.5 -101q-240 0 -438 185l117 124q88 -73 163 -108t178 -35q110 0 171.5 66t61.5 157q0 64 -34 123t-87.5 107t-119 96l-131 100.5t-119 109.5t-87.5 134t-34 164q0 69 24.5 129.5t64 106.5t87 90l95.5 89t87.5 93t64 113t24.5 139q0 171 -120 287.5
t-298 116.5q-193 0 -305 -149t-112 -416z" />
    <glyph glyph-name="agrave" unicode="&#xe0;" horiz-adv-x="1558" 
d="M1133 720v119q0 73 -11.5 131.5t-30.5 99.5t-49.5 71t-64 48t-78.5 28.5t-87.5 14t-96.5 3.5q-159 0 -340 -77l-62 143q212 107 455 107q87 0 163.5 -14t149 -50t124 -91.5t83 -144.5t31.5 -203v-763q-259 -174 -604 -174q-160 0 -290 57t-208.5 169.5t-78.5 262.5
q0 214 148.5 337t392.5 123q127 0 246 -47.5t208 -149.5zM1133 246v249q-150 248 -462 248q-145 0 -244.5 -79t-99.5 -210q0 -146 116 -229.5t293 -83.5q203 0 397 105zM632 2059l284 -456h-162l-370 456h248z" />
    <glyph glyph-name="aacute" unicode="&#xe1;" horiz-adv-x="1557" 
d="M1132 720v119q0 73 -11.5 131.5t-30.5 99.5t-49.5 71t-64 48t-78.5 28.5t-87.5 14t-96.5 3.5q-159 0 -340 -77l-62 143q212 107 455 107q87 0 163.5 -14t149 -50t124 -91.5t83 -144.5t31.5 -203v-763q-259 -174 -604 -174q-160 0 -289.5 57t-208 169.5t-78.5 262.5
q0 214 148 337t392 123q127 0 246 -47.5t208 -149.5zM1132 246v249q-148 248 -462 248q-144 0 -243.5 -79t-99.5 -210q0 -146 116 -229.5t292 -83.5q203 0 397 105zM1157 2059l-371 -456h-162l284 456h249z" />
    <glyph glyph-name="acircumflex" unicode="&#xe2;" horiz-adv-x="1558" 
d="M1133 720v119q0 101 -22 174t-57 115t-92 66.5t-113 32t-134 7.5q-159 0 -340 -77l-62 144q212 107 455 107q87 0 163.5 -14.5t149 -50.5t124 -91.5t83 -144t31.5 -202.5v-763q-259 -174 -604 -174q-160 0 -290 57t-208.5 169.5t-78.5 262.5q0 214 148.5 337t392.5 123
q127 0 246 -47.5t208 -149.5zM1133 246v249q-150 248 -462 248q-145 0 -244.5 -79t-99.5 -210q0 -146 116 -229.5t293 -83.5q203 0 397 105zM1007 1603l-219 333l-222 -333h-163l290 456h184l297 -456h-167z" />
    <glyph glyph-name="atilde" unicode="&#xe3;" horiz-adv-x="1558" 
d="M1132 720v119q0 102 -22 175t-57 115t-91.5 66.5t-112.5 32t-134 7.5q-159 0 -340 -78l-63 144q214 107 455 107q88 0 164 -14t149 -50t124.5 -91.5t83 -144.5t31.5 -203v-763q-259 -174 -605 -174q-160 0 -289.5 57t-208 169.5t-78.5 262.5q0 214 148.5 337t392.5 123
q127 0 245.5 -47t207.5 -150zM1024 1958h132q-14 -145 -77 -223.5t-143 -78.5q-50 0 -89.5 16.5t-64.5 40t-46.5 47.5t-46 40.5t-51.5 16.5q-86 0 -110 -153h-133q14 145 77 223t143 78q49 0 89 -16.5t65 -40.5t46.5 -47.5t46.5 -40t52 -16.5q86 0 110 154zM1132 246v249
q-148 248 -461 248q-145 0 -244.5 -79t-99.5 -210q0 -146 116 -229.5t293 -83.5q202 0 396 105z" />
    <glyph glyph-name="adieresis" unicode="&#xe4;" horiz-adv-x="1558" 
d="M1132 720v119q0 102 -22 175t-57 115t-91.5 66.5t-112.5 32t-134 7.5q-161 0 -340 -77l-63 143q214 107 455 107q88 0 164 -14t149 -50t124.5 -91.5t83 -144.5t31.5 -203v-763q-259 -174 -605 -174q-160 0 -289.5 57t-208 169.5t-78.5 262.5q0 214 148 337t392 123
q127 0 246 -47.5t208 -149.5zM687 1795q0 -56 -38.5 -95t-94.5 -39t-96 39t-40 95t40 95.5t96 39.5t94.5 -39.5t38.5 -95.5zM1132 246v249q-148 248 -462 248q-144 0 -243.5 -79t-99.5 -210q0 -146 116 -229.5t292 -83.5q203 0 397 105zM1158 1795q0 -56 -39 -95.5
t-95 -39.5t-95.5 39.5t-39.5 95.5t39.5 95.5t95.5 39.5t95 -39.5t39 -95.5z" />
    <glyph glyph-name="aring" unicode="&#xe5;" horiz-adv-x="1558" 
d="M1132 720v119q0 102 -22 175t-57 115t-91.5 66.5t-112.5 32t-134 7.5q-157 0 -340 -78l-62 144q212 107 455 107q87 0 163.5 -14t149 -50t124 -91.5t83 -144.5t31.5 -203v-763q-259 -174 -604 -174q-160 0 -290 57t-208.5 169.5t-78.5 262.5q0 214 148.5 337t392.5 123
q127 0 245.5 -47t207.5 -150zM1132 246v249q-148 248 -461 248q-145 0 -244.5 -79t-99.5 -210q0 -146 116 -229.5t293 -83.5q203 0 396 105zM1090 1891q0 -130 -92 -222t-222 -92t-222 92t-92 222t92 222t222 92t222 -91.5t92 -222.5zM582 1891q0 -80 57 -137t137 -57
t137.5 57t57.5 137q0 81 -57 137.5t-138 56.5q-80 0 -137 -56.5t-57 -137.5z" />
    <glyph glyph-name="ae" unicode="&#xe6;" horiz-adv-x="2559" 
d="M2219 304l127 -107q-114 -112 -242.5 -170.5t-296.5 -58.5q-154 0 -285 58.5t-222 165.5v-63q-252 -161 -585 -161q-160 0 -290 57t-208.5 169.5t-78.5 262.5q0 214 148.5 337t392.5 123q128 0 246.5 -47t207.5 -150v119q0 73 -11.5 131.5t-30.5 99.5t-49.5 71t-64 48
t-78.5 28.5t-87.5 14t-96.5 3.5q-157 0 -340 -78l-62 144q212 107 455 107q81 0 152.5 -13t139 -42t121 -81.5t85.5 -125.5q88 124 219.5 193t286.5 69q273 0 450 -198.5t196 -529.5h-1099q0 -244 135 -394.5t353 -150.5q128 0 220.5 39.5t191.5 129.5zM1133 246v249
q-148 248 -462 248q-145 0 -244.5 -79t-99.5 -210q0 -146 116 -229.5t293 -83.5q203 0 397 105zM1330 836h886q-49 198 -166.5 302t-277.5 104q-78 0 -149 -26t-130.5 -75.5t-102 -127.5t-60.5 -177z" />
    <glyph glyph-name="ccedilla" unicode="&#xe7;" horiz-adv-x="1480" 
d="M1341 1227l-132 -112q-152 120 -336 120q-141 0 -262 -74t-191.5 -200t-70.5 -273t70.5 -273t191.5 -200t262 -74q223 0 384 167l137 -107q-85 -94 -198 -153t-240 -74l-78 -123q107 -5 179.5 -64t72.5 -158q0 -67 -27 -117t-74.5 -79t-105 -43t-124.5 -14
q-125 0 -219 50l42 108q92 -41 182 -41q66 0 114.5 28.5t48.5 93.5q0 54 -49.5 92t-108 52.5t-112.5 14.5l116 196q-180 15 -329.5 114t-236 259t-86.5 345q0 196 95.5 361.5t259.5 262t357 96.5q266 0 468 -181z" />
    <glyph glyph-name="egrave" unicode="&#xe8;" horiz-adv-x="1603" 
d="M1462 680h-1099q0 -244 135 -394.5t353 -150.5q128 0 220.5 39.5t191.5 129.5l127 -107q-114 -112 -242.5 -170.5t-296.5 -58.5q-196 0 -352 90.5t-244.5 255t-88.5 374.5q0 157 50.5 292t138 228.5t207 146.5t254.5 53q273 0 450 -198.5t196 -529.5zM373 836h886
q-49 198 -166 302.5t-277 104.5q-162 0 -284.5 -106t-158.5 -301zM1021 1603h-162l-371 456h249z" />
    <glyph glyph-name="eacute" unicode="&#xe9;" horiz-adv-x="1603" 
d="M1462 680h-1099q0 -245 134.5 -395t353.5 -150q128 0 220.5 39.5t191.5 129.5l127 -107q-114 -112 -242.5 -170.5t-296.5 -58.5q-196 0 -352 90.5t-244.5 255t-88.5 374.5q0 157 50.5 292t138 228.5t207 146.5t254.5 53q273 0 450 -198.5t196 -529.5zM373 836h886
q-49 198 -166 302.5t-277 104.5q-162 0 -284.5 -106t-158.5 -301zM865 1603h-163l284 456h250z" />
    <glyph glyph-name="ecircumflex" unicode="&#xea;" horiz-adv-x="1603" 
d="M1462 680h-1099q0 -245 134.5 -395t353.5 -150q128 0 220.5 39.5t191.5 129.5l127 -107q-114 -112 -242.5 -170.5t-296.5 -58.5q-196 0 -352 90.5t-244.5 255t-88.5 374.5q0 157 50.5 292t138 228.5t207 146.5t254.5 53q273 0 450 -198.5t196 -529.5zM931 2059l297 -456
h-167l-220 333l-222 -333h-163l290 456h185zM373 836h886q-49 198 -166.5 302t-276.5 104q-105 0 -195 -44.5t-157 -138t-91 -223.5z" />
    <glyph glyph-name="edieresis" unicode="&#xeb;" horiz-adv-x="1603" 
d="M1462 680h-1099q0 -244 135 -394.5t353 -150.5q128 0 220.5 39.5t191.5 129.5l127 -107q-114 -112 -242.5 -170.5t-296.5 -58.5q-196 0 -352 90.5t-244.5 255t-88.5 374.5q0 157 50.5 292t138 228.5t207 146.5t254.5 53q273 0 450 -198.5t196 -529.5zM754 1795
q0 -56 -39 -95t-95 -39t-95.5 39t-39.5 95t39.5 95.5t95.5 39.5t95 -39.5t39 -95.5zM1225 1795q0 -56 -39 -95.5t-95 -39.5t-95.5 39.5t-39.5 95.5t39.5 95.5t95.5 39.5t95 -39.5t39 -95.5zM373 836h886q-49 198 -166 302.5t-277 104.5q-162 0 -284.5 -106t-158.5 -301z" />
    <glyph glyph-name="igrave" unicode="&#xec;" horiz-adv-x="668" 
d="M-96 2063h249l285 -456h-163zM245 1376h187v-1376h-187v1376z" />
    <glyph glyph-name="iacute" unicode="&#xed;" horiz-adv-x="667" 
d="M245 1376h186v-1376h-186v1376zM530 2063h249l-371 -456h-162z" />
    <glyph glyph-name="icircumflex" unicode="&#xee;" horiz-adv-x="668" 
d="M725 1608h-167l-220 333l-221 -333h-163l290 456h184zM245 1376h187v-1376h-187v1376z" />
    <glyph glyph-name="idieresis" unicode="&#xef;" horiz-adv-x="667" 
d="M103 1931q56 0 95 -39.5t39 -95.5t-39 -95t-95 -39t-95.5 39t-39.5 95t39.5 95.5t95.5 39.5zM574 1931q56 0 95 -39.5t39 -95.5t-39 -95.5t-95 -39.5t-95.5 39.5t-39.5 95.5t39.5 95.5t95.5 39.5zM245 1376h186v-1376h-186v1376z" />
    <glyph glyph-name="ntilde" unicode="&#xf1;" horiz-adv-x="1738" 
d="M1314 0v695q0 287 -99.5 413t-311.5 126q-93 0 -175.5 -34t-146 -99t-100.5 -167.5t-37 -229.5v-704h-187v1376h187v-218q93 121 226.5 185.5t297.5 64.5q255 0 393.5 -155.5t138.5 -468.5v-784h-186zM1140 1961h132q-14 -146 -76.5 -224t-143.5 -78q-50 0 -89.5 16.5
t-64.5 40.5t-46.5 47.5t-46 40t-51.5 16.5q-85 0 -111 -153h-132q14 145 77 223t143 78q49 0 89 -16.5t65 -40t46.5 -47.5t46.5 -40.5t52 -16.5q86 0 110 154z" />
    <glyph glyph-name="ograve" unicode="&#xf2;" horiz-adv-x="1744" 
d="M872 1408q144 0 276 -57t227.5 -153.5t152 -229.5t56.5 -280t-56.5 -280t-152 -229.5t-227.5 -153.5t-276 -57q-193 0 -356.5 96.5t-259 262t-95.5 361.5t95.5 361.5t259 262t356.5 96.5zM872 1235q-141 0 -261.5 -74t-191 -200t-70.5 -273t70.5 -273t191 -200t261.5 -74
t262 74t191.5 200t70.5 273t-70.5 273t-191.5 200t-262 74zM509 2059h249l285 -456h-163z" />
    <glyph glyph-name="oacute" unicode="&#xf3;" horiz-adv-x="1743" 
d="M872 1408q193 0 356.5 -96.5t259 -262t95.5 -361.5t-95.5 -361.5t-259 -262t-356.5 -96.5t-357 96.5t-259 262t-95 361.5t95 361.5t259 262t357 96.5zM872 1235q-141 0 -262 -74t-191 -200t-70 -273t70 -273t191 -200t262 -74t261.5 74t191 200t70.5 273t-70.5 273
t-191 200t-261.5 74zM1000 2059h249l-370 -456h-163z" />
    <glyph glyph-name="ocircumflex" unicode="&#xf4;" horiz-adv-x="1744" 
d="M872 1408q144 0 276 -57t227.5 -153.5t152 -230t56.5 -279.5q0 -147 -56.5 -280t-152 -229.5t-227.5 -153.5t-276 -57q-193 0 -356.5 96.5t-259 262t-95.5 361.5q0 195 95.5 361t259 262.5t356.5 96.5zM872 1234q-141 0 -261.5 -73.5t-191 -199.5t-70.5 -273t70.5 -273
t191 -200t261.5 -74t262 74t191.5 200t70.5 273q0 110 -42 211t-112 174.5t-167 117t-203 43.5zM1258 1603h-167l-219 333l-222 -333h-164l290 456h185z" />
    <glyph glyph-name="otilde" unicode="&#xf5;" horiz-adv-x="1744" 
d="M1120 1958h132q-14 -145 -77 -223.5t-143 -78.5q-50 0 -89.5 16.5t-64.5 40t-46.5 47.5t-46 40.5t-51.5 16.5q-85 0 -111 -153h-132q14 145 76.5 223t143.5 78q49 0 89 -16.5t65 -40.5t46.5 -47.5t46 -40t51.5 -16.5q87 0 111 154zM1584 688q0 -147 -56.5 -280
t-152 -229.5t-227.5 -153.5t-276 -57q-193 0 -356.5 96.5t-259 262t-95.5 361.5t95.5 361.5t259 262t356.5 96.5q144 0 276 -57t227.5 -153.5t152 -229.5t56.5 -280zM349 688q0 -147 70.5 -273t191 -200t261.5 -74t262 74t191.5 200t70.5 273t-70.5 273t-191.5 200t-262 74
t-261.5 -74t-191 -200t-70.5 -273z" />
    <glyph glyph-name="odieresis" unicode="&#xf6;" horiz-adv-x="1744" 
d="M638 1930q56 0 94.5 -39.5t38.5 -95.5t-38.5 -95t-94.5 -39t-96 39t-40 95t40 95.5t96 39.5zM872 1408q144 0 276 -57t227.5 -153.5t152 -229.5t56.5 -280t-56.5 -280t-152 -229.5t-227.5 -153.5t-276 -57q-193 0 -356.5 96.5t-259 262t-95.5 361.5t95.5 361.5t259 262
t356.5 96.5zM872 1235q-141 0 -261.5 -73.5t-191 -199.5t-70.5 -274q0 -147 70.5 -273t191 -200t261.5 -74t262 74t191.5 200t70.5 273q0 110 -42 211.5t-112 175t-167 117t-203 43.5zM1108 1930q56 0 95 -39.5t39 -95.5t-39 -95.5t-95 -39.5t-95.5 39.5t-39.5 95.5
t39.5 95.5t95.5 39.5z" />
    <glyph glyph-name="divide" unicode="&#xf7;" horiz-adv-x="1913" 
d="M958 409q67 0 114 -47t47 -114t-47 -114t-114 -47t-114.5 47t-47.5 114t47.5 114t114.5 47zM958 1795q67 0 114 -47t47 -114t-47 -114.5t-114 -47.5t-114.5 47.5t-47.5 114.5t47.5 114t114.5 47zM161 1031h1593v-180h-1593v180z" />
    <glyph glyph-name="oslash" unicode="&#xf8;" horiz-adv-x="1744" 
d="M1265 1285l141 175l108 -87l-141 -175q99 -99 155 -231t56 -279t-56.5 -280t-152 -229.5t-227.5 -153.5t-276 -57q-215 0 -393 121l-140 -174l-109 87l141 175q-99 99 -154.5 231t-55.5 280q0 195 95.5 361t259 262.5t356.5 96.5q214 0 393 -123zM872 1234
q-141 0 -261.5 -73.5t-191 -199.5t-70.5 -273q0 -211 137 -366l668 823q-129 89 -282 89zM1259 1053l-668 -824q130 -88 281 -88q106 0 203 43.5t167 117t112 175t42 211.5q0 209 -137 365z" />
    <glyph glyph-name="ugrave" unicode="&#xf9;" horiz-adv-x="1704" 
d="M1263 246v1130h186v-1235q-259 -173 -575 -173q-103 0 -188 15.5t-170 58.5t-142.5 112.5t-93.5 185.5t-36 270v766h186v-701q0 -129 24.5 -225.5t65 -154.5t101 -93.5t122.5 -48t140 -12.5q186 0 380 105zM720 2063l284 -456h-163l-370 456h249z" />
    <glyph glyph-name="uacute" unicode="&#xfa;" horiz-adv-x="1704" 
d="M1263 246v1130h186v-1235q-259 -173 -575 -173q-103 0 -188 15.5t-170 58.5t-142.5 112.5t-93.5 185.5t-36 270v766h186v-701q0 -129 24.5 -225.5t65 -154.5t101 -93.5t122.5 -48t140 -12.5q186 0 380 105zM1235 2063l-371 -456h-163l285 456h249z" />
    <glyph glyph-name="ucircumflex" unicode="&#xfb;" horiz-adv-x="1704" 
d="M1263 246v1130h186v-1235q-259 -173 -575 -173q-103 0 -188 15.5t-170 58.5t-142.5 112.5t-93.5 185.5t-36 270v766h187v-701q0 -129 24.5 -225.5t65 -154.5t100.5 -93.5t122 -48t140 -12.5q186 0 380 105zM1065 1608l-219 333l-222 -333h-163l290 456h184l297 -456h-167
z" />
    <glyph glyph-name="udieresis" unicode="&#xfc;" horiz-adv-x="1704" 
d="M1263 246v1130h186v-1235q-259 -173 -575 -173q-103 0 -188 15.5t-170 58.5t-142.5 112.5t-93.5 185.5t-36 270v766h187v-701q0 -129 24.5 -225.5t65 -154.5t100.5 -93.5t122 -48t140 -12.5q186 0 380 105zM745 1796q0 -56 -38 -95t-94 -39t-96 39t-40 95t40 95.5
t96 39.5t94 -39t38 -96zM1217 1796q0 -56 -39 -95.5t-95 -39.5t-95.5 39.5t-39.5 95.5t39.5 95.5t95.5 39.5t95 -39.5t39 -95.5z" />
    <glyph glyph-name="yacute" unicode="&#xfd;" horiz-adv-x="1499" 
d="M1263 1376h201l-1074 -2135h-202l461 917l-612 1218h200l513 -1020zM938 2063h249l-371 -456h-162z" />
    <glyph glyph-name="ydieresis" unicode="&#xff;" horiz-adv-x="1499" 
d="M549 1931q56 0 94.5 -39t38.5 -95t-38.5 -95.5t-94.5 -39.5t-96 39.5t-40 95.5t40 95t96 39zM1019 1931q56 0 95 -39.5t39 -95.5t-39 -95t-95 -39t-95 39t-39 95t39 95.5t95 39.5zM1263 1376h201l-1074 -2135h-202l462 917l-613 1218h200l513 -1020z" />
    <glyph glyph-name="Abreve" unicode="&#x102;" horiz-adv-x="1936" 
d="M631 2771h133q15 -86 78.5 -143t169.5 -57q108 0 171 57t78 143h133q-16 -146 -110.5 -236.5t-271.5 -90.5q-176 0 -270.5 90.5t-110.5 236.5zM1559 425h-1164l-185 -425h-210l1010 2304l924 -2304h-206zM1003 1819l-530 -1219h1015z" />
    <glyph glyph-name="abreve" unicode="&#x103;" horiz-adv-x="1558" 
d="M1132 720v119q0 102 -22 175t-57 115t-91.5 66.5t-112.5 32t-134 7.5q-157 0 -340 -78l-62 144q212 107 455 107q87 0 163.5 -14t149 -50t124 -91.5t83 -144.5t31.5 -203v-763q-259 -174 -604 -174q-160 0 -290 57t-208.5 169.5t-78.5 262.5q0 214 148.5 337t392.5 123
q127 0 245.5 -47t207.5 -150zM1036 1994h135q-16 -168 -111 -272t-271 -104q-91 0 -161.5 29t-115.5 81.5t-71 118.5t-34 147h133q14 -99 77.5 -165t171.5 -66q106 0 169.5 66t77.5 165zM1132 246v249q-148 248 -461 248q-145 0 -244.5 -79t-99.5 -210q0 -146 116 -229.5
t293 -83.5q203 0 396 105z" />
    <glyph glyph-name="Aogonek" unicode="&#x104;" horiz-adv-x="1936" 
d="M2038 -440l40 -104q-49 -37 -115.5 -58.5t-127.5 -21.5q-119 0 -196.5 68.5t-77.5 184.5q0 99 58.5 196.5t139.5 174.5h-30l-170 425h-1164l-185 -425h-210l1010 2304l924 -2304h-49q-162 -171 -162 -306q0 -78 45.5 -124t122.5 -46q83 0 147 36zM1488 600l-484 1219
l-531 -1219h1015z" />
    <glyph glyph-name="aogonek" unicode="&#x105;" horiz-adv-x="1557" 
d="M374 1157l-62 144q212 107 455 107q87 0 163.5 -14t149 -50t124 -91.5t83 -144.5t31.5 -203v-763q-64 -44 -154 -84q-137 -157 -137 -275q0 -78 45.5 -124t123.5 -46q83 0 146 36l40 -104q-49 -37 -115.5 -58.5t-127.5 -21.5q-120 0 -197 68t-77 185q0 134 113 278
q-129 -28 -264 -28q-160 0 -289.5 57t-208 169.5t-78.5 262.5q0 214 148 337t392 123q128 0 246.5 -47t207.5 -150v119q0 73 -11.5 131.5t-30.5 99.5t-49.5 71t-64 48t-78.5 28.5t-87.5 14t-96.5 3.5q-157 0 -340 -78zM327 454q0 -146 116 -229.5t292 -83.5q203 0 397 105
v249q-148 248 -462 248q-144 0 -243.5 -79t-99.5 -210z" />
    <glyph glyph-name="Cacute" unicode="&#x106;" horiz-adv-x="2303" 
d="M2180 1922l-138 -116q-136 133 -318 209t-381 76q-158 0 -306 -49t-266.5 -139.5t-207.5 -210t-137.5 -267t-48.5 -305.5t48.5 -305.5t137.5 -267t207.5 -210t266.5 -139.5t306 -49q204 0 389 79t323 219l127 -127q-161 -167 -378.5 -259.5t-460.5 -92.5
q-236 0 -450.5 91.5t-370 245.5t-247.5 367.5t-92 447.5t92 447t247.5 367.5t370 246t450.5 91.5q240 0 457.5 -92.5t379.5 -257.5zM1691 2812l-398 -368h-173l304 368h267z" />
    <glyph glyph-name="cacute" unicode="&#x107;" horiz-adv-x="1480" 
d="M1341 1227l-132 -112q-152 120 -336 120q-141 0 -262 -74t-191.5 -200t-70.5 -273t70.5 -273t191.5 -200t262 -74q223 0 384 167l137 -107q-99 -109 -234.5 -171t-286.5 -62q-193 0 -357 96.5t-259.5 262t-95.5 361.5t95.5 361.5t259.5 262t357 96.5q266 0 468 -181z
M1164 2059l-370 -456h-163l284 456h249z" />
    <glyph glyph-name="Ccaron" unicode="&#x10c;" horiz-adv-x="2303" 
d="M2179 1922l-137 -116q-136 134 -318 209.5t-382 75.5q-158 0 -305.5 -49t-266 -139.5t-207.5 -210t-137.5 -267t-48.5 -305.5t48.5 -305.5t137.5 -267t207.5 -210t266 -139.5t305.5 -49q204 0 389 79t323 219l128 -127q-162 -167 -379.5 -259.5t-460.5 -92.5
q-235 0 -450 91.5t-370 245.5t-247 367.5t-92 447.5t92 447t247 367.5t370 246t450 91.5q240 0 457.5 -92.5t379.5 -257.5zM1502 2813h175l-316 -368h-188l-320 368h176l238 -261z" />
    <glyph glyph-name="ccaron" unicode="&#x10d;" horiz-adv-x="1480" 
d="M1341 1227l-132 -112q-152 120 -336 120q-141 0 -262 -74t-191.5 -200t-70.5 -273t70.5 -273t191.5 -200t262 -74q223 0 384 167l137 -107q-99 -109 -234.5 -171t-286.5 -62q-193 0 -357 96.5t-259.5 262t-95.5 361.5t95.5 361.5t259.5 262t357 96.5q266 0 468 -181z
M1023 2059h165l-294 -454h-182l-295 454h166l222 -334z" />
    <glyph glyph-name="Dcaron" unicode="&#x10e;" horiz-adv-x="2252" 
d="M897 0h-570v2240h442q275 0 512 -78t410 -220.5t272 -354.5t99 -467q0 -231 -84 -435.5t-233.5 -356t-369.5 -240t-478 -88.5zM776 2064h-257v-1888h385q207 0 387 74t306 200t198.5 300.5t72.5 369.5q0 177 -54.5 329t-154 264t-235 191.5t-300.5 119.5t-348 40z
M1342 2801h176l-317 -368h-188l-320 368h177l238 -261z" />
    <glyph glyph-name="dcaron" unicode="&#x10f;" horiz-adv-x="1759" 
d="M1317 1238v1258h187v-2355q-259 -173 -592 -173q-183 0 -325.5 54t-233.5 153t-138 233.5t-47 298.5q0 148 47.5 276t134.5 222.5t217 148.5t286 54q240 0 464 -170zM1317 246v775q-190 214 -449 214q-146 0 -262.5 -66.5t-183.5 -188t-67 -277.5q0 -265 149.5 -413.5
t411.5 -148.5q208 0 401 105zM1973 2496l-193 -535h-138l141 535h190z" />
    <glyph glyph-name="Eogonek" unicode="&#x118;" horiz-adv-x="1534" 
d="M1366 2064h-846v-771h718v-175h-718v-942h900v-176h-139q-163 -170 -163 -306q0 -78 45.5 -124t123.5 -46q83 0 146 36l40 -104q-49 -37 -115.5 -58.5t-127.5 -21.5q-119 0 -196.5 68.5t-77.5 184.5q0 99 58.5 196.5t139.5 174.5h-827v2240h1039v-176z" />
    <glyph glyph-name="eogonek" unicode="&#x119;" horiz-adv-x="1603" 
d="M1461 680h-1099q0 -244 135 -394.5t353 -150.5q128 0 220.5 39.5t191.5 129.5l127 -107q-183 -183 -411 -219q-142 -159 -142 -284q0 -78 45.5 -124t123.5 -46q83 0 147 36l39 -104q-49 -38 -115 -59t-128 -21q-120 0 -197 68t-77 185q0 89 47.5 177t117.5 162
q-193 3 -346.5 94t-240.5 255t-87 371q0 209 87 374.5t235 255.5t328 90q274 0 451 -198.5t195 -529.5zM1258 836q-49 199 -166 302.5t-277 103.5q-105 0 -195 -44t-156.5 -137.5t-90.5 -224.5h885z" />
    <glyph glyph-name="Ecaron" unicode="&#x11a;" horiz-adv-x="1534" 
d="M327 2240h1038v-176h-845v-771h718v-175h-718v-942h900v-176h-1093v2240zM856 2550l234 261h175l-315 -368h-189l-319 368h176z" />
    <glyph glyph-name="ecaron" unicode="&#x11b;" horiz-adv-x="1603" 
d="M1461 680h-1098q0 -244 134.5 -394.5t352.5 -150.5q128 0 220.5 39.5t191.5 129.5l128 -107q-115 -112 -243.5 -170.5t-296.5 -58.5q-195 0 -351 90.5t-244.5 255t-88.5 374.5q0 157 50.5 292t138 228.5t206.5 146.5t254 53q274 0 451 -198.5t195 -529.5zM597 2059
l222 -334l219 334h164l-293 -454h-183l-294 454h165zM373 836h885q-49 199 -166 303t-277 104q-105 0 -195 -44.5t-156.5 -138t-90.5 -224.5z" />
    <glyph glyph-name="Gbreve" unicode="&#x11e;" horiz-adv-x="2528" 
d="M2167 783h-772v176h1004q-11 -210 -95.5 -393t-224.5 -315t-335.5 -207.5t-419.5 -75.5q-234 0 -447.5 91.5t-367.5 245.5t-245.5 367.5t-91.5 447.5q0 156 41.5 305.5t115.5 275.5t180.5 232.5t233 181t275.5 116t306 41.5q276 0 518.5 -122t404.5 -335l-140 -116
q-135 181 -342 286.5t-441 105.5q-157 0 -303 -49t-264 -139t-206.5 -209.5t-136.5 -267.5t-48 -306t48 -306t136.5 -267.5t206.5 -209.5t264 -139t303 -49q152 0 289.5 40.5t250.5 118t192.5 199.5t110.5 276zM949 2799h133q15 -86 78.5 -143t170.5 -57t170 57t78 143h133
q-16 -146 -110.5 -236t-270.5 -90q-177 0 -271.5 90t-110.5 236z" />
    <glyph glyph-name="gbreve" unicode="&#x11f;" horiz-adv-x="1761" 
d="M1321 -88v226q-226 -170 -465 -170q-159 0 -289.5 55t-216.5 150.5t-132.5 222.5t-46.5 273q0 164 47 298.5t138 233.5t234 153t326 54q334 0 591 -173v-1346q0 -334 -171 -507t-485 -173q-132 0 -269 35.5t-252 97.5l65 155q104 -51 231.5 -82.5t234.5 -31.5
q120 0 209.5 39t143.5 111t80.5 166.5t26.5 212.5zM1138 1994h134q-8 -80 -33.5 -146.5t-71 -118.5t-116 -81t-161.5 -29q-176 0 -271 103.5t-111 271.5h133q15 -99 78.5 -164.5t170.5 -65.5t170 65.5t78 164.5zM1321 355v775q-194 105 -402 105q-261 0 -410.5 -148.5
t-149.5 -413.5q0 -236 144.5 -384t368.5 -148q257 0 449 214z" />
    <glyph glyph-name="Idotaccent" unicode="&#x130;" horiz-adv-x="841" 
d="M422 2767q58 0 98.5 -40.5t40.5 -98.5t-40.5 -99t-98.5 -41q-59 0 -100 41t-41 99t41 98.5t100 40.5zM328 2240h193v-2240h-193v2240z" />
    <glyph glyph-name="dotlessi" unicode="&#x131;" horiz-adv-x="668" 
d="M245 1376h187v-1376h-187v1376z" />
    <glyph glyph-name="Lacute" unicode="&#x139;" horiz-adv-x="1268" 
d="M327 2240h192v-2064h727v-176h-919v2240zM652 2810h267l-398 -368h-173z" />
    <glyph glyph-name="lacute" unicode="&#x13a;" horiz-adv-x="690" 
d="M258 2496h186v-2496h-186v2496zM573 3046h267l-396 -368h-175z" />
    <glyph glyph-name="Lcaron" unicode="&#x13d;" horiz-adv-x="1268" 
d="M327 2240h192v-2064h727v-176h-919v2240zM941 2339h190l-192 -535h-139z" />
    <glyph glyph-name="lcaron" unicode="&#x13e;" horiz-adv-x="690" 
d="M258 2496h186v-2496h-186v2496zM731 2496h189l-192 -535h-139z" />
    <glyph glyph-name="Lslash" unicode="&#x141;" horiz-adv-x="1285" 
d="M121 950l223 162v1128h192v-990l379 274v-182l-379 -274v-892h703v-176h-895v930l-223 -160v180z" />
    <glyph glyph-name="lslash" unicode="&#x142;" horiz-adv-x="878" 
d="M350 1151l-251 -217v189l251 218v1155h187v-995l255 221v-191l-255 -221v-1310h-187v1151z" />
    <glyph glyph-name="Nacute" unicode="&#x143;" horiz-adv-x="2608" 
d="M2081 412v1828h193v-2304l-1755 1893v-1829h-192v2304zM1480 2874h267l-396 -368h-175z" />
    <glyph glyph-name="nacute" unicode="&#x144;" horiz-adv-x="1738" 
d="M1313 0v695q0 288 -99.5 413.5t-311.5 125.5q-93 0 -175.5 -34t-146 -99t-100.5 -167.5t-37 -229.5v-704h-186v1376h186v-217q92 120 226 184.5t298 64.5q255 0 394 -155.5t139 -468.5v-784h-187zM1008 2059h249l-371 -456h-162z" />
    <glyph glyph-name="Ncaron" unicode="&#x147;" horiz-adv-x="2608" 
d="M2081 412v1828h193v-2304l-1755 1893v-1829h-192v2304zM1305 2604l234 261h176l-316 -368h-189l-319 368h176z" />
    <glyph glyph-name="ncaron" unicode="&#x148;" horiz-adv-x="1738" 
d="M1313 0v695q0 288 -99.5 413.5t-311.5 125.5q-93 0 -175 -34t-146 -99t-101 -167.5t-37 -229.5v-704h-186v1376h186v-217q92 120 226 184.5t298 64.5q255 0 394 -155.5t139 -468.5v-784h-187zM883 1725l219 334h164l-293 -454h-183l-295 454h166z" />
    <glyph glyph-name="Ohungarumlaut" unicode="&#x150;" horiz-adv-x="2674" 
d="M1334 2272q234 0 446.5 -91.5t366.5 -245.5t245 -367.5t91 -447.5t-91 -447.5t-245 -367.5t-366.5 -245.5t-446.5 -91.5t-447 91.5t-367 245.5t-245 367.5t-91 447.5t91 447.5t245 367.5t367 245.5t447 91.5zM1334 2092q-195 0 -372.5 -77.5t-305.5 -208t-203.5 -310
t-75.5 -376.5t75.5 -376.5t204 -310t305.5 -207.5t372 -77q156 0 302 49t263.5 139.5t206 209.5t136.5 267t48 306q0 197 -75.5 376.5t-203.5 310t-305 208t-372 77.5zM1314 2836h263l-388 -368h-163zM1765 2836h262l-387 -368h-165z" />
    <glyph glyph-name="ohungarumlaut" unicode="&#x151;" horiz-adv-x="1743" 
d="M872 1408q193 0 356.5 -96.5t259 -262.5t95.5 -361q0 -196 -95.5 -361.5t-259 -262t-356.5 -96.5t-356.5 96.5t-259 262t-95.5 361.5q0 195 95.5 361t259 262.5t356.5 96.5zM872 1235q-141 0 -261.5 -74t-191 -200t-70.5 -273t70.5 -273t191 -200t261.5 -74t262 74
t191.5 200t70.5 273t-70.5 273t-191.5 200t-262 74zM790 2072h245l-362 -456h-152zM1211 2072h245l-362 -456h-153z" />
    <glyph glyph-name="OE" unicode="&#x152;" horiz-adv-x="3497" 
d="M3330 2064h-847v-771h719v-175h-719v-942h902v-176h-1094v493l-2 1q-152 -240 -405 -383t-550 -143q-234 0 -447 91.5t-367 245.5t-245 367.5t-91 447.5t91 447t245 367.5t367 246t447 91.5q297 0 550 -143t405 -383l2 1v493h1039v-176zM1334 2091q-156 0 -302.5 -49
t-264 -139.5t-206 -210t-136.5 -267t-48 -305.5q0 -197 75.5 -376.5t204 -310t305.5 -207.5t372 -77t372 77t305 207.5t203.5 310t75.5 376.5t-75.5 376.5t-203.5 310t-305 207.5t-372 77z" />
    <glyph glyph-name="oe" unicode="&#x153;" horiz-adv-x="2826" 
d="M2613 197q-114 -112 -242.5 -170.5t-296.5 -58.5q-191 0 -345.5 98t-241.5 264q-93 -165 -256.5 -263.5t-358.5 -98.5q-193 0 -356.5 96.5t-259 262t-95.5 361.5t95.5 361.5t259 262t356.5 96.5q194 0 357.5 -98t256.5 -263q83 166 230 263.5t323 97.5q273 0 450 -198.5
t196 -529.5h-1099q0 -244 135 -394.5t353 -150.5q128 0 220.5 39.5t191.5 129.5zM349 688q0 -147 70.5 -273t191 -200t261.5 -74t262 74t191.5 200t70.5 273t-70.5 273t-191.5 200t-262 74t-261.5 -74t-191 -200t-70.5 -273zM1597 836h885q-49 198 -166 302t-277 104
q-105 0 -195 -44t-156.5 -137.5t-90.5 -224.5z" />
    <glyph glyph-name="Racute" unicode="&#x154;" horiz-adv-x="1688" 
d="M921 1048h-402v-1048h-192v2240h539q187 0 336.5 -70t238 -207t88.5 -319q0 -197 -106 -348t-306 -220l411 -1076h-212zM866 2064h-347v-841h347q93 0 174.5 24t148.5 73t106 132t39 192q0 87 -26 158.5t-70 119.5t-104.5 80.5t-127.5 47t-140 14.5zM985 2800h266
l-396 -368h-174z" />
    <glyph glyph-name="racute" unicode="&#x155;" horiz-adv-x="1079" 
d="M257 0v1376h185v-218q194 250 429 250q105 0 192 -55l-88 -164q-80 45 -163 45q-152 0 -261 -140.5t-109 -362.5v-731h-185zM759 2075h249l-370 -456h-163z" />
    <glyph glyph-name="Rcaron" unicode="&#x158;" horiz-adv-x="1688" 
d="M921 1048h-402v-1048h-192v2240h539q187 0 336.5 -70t238 -207t88.5 -319q0 -197 -106 -348t-306 -220l411 -1076h-212zM866 2064h-347v-841h347q93 0 174.5 24t148.5 73t106 132t39 192q0 88 -26 159t-70 119t-104.5 80.5t-127.5 47t-140 14.5zM882 2540l233 261h176
l-316 -368h-188l-320 368h177z" />
    <glyph glyph-name="rcaron" unicode="&#x159;" horiz-adv-x="1079" 
d="M257 0v1376h185v-218q193 250 429 250q105 0 192 -55l-88 -163q-81 44 -163 44q-152 0 -261 -140t-109 -363v-731h-185zM664 1725l219 334h164l-294 -454h-182l-295 454h165z" />
    <glyph glyph-name="Sacute" unicode="&#x15a;" horiz-adv-x="1510" 
d="M1245 2002l-133 -108q-98 105 -188 156t-185 51q-138 0 -234 -80t-96 -234q0 -79 33 -152t89.5 -132.5t129 -117t153 -112.5l161.5 -112.5t153.5 -123t129 -137t89.5 -163t33 -193.5q0 -255 -161.5 -415.5t-433.5 -160.5q-230 0 -394 102t-261 285l157 89
q87 -149 207 -223t296 -74q104 0 194 45t146 129t56 189q0 93 -33 175.5t-89 146.5t-128.5 123.5t-152.5 114.5l-160 110.5t-152.5 120.5t-128.5 136t-89 164.5t-33 199.5q0 131 67 239.5t181 170t249 61.5q154 0 283 -66.5t245 -203.5zM1199 2812l-397 -368h-175l305 368
h267z" />
    <glyph glyph-name="sacute" unicode="&#x15b;" horiz-adv-x="1150" 
d="M887 1282l-102 -123q-112 86 -208 86q-82 0 -131.5 -43.5t-49.5 -127.5q0 -51 34.5 -96.5t89.5 -83t121.5 -76t133 -83.5t121.5 -97t89.5 -126t34.5 -160q0 -184 -115.5 -284t-344.5 -100q-263 0 -465 197l116 123q90 -74 171.5 -114t191.5 -40q126 0 191 61.5t65 171.5
q0 48 -21 90t-57 75.5t-82.5 65t-98 61.5l-102.5 62t-97.5 70t-82.5 80.5t-57 99t-21 120.5q0 148 100.5 232.5t251.5 84.5q88 0 174 -33.5t150 -92.5zM953 2059l-371 -456h-162l284 456h249z" />
    <glyph glyph-name="Scedilla" unicode="&#x15e;" horiz-adv-x="1510" 
d="M474 -574l41 108q92 -41 182 -41q66 0 114.5 28.5t48.5 93.5q0 54 -49.5 92t-108 52.5t-112.5 14.5l117 198q-199 17 -344 117t-233 266l157 89q87 -149 207 -223t296 -74q104 0 194 45t146 129t56 189q0 93 -33 175.5t-89 146.5t-128.5 123.5t-152.5 114.5l-160 110.5
t-152.5 120.5t-128.5 136t-89 164.5t-33 199.5q0 131 67 239.5t181 170t249 61.5q154 0 283 -66.5t245 -203.5l-133 -108q-98 105 -188 156t-185 51q-138 0 -234 -80t-96 -234q0 -79 33 -152t89.5 -132.5t129 -117t153 -112.5l161.5 -112.5t153.5 -123t129 -137t89.5 -163
t33 -193.5q0 -240 -143.5 -397.5t-389.5 -176.5l-76 -119q107 -5 179.5 -64t72.5 -158q0 -67 -27 -117t-74.5 -79t-104.5 -43t-124 -14q-127 0 -219 50z" />
    <glyph glyph-name="scedilla" unicode="&#x15f;" horiz-adv-x="1150" 
d="M286 -574l41 108q92 -41 182 -41q65 0 113.5 28.5t48.5 93.5q0 54 -49.5 92t-107.5 52.5t-111 14.5l115 196q-240 15 -423 195l116 123q90 -74 171.5 -114t191.5 -40q126 0 191 61.5t65 171.5q0 48 -21 90t-57 75.5t-82.5 65t-98 61.5l-102.5 62t-97.5 70t-82.5 80.5
t-57 99t-21 120.5q0 148 100.5 232.5t251.5 84.5q88 0 174 -33.5t150 -92.5l-102 -123q-115 86 -208 86q-82 0 -131.5 -44t-49.5 -128q0 -50 34.5 -95.5t89.5 -83t121.5 -76t133 -83.5t121.5 -97t89.5 -126t34.5 -160q0 -162 -90 -259.5t-269 -118.5l-79 -123
q107 -5 179.5 -64t72.5 -158q0 -67 -27 -117t-74.5 -79t-104.5 -43t-124 -14q-126 0 -218 50z" />
    <glyph glyph-name="Scaron" unicode="&#x160;" horiz-adv-x="1510" 
d="M1245 2002l-133 -108q-98 105 -188 156t-185 51q-138 0 -234 -80t-96 -234q0 -79 33 -152t89.5 -132.5t129 -117t153 -112.5l161.5 -112.5t153.5 -123t129 -137t89.5 -163t33 -193.5q0 -255 -161.5 -415.5t-433.5 -160.5q-230 0 -394 102t-261 285l157 89
q87 -149 207 -223t296 -74q104 0 194 45t146 129t56 189q0 93 -33 175.5t-89 146.5t-128.5 123.5t-152.5 114.5l-160 111t-152.5 120.5t-128.5 136t-89 165t-33 199.5q0 198 145 334t352 136q154 0 283 -66.5t245 -203.5zM1011 2813h176l-316 -368h-189l-319 368h176
l238 -261z" />
    <glyph glyph-name="scaron" unicode="&#x161;" horiz-adv-x="1149" 
d="M886 1282l-101 -123q-115 86 -209 86q-81 0 -130.5 -43.5t-49.5 -127.5q0 -51 34.5 -96.5t89.5 -83t121.5 -76t132.5 -83.5t121 -97t89.5 -126t34.5 -160q0 -184 -115 -284t-344 -100q-264 0 -466 197l117 123q90 -74 171.5 -114t190.5 -40q126 0 191.5 61.5t65.5 171.5
q0 48 -21 90t-57 75.5t-82.5 65t-98 61.5l-102.5 62t-97.5 70t-82.5 80.5t-57 99t-21 120.5q0 148 100.5 232.5t251.5 84.5q87 0 173 -33.5t150 -92.5zM777 2059h164l-294 -454h-182l-294 454h165l222 -334z" />
    <glyph glyph-name="uni0162" unicode="&#x162;" horiz-adv-x="1357" 
d="M1335 2064h-558v-2064h-193v2064h-559v176h1310v-176zM589 -229h178l-179 -497h-130z" />
    <glyph glyph-name="uni0163" unicode="&#x163;" horiz-adv-x="798" 
d="M715 1204h-288v-1204h-186v1881h186v-505h288v-172zM246 -206h178l-178 -497h-131z" />
    <glyph glyph-name="Tcaron" unicode="&#x164;" horiz-adv-x="1357" 
d="M1336 2064h-559v-2064h-193v2064h-559v176h1311v-176zM685 2550l234 261h176l-316 -368h-189l-319 368h176z" />
    <glyph glyph-name="tcaron" unicode="&#x165;" horiz-adv-x="799" 
d="M716 1204h-288v-1204h-187v1881h187v-505h288v-172zM783 2228h189l-192 -535h-139z" />
    <glyph glyph-name="Uring" unicode="&#x16e;" horiz-adv-x="2258" 
d="M1750 311v1929h192v-2039q-159 -108 -352 -170.5t-383 -62.5q-114 0 -209 10t-189 36t-167.5 67.5t-137 108t-105 155t-65 210t-23.5 270.5v1415h193v-1352q0 -114 14.5 -210t38 -167t61.5 -128t77 -95t92 -65.5t100 -42.5t107.5 -23.5t106.5 -11t106 -2.5q281 0 543 168
zM1441 2690q0 -130 -92.5 -222t-222.5 -92t-221.5 92t-91.5 222t91.5 222t221.5 92q131 0 223 -92t92 -222zM933 2690q0 -80 56.5 -137t136.5 -57q81 0 138 57t57 137q0 81 -57 137.5t-138 56.5q-80 0 -136.5 -56.5t-56.5 -137.5z" />
    <glyph glyph-name="uring" unicode="&#x16f;" horiz-adv-x="1704" 
d="M1263 246v1130h186v-1235q-259 -173 -575 -173q-103 0 -188 15.5t-170 58.5t-142.5 112.5t-93.5 185.5t-36 270v766h186v-701q0 -129 24.5 -225.5t65 -154.5t101 -93.5t122.5 -48t140 -12.5q186 0 380 105zM1161 1872q0 -130 -92.5 -222t-222.5 -92t-221.5 92t-91.5 222
t91.5 222t221.5 92q131 0 223 -92t92 -222zM653 1872q0 -80 56.5 -137t136.5 -57q81 0 138 57t57 137q0 81 -57 137.5t-138 56.5q-80 0 -136.5 -56.5t-56.5 -137.5z" />
    <glyph glyph-name="Uhungarumlaut" unicode="&#x170;" horiz-adv-x="2258" 
d="M1750 311v1929h192v-2039q-158 -108 -351 -170.5t-383 -62.5q-114 0 -209.5 10t-189.5 36t-167 67.5t-137 108t-105.5 155t-65 210t-23.5 270.5v1415h193v-1352q0 -114 14.5 -210t38 -167t61.5 -128t77 -95t92.5 -65.5t100 -42.5t107 -23.5t107 -11t106.5 -2.5
q280 0 542 168zM1304 2834l-387 -368h-164l288 368h263zM1754 2834l-387 -368h-165l290 368h262z" />
    <glyph glyph-name="uhungarumlaut" unicode="&#x171;" horiz-adv-x="1704" 
d="M1263 246v1130h186v-1235q-259 -173 -575 -173q-103 0 -188 15.5t-170 58.5t-142.5 112.5t-93.5 185.5t-36 270v766h186v-701q0 -129 24.5 -225.5t65 -154.5t101 -93.5t122.5 -48t139 -12.5q187 0 381 105zM1008 2077l-362 -456h-153l270 456h245zM1429 2077l-362 -456
h-154l270 456h246z" />
    <glyph glyph-name="Ydieresis" unicode="&#x178;" horiz-adv-x="1606" 
d="M588 2745q56 0 95 -39.5t39 -95.5t-39 -95t-95 -39t-95.5 39t-39.5 95t39.5 95.5t95.5 39.5zM1059 2745q56 0 94.5 -39.5t38.5 -95.5t-38.5 -95.5t-94.5 -39.5t-95.5 39.5t-39.5 95.5t39.5 95.5t95.5 39.5zM903 1059v-1059h-193v1059l-718 1181h223l592 -970l587 970h223
z" />
    <glyph glyph-name="Zacute" unicode="&#x179;" horiz-adv-x="1515" 
d="M358 176h1087v-176h-1392l1068 2064h-991v176h1296zM943 2810h267l-398 -368h-173z" />
    <glyph glyph-name="zacute" unicode="&#x17a;" horiz-adv-x="1409" 
d="M401 172h922v-172h-1267l890 1203h-763v173h1109zM881 2063h249l-371 -456h-162z" />
    <glyph glyph-name="Zdotaccent" unicode="&#x17b;" horiz-adv-x="1514" 
d="M779 2767q58 0 98.5 -40.5t40.5 -98.5t-40.5 -99t-98.5 -41q-59 0 -100 41t-41 99t41 98.5t100 40.5zM357 176h1088v-176h-1393l1069 2065h-992v175h1297z" />
    <glyph glyph-name="zdotaccent" unicode="&#x17c;" horiz-adv-x="1410" 
d="M717 1943q58 0 98.5 -40.5t40.5 -98.5q0 -59 -40.5 -99.5t-98.5 -40.5q-59 0 -100 41t-41 99t41 98.5t100 40.5zM402 172h922v-172h-1267l890 1204h-764v172h1110z" />
    <glyph glyph-name="Zcaron" unicode="&#x17d;" horiz-adv-x="1515" 
d="M358 176h1087v-176h-1392l1068 2064h-991v176h1296zM806 2550l234 261h176l-317 -368h-188l-320 368h176z" />
    <glyph glyph-name="zcaron" unicode="&#x17e;" horiz-adv-x="1409" 
d="M401 172h922v-172h-1267l890 1203h-763v173h1109zM734 1729l220 335h164l-294 -455h-183l-294 455h165z" />
    <glyph glyph-name="uni0218" unicode="&#x218;" horiz-adv-x="1511" 
d="M1246 2002l-134 -107q-99 105 -188 156t-185 51q-88 0 -160.5 -32t-120.5 -105t-48 -178q0 -79 33 -152t89.5 -132.5t129 -117t153.5 -112.5l161.5 -112.5t153 -123t129 -137t89.5 -163t33 -193.5q0 -255 -161.5 -415.5t-433.5 -160.5q-230 0 -394.5 102t-260.5 285
l157 89q86 -149 206 -223t296 -74q104 0 194 45t146 129t56 189q0 93 -33 175.5t-89 146.5t-128 123.5t-152.5 114.5l-160.5 111t-152 120.5t-128 136t-89 165t-33 199.5q0 131 66.5 239.5t180.5 169.5t249 61q155 0 284 -66t245 -204zM913 -224l-178 -498h-130l131 498h177
z" />
    <glyph glyph-name="uni0219" unicode="&#x219;" horiz-adv-x="1150" 
d="M887 1282l-102 -123q-112 86 -209 86q-81 0 -130.5 -43.5t-49.5 -127.5q0 -51 34.5 -96.5t89.5 -83t121.5 -76t133 -83.5t121.5 -97t89.5 -126t34.5 -160q0 -184 -115.5 -284t-344.5 -100q-265 0 -465 197l116 123q90 -74 171.5 -114t190.5 -40q127 0 192 61.5t65 171.5
q0 48 -21 90t-57 75.5t-82.5 65t-98 61.5l-102.5 62t-97.5 70t-82.5 80.5t-57 99t-21 120.5q0 148 100.5 232.5t251.5 84.5q88 0 174 -33.5t150 -92.5zM721 -224l-178 -498h-130l130 498h178z" />
    <glyph glyph-name="uni021A" unicode="&#x21a;" horiz-adv-x="1356" 
d="M1335 2064h-558v-2064h-193v2064h-559v176h1310v-176zM589 -229h178l-179 -497h-130z" />
    <glyph glyph-name="uni021B" unicode="&#x21b;" horiz-adv-x="799" 
d="M716 1204h-288v-1204h-186v1881h186v-505h288v-172zM247 -206h178l-178 -497h-131z" />
    <glyph glyph-name="circumflex" unicode="&#x2c6;" horiz-adv-x="1049" 
d="M915 1833h-166l-220 333l-222 -333h-163l290 456h184z" />
    <glyph glyph-name="caron" unicode="&#x2c7;" horiz-adv-x="962" 
d="M486 1954l219 335h164l-294 -455h-182l-295 455h166z" />
    <glyph glyph-name="uni02C9" unicode="&#x2c9;" horiz-adv-x="1326" 
d="M227 2106h875v-148h-875v148z" />
    <glyph glyph-name="breve" unicode="&#x2d8;" horiz-adv-x="1085" 
d="M164 2247h133q14 -99 77.5 -165t170.5 -66t170 66t78 165h135q-8 -81 -34 -147t-71.5 -118.5t-116 -81.5t-161.5 -29q-176 0 -270.5 104t-110.5 272z" />
    <glyph glyph-name="dotaccent" unicode="&#x2d9;" horiz-adv-x="642" 
d="M326 2196q58 0 98.5 -41t40.5 -99t-40.5 -98.5t-98.5 -40.5q-59 0 -100 40.5t-41 98.5q0 59 41 99.5t100 40.5z" />
    <glyph glyph-name="ring" unicode="&#x2da;" horiz-adv-x="1003" 
d="M505 2408q131 0 223 -91.5t92 -221.5q0 -131 -92 -223t-223 -92q-130 0 -222 92.5t-92 222.5t92 221.5t222 91.5zM505 2288q-80 0 -137 -56.5t-57 -136.5q0 -81 57 -138t137 -57t137.5 57t57.5 138q0 80 -57.5 136.5t-137.5 56.5z" />
    <glyph glyph-name="ogonek" unicode="&#x2db;" horiz-adv-x="708" 
d="M596 -457l40 -104q-49 -37 -115.5 -58.5t-127.5 -21.5q-119 0 -196.5 68.5t-77.5 184.5q0 106 65 209t151 179h124q-178 -181 -178 -323q0 -78 45.5 -124t122.5 -46q83 0 147 36z" />
    <glyph glyph-name="tilde" unicode="&#x2dc;" horiz-adv-x="1141" 
d="M830 2196h131q-14 -145 -76.5 -223t-143.5 -78q-49 0 -88.5 16.5t-64.5 40.5t-46.5 47.5t-46 40t-51.5 16.5q-44 0 -71 -37t-41 -117h-132q15 145 77.5 223.5t142.5 78.5q49 0 89 -16.5t65 -40t46.5 -47.5t46.5 -40.5t52 -16.5q85 0 111 153z" />
    <glyph glyph-name="hungarumlaut" unicode="&#x2dd;" horiz-adv-x="1189" 
d="M439 2278h245l-361 -456h-153zM860 2278h245l-362 -456h-154z" />
    <glyph glyph-name="uni03A9" unicode="&#x3a9;" horiz-adv-x="2340" 
d="M1415 0v138q98 64 185 159t161.5 223t118 296.5t43.5 354.5q0 134 -29 265t-90.5 251.5t-148 212.5t-210 146.5t-267.5 54.5q-172 0 -316 -73t-240.5 -199.5t-149.5 -297.5t-53 -367q0 -175 43.5 -341t117 -295.5t162 -229t185.5 -160.5v-138h-748v169h481
q-92 83 -169 189.5t-137 236t-94 285.5t-34 320q0 232 73.5 433t201 340.5t304 219t376.5 79.5q167 0 315 -56.5t260 -156.5t193.5 -233t123.5 -290t42 -324q0 -169 -35.5 -330t-97.5 -292.5t-139 -237.5t-167 -183h482v-169h-743z" />
    <glyph glyph-name="uni03BC" unicode="&#x3bc;" horiz-adv-x="1862" 
d="M482 158v-917h-170v2135h171v-788q0 -93 23.5 -173t69.5 -141.5t119 -96.5t166 -35q148 0 258.5 96t166.5 259.5t56 371.5v507h172v-818q0 -55 0.5 -84t2 -75.5t5.5 -72t10.5 -61t17.5 -56.5t26.5 -43.5t36.5 -37t48 -23.5v-137q-66 0 -116.5 23t-82.5 59t-54.5 90.5
t-33.5 108t-18 121.5h-2q-61 -187 -195.5 -294.5t-295.5 -107.5q-117 0 -206 45t-175 145z" />
    <glyph glyph-name="pi" unicode="&#x3c0;" horiz-adv-x="1759" 
d="M436 1376h1255l-18 -155h-350q-45 -240 -45 -586q0 -268 78 -390.5t259 -122.5l-14 -154q-115 0 -201 29t-139.5 77.5t-86 123t-44.5 155t-12 183.5q0 339 55 685h-543q-56 -924 -149 -1221h-188q74 244 114 518t74 704h-108q-72 0 -130 -13t-134 -49l-43 100
q110 116 370 116z" />
    <glyph glyph-name="uni200A" unicode="&#x200a;" horiz-adv-x="73" 
 />
    <glyph glyph-name="uni2010" unicode="&#x2010;" horiz-adv-x="1216" 
d="M186 935h849v-167h-849v167z" />
    <glyph glyph-name="endash" unicode="&#x2013;" horiz-adv-x="1974" 
d="M186 929h1607v-154h-1607v154z" />
    <glyph glyph-name="emdash" unicode="&#x2014;" horiz-adv-x="3527" 
d="M186 929h3160v-154h-3160v154z" />
    <glyph glyph-name="quoteleft" unicode="&#x2018;" horiz-adv-x="654" 
d="M411 2496h151l-188 -714h-221z" />
    <glyph glyph-name="quoteright" unicode="&#x2019;" horiz-adv-x="639" 
d="M347 2496h220l-257 -714h-151z" />
    <glyph glyph-name="quotesinglbase" unicode="&#x201a;" horiz-adv-x="666" 
d="M287 236h220l-257 -714h-151z" />
    <glyph glyph-name="quotedblleft" unicode="&#x201c;" horiz-adv-x="1091" 
d="M409 2496h153l-189 -714h-220zM846 2496h153l-189 -714h-220z" />
    <glyph glyph-name="quotedblright" unicode="&#x201d;" horiz-adv-x="1077" 
d="M347 2496h220l-257 -714h-151zM785 2496h220l-257 -714h-152z" />
    <glyph glyph-name="quotedblbase" unicode="&#x201e;" horiz-adv-x="1104" 
d="M288 236h220l-257 -714h-152zM725 236h220l-257 -714h-152z" />
    <glyph glyph-name="dagger" unicode="&#x2020;" horiz-adv-x="1494" 
d="M658 1510h-589v170h589v605h184v-605h593v-170h-593v-1913h-184v1913z" />
    <glyph glyph-name="daggerdbl" unicode="&#x2021;" horiz-adv-x="1686" 
d="M750 2285h185v-605h593v-170h-593v-631h593v-167h-593v-1115h-185v1115h-589v167h589v631h-589v170h589v605z" />
    <glyph glyph-name="bullet" unicode="&#x2022;" horiz-adv-x="1289" 
d="M647 1523q185 0 316.5 -131t131.5 -317q0 -185 -131.5 -316.5t-316.5 -131.5q-186 0 -317 131.5t-131 316.5q0 186 131 317t317 131z" />
    <glyph glyph-name="ellipsis" unicode="&#x2026;" horiz-adv-x="2843" 
d="M359 259q60 0 103 -43t43 -102q0 -60 -43 -103t-103 -43q-61 0 -103.5 43t-42.5 103t42.5 102.5t103.5 42.5zM1426 259q60 0 103 -43t43 -102q0 -60 -43 -103t-103 -43q-61 0 -103.5 43t-42.5 103t43 102.5t103 42.5zM2493 259q60 0 103 -43t43 -102q0 -60 -43 -103
t-103 -43q-61 0 -104 43t-43 103q0 59 43 102t104 43z" />
    <glyph glyph-name="perthousand" unicode="&#x2030;" horiz-adv-x="3631" 
d="M586 2256q142 0 250 -92.5t161.5 -236.5t53.5 -312q0 -128 -29.5 -247t-85.5 -216.5t-146.5 -156t-203.5 -58.5q-91 0 -168.5 38.5t-131.5 104t-92 153t-56 184t-18 198.5q0 125 31.5 239.5t89.5 204.5t147.5 143.5t197.5 53.5zM586 2116q-65 0 -118.5 -32.5t-88 -84.5
t-58.5 -119t-34 -134t-10 -131q0 -91 17 -181t51.5 -173t97 -134t143.5 -51t143 51t96.5 134t51.5 173t17 181q0 65 -10 131.5t-34 134t-58 119t-87.5 84t-118.5 32.5zM1962 1303q86 0 161 -35t130 -96t94.5 -142t59 -175t19.5 -193q0 -128 -29.5 -247t-85 -216.5t-146 -156
t-203.5 -58.5q-91 0 -168 38.5t-131 104t-92 153t-56 184t-18 198.5q0 168 53 312t161 236.5t251 92.5zM1962 1164q-64 0 -117.5 -32.5t-88.5 -84.5t-59 -119.5t-34.5 -134t-10.5 -131.5q0 -72 10 -144t33.5 -144t58.5 -127t88.5 -89.5t119.5 -34.5q81 0 143.5 51t97 134
t51.5 173t17 181q0 83 -17.5 166.5t-52 161t-97 126t-142.5 48.5zM3048 1303q86 0 161 -35t130 -96t94.5 -142t59 -175t19.5 -193q0 -128 -29.5 -247t-85 -216.5t-146 -156t-203.5 -58.5q-91 0 -168 38.5t-131 104t-92 153t-56 184t-18 198.5q0 168 53 312t161 236.5
t251 92.5zM3048 1164q-65 0 -118.5 -32.5t-88 -84.5t-58.5 -119.5t-34 -134t-10 -131.5q0 -91 17 -181t51.5 -173t97 -134t143.5 -51q65 0 119 34.5t88.5 89.5t58 127t33.5 144t10 144q0 83 -17.5 166.5t-52 161t-97 126t-142.5 48.5zM1855 2304h177l-1336 -2368h-177z" />
    <glyph glyph-name="guilsinglleft" unicode="&#x2039;" horiz-adv-x="898" 
d="M96 716l451 638h199l-411 -638l411 -638h-199z" />
    <glyph glyph-name="guilsinglright" unicode="&#x203a;" horiz-adv-x="900" 
d="M573 716l-412 638h198l452 -638l-452 -638h-197z" />
    <glyph glyph-name="fraction" unicode="&#x2044;" horiz-adv-x="464" 
d="M816 2304h176l-1336 -2368h-176z" />
    <glyph glyph-name="uni2070" unicode="&#x2070;" horiz-adv-x="1182" 
d="M590 2620q87 0 162.5 -35t130.5 -96t94.5 -142t59 -175t19.5 -193q0 -128 -29.5 -247t-85.5 -216.5t-147 -156.5t-204 -59t-203.5 59t-146 156.5t-85 216.5t-29.5 247q0 99 19.5 193t59 175t94.5 142t130 96t161 35zM590 2480q-54 0 -100 -22.5t-79 -62t-58.5 -89
t-40.5 -106.5t-22.5 -112.5t-7.5 -108.5q0 -92 17 -182t51.5 -172.5t96.5 -133.5t143 -51q66 0 120 34.5t88.5 89t58 127t33.5 144.5t10 144q0 83 -17.5 166.5t-52 160.5t-97.5 125.5t-143 48.5z" />
    <glyph glyph-name="uni2074" unicode="&#x2074;" horiz-adv-x="975" 
d="M761 1542v-236h-149v236h-592l741 1084v-952h143v-132h-143zM612 1674v493l-331 -493h331z" />
    <glyph glyph-name="uni2075" unicode="&#x2075;" horiz-adv-x="983" 
d="M863 2605v-139h-407l-74 -260q26 4 40 4q197 0 328.5 -129t131.5 -325t-132.5 -324.5t-334.5 -128.5q-117 0 -220.5 59.5t-170.5 165.5l119 84q50 -81 123 -125.5t149 -44.5q130 0 220.5 91.5t90.5 222.5t-90.5 222.5t-220.5 91.5q-122 0 -255 -76l174 611h529z" />
    <glyph glyph-name="uni2076" unicode="&#x2076;" horiz-adv-x="1081" 
d="M204 2052l426 553h183l-306 -400q20 4 47 4q118 0 219 -62t159.5 -166t58.5 -225q0 -187 -131.5 -320t-315.5 -133q-121 0 -224.5 61t-163.5 165.5t-60 226.5q0 155 108 296zM544 2071q-123 0 -207.5 -94t-84.5 -221q0 -125 84.5 -219.5t207.5 -94.5q122 0 206.5 93.5
t84.5 220.5q0 126 -84 220.5t-207 94.5z" />
    <glyph glyph-name="uni2077" unicode="&#x2077;" horiz-adv-x="1052" 
d="M779 2463h-712v139h975l-775 -1284h-178z" />
    <glyph glyph-name="uni2078" unicode="&#x2078;" horiz-adv-x="1043" 
d="M522 2620q158 0 262 -100t104 -251q0 -75 -37.5 -148.5t-114.5 -126.5q93 -55 140.5 -140t47.5 -174q0 -159 -114 -269.5t-288 -110.5q-176 0 -290 110t-114 270q0 90 47.5 173.5t141.5 140.5q-75 53 -113 127.5t-38 147.5q0 150 104 250.5t262 100.5zM522 1918
q-104 0 -175.5 -69.5t-71.5 -168.5q0 -101 72 -170.5t175 -69.5t175 69.5t72 170.5q0 99 -71.5 168.5t-175.5 69.5zM522 2486q-88 0 -151 -62.5t-63 -150.5q0 -89 63 -152.5t151 -63.5t151 63.5t63 152.5q0 88 -63 150.5t-151 62.5z" />
    <glyph glyph-name="uni2079" unicode="&#x2079;" horiz-adv-x="1077" 
d="M877 1868l-424 -553h-185l308 399q-24 -3 -49 -3q-179 0 -307.5 134t-128.5 319q0 187 131.5 320t315.5 133t315.5 -133t131.5 -320q0 -156 -108 -296zM538 2478q-122 0 -206.5 -93.5t-84.5 -220.5q0 -126 84 -220.5t207 -94.5t207 94t84 221q0 125 -84 219.5t-207 94.5z
" />
    <glyph glyph-name="uni2080" unicode="&#x2080;" horiz-adv-x="1182" 
d="M590 940q87 0 162.5 -35t130.5 -96t94.5 -142t59 -175t19.5 -193q0 -128 -29.5 -247t-85.5 -216.5t-147 -156.5t-204 -59t-203.5 59t-146 156.5t-85 216.5t-29.5 247q0 99 19.5 193t59 175t94.5 142t130 96t161 35zM590 800q-54 0 -100 -22.5t-79 -62t-58.5 -89
t-40.5 -106.5t-22.5 -112.5t-7.5 -108.5q0 -92 17 -182t51.5 -172.5t96.5 -133.5t143 -51q66 0 120 34.5t88.5 89t58 127t33.5 144.5t10 144q0 83 -17.5 166.5t-52 160.5t-97.5 125.5t-143 48.5z" />
    <glyph glyph-name="uni2081" unicode="&#x2081;" horiz-adv-x="677" 
d="M282 783h-207l79 139h282v-1284h-154v1145z" />
    <glyph glyph-name="uni2082" unicode="&#x2082;" horiz-adv-x="958" 
d="M862 -226v-139h-798l535 663q107 131 107 255q0 101 -70.5 172.5t-171.5 71.5q-92 0 -154 -60.5t-92 -163.5h-145q21 150 132.5 257t261.5 107q175 0 285 -112.5t110 -270.5q0 -99 -35 -176.5t-97 -155.5l-358 -448h490z" />
    <glyph glyph-name="uni2083" unicode="&#x2083;" horiz-adv-x="1021" 
d="M83 -35h145q23 -91 98 -148t162 -57q109 0 182.5 67.5t73.5 171.5q0 98 -69 166.5t-172 80.5v125q90 10 148 67t58 142q0 91 -65.5 156t-155.5 65q-79 0 -137 -52t-85 -135h-144q22 136 128.5 231t237.5 95q165 0 269 -104.5t104 -246.5q0 -175 -142 -274
q181 -106 181 -316q0 -73 -28.5 -141t-80 -121t-130.5 -85t-173 -32q-147 0 -265.5 98.5t-139.5 246.5z" />
    <glyph glyph-name="uni2084" unicode="&#x2084;" horiz-adv-x="975" 
d="M761 -138v-236h-149v236h-592l741 1084v-952h143v-132h-143zM612 -6v493l-331 -493h331z" />
    <glyph glyph-name="uni2085" unicode="&#x2085;" horiz-adv-x="983" 
d="M863 925v-139h-407l-74 -260q26 4 40 4q197 0 328.5 -129t131.5 -325t-132.5 -324.5t-334.5 -128.5q-117 0 -220.5 59.5t-170.5 165.5l119 84q50 -81 123 -125.5t149 -44.5q130 0 220.5 91.5t90.5 222.5t-90.5 222.5t-220.5 91.5q-122 0 -255 -76l174 611h529z" />
    <glyph glyph-name="uni2086" unicode="&#x2086;" horiz-adv-x="1081" 
d="M204 372l426 553h183l-306 -400q20 4 47 4q118 0 219 -62t159.5 -166t58.5 -225q0 -187 -131.5 -320t-315.5 -133q-121 0 -224.5 61t-163.5 165.5t-60 226.5q0 155 108 296zM544 391q-123 0 -207.5 -94t-84.5 -221q0 -125 84.5 -219.5t207.5 -94.5q122 0 206.5 93.5
t84.5 220.5q0 126 -84 220.5t-207 94.5z" />
    <glyph glyph-name="uni2087" unicode="&#x2087;" horiz-adv-x="1052" 
d="M779 783h-712v139h975l-775 -1284h-178z" />
    <glyph glyph-name="uni2088" unicode="&#x2088;" horiz-adv-x="1043" 
d="M522 940q158 0 262 -100t104 -251q0 -75 -37.5 -148.5t-114.5 -126.5q93 -55 140.5 -140t47.5 -174q0 -159 -114 -269.5t-288 -110.5q-176 0 -290 110t-114 270q0 90 47.5 173.5t141.5 140.5q-75 53 -113 127.5t-38 147.5q0 150 104 250.5t262 100.5zM522 238
q-104 0 -175.5 -69.5t-71.5 -168.5q0 -101 72 -170.5t175 -69.5t175 69.5t72 170.5q0 99 -71.5 168.5t-175.5 69.5zM522 806q-88 0 -151 -62.5t-63 -150.5q0 -89 63 -152.5t151 -63.5t151 63.5t63 152.5q0 88 -63 150.5t-151 62.5z" />
    <glyph glyph-name="uni2089" unicode="&#x2089;" horiz-adv-x="1077" 
d="M877 188l-424 -553h-185l308 399q-24 -3 -49 -3q-179 0 -307.5 134t-128.5 319q0 187 131.5 320t315.5 133t315.5 -133t131.5 -320q0 -156 -108 -296zM538 798q-122 0 -206.5 -93.5t-84.5 -220.5q0 -126 84 -220.5t207 -94.5t207 94t84 221q0 125 -84 219.5t-207 94.5z
" />
    <glyph glyph-name="Euro" unicode="&#x20ac;" horiz-adv-x="2059" 
d="M360 1244h-262l72 157h212q37 187 122.5 349t202 276.5t262.5 180t302 65.5q192 0 362 -92t297 -257l-132 -115q-108 131 -246.5 207t-280.5 76q-163 0 -306.5 -93t-241 -248.5t-142.5 -348.5h1104l-73 -157h-1058q-6 -84 -6 -124q0 -31 4 -97h971l-74 -156h-874
q31 -148 95.5 -278.5t153 -228.5t204.5 -154.5t243 -56.5q144 0 288 79.5t246 213.5l125 -125q-126 -166 -295.5 -257.5t-363.5 -91.5q-164 0 -315 70t-266 191t-197 286t-116 352h-279l72 156h188q-4 33 -4 97q0 62 6 124z" />
    <glyph glyph-name="uni2113" unicode="&#x2113;" horiz-adv-x="1440" 
d="M354 701l-235 -145l-53 113l284 201q1 548 37 814q56 408 227 558q114 100 288 100q112 0 190.5 -62.5t114 -161t35.5 -223.5q0 -115 -40 -237t-105 -231t-158 -220.5t-189 -204t-207 -184.5q10 -143 27 -247.5t47.5 -193t74.5 -142.5t109 -84t151 -30q57 0 105 13.5
t94 45t78 60t83 80.5l76 -91q-191 -261 -484 -261q-110 0 -198.5 40.5t-148.5 107.5t-103 163.5t-66 199t-34 222.5zM1077 1905q0 43 -5.5 83t-19 80t-34.5 69t-55 47t-77 18q-55 0 -101 -24t-79 -63.5t-59 -100.5t-42.5 -124.5t-28.5 -146t-17.5 -154.5t-9.5 -161t-5 -155
t-2 -146.5t-3 -125.5q131 123 223 226.5t166.5 216.5t111.5 227.5t37 233.5z" />
    <glyph glyph-name="trademark" unicode="&#x2122;" horiz-adv-x="3085" 
d="M1595 2240l475 -1097l468 1097h252v-1344h-158v1181h-2l-512 -1181h-106l-512 1181h-2v-1181h-158v1344h255zM1139 2103h-443v-1207h-156v1207h-444v137h1043v-137z" />
    <glyph glyph-name="Omega" unicode="&#x2126;" horiz-adv-x="2340" 
d="M1415 0v138q98 64 185 159t161.5 223t118 296.5t43.5 354.5q0 134 -29 265t-90.5 251.5t-148 212.5t-210 146.5t-267.5 54.5q-172 0 -316 -73t-240.5 -199.5t-149.5 -297.5t-53 -367q0 -175 43.5 -341t117 -295.5t162 -229t185.5 -160.5v-138h-748v169h481
q-92 83 -169 189.5t-137 236t-94 285.5t-34 320q0 232 73.5 433t201 340.5t304 219t376.5 79.5q167 0 315 -56.5t260 -156.5t193.5 -233t123.5 -290t42 -324q0 -169 -35.5 -330t-97.5 -292.5t-139 -237.5t-167 -183h482v-169h-743z" />
    <glyph glyph-name="estimated" unicode="&#x212e;" horiz-adv-x="2639" 
d="M2158 467h198q-196 -239 -442 -369t-572 -130q-255 0 -473.5 80.5t-369.5 221t-236.5 334.5t-85.5 417q0 167 51.5 323.5t152.5 288.5t240.5 231t325 154.5t395.5 55.5q215 0 397 -52t316 -146t231.5 -225.5t153 -289.5t71.5 -340h-1824v-713q267 -226 655 -226
q515 0 816 385zM687 1731v-596h1314v596q-289 230 -659 230q-389 0 -655 -230z" />
    <glyph glyph-name="uni2190" unicode="&#x2190;" horiz-adv-x="2427" 
d="M556 850l585 -680h-208l-716 771l716 772h208l-585 -681h1654v-182h-1654z" />
    <glyph glyph-name="uni2191" unicode="&#x2191;" horiz-adv-x="1977" 
d="M1080 1598v-1655h-181v1655l-682 -585v208l772 715l771 -715v-208z" />
    <glyph glyph-name="uni2192" unicode="&#x2192;" horiz-adv-x="2427" 
d="M2210 941l-715 -771h-209l585 680h-1654v182h1654l-585 681h209z" />
    <glyph glyph-name="uni2193" unicode="&#x2193;" horiz-adv-x="1977" 
d="M1760 869v-208l-771 -716l-772 716v208l682 -585v1654h181v-1654z" />
    <glyph glyph-name="uni21E8" unicode="&#x21e8;" horiz-adv-x="2586" 
d="M217 1378h1309v534l1004 -971l-1004 -971v534h-1309v874zM1684 1221h-1312v-560h1312v-314l624 594l-624 593v-313z" />
    <glyph glyph-name="partialdiff" unicode="&#x2202;" horiz-adv-x="1697" 
d="M354 2237q188 128 439 128q176 0 310 -80.5t217 -228.5t124.5 -348.5t41.5 -450.5q0 -283 -54 -520t-154.5 -408t-251.5 -266t-338 -95q-135 0 -242.5 54.5t-174.5 147.5t-102 212t-35 253q0 233 80 412t236.5 281.5t368.5 102.5q84 0 164.5 -25t141.5 -65t106.5 -85.5
t72.5 -91.5l2 1q-1 532 -139 788.5t-443 256.5q-98 0 -171.5 -25t-159.5 -74zM716 112q106 0 196.5 52t153.5 137.5t110 200.5t72.5 234.5t35.5 246.5q-176 299 -445 299q-121 0 -219.5 -53t-161.5 -143.5t-97 -206t-34 -243.5q0 -80 15 -155.5t47 -142.5t77.5 -117
t109.5 -79.5t140 -29.5z" />
    <glyph glyph-name="Delta" unicode="&#x2206;" horiz-adv-x="1920" 
d="M73 145l772 2095h245l757 -2089v-151h-1774v145zM1638 166l-677 1876l-685 -1876h1362z" />
    <glyph glyph-name="product" unicode="&#x220f;" horiz-adv-x="2354" 
d="M451 2129h-386v178h2220v-178h-381v-2554h-193v2554h-1068v-2554h-192v2554z" />
    <glyph glyph-name="summation" unicode="&#x2211;" horiz-adv-x="1766" 
d="M43 -271l941 1219l-902 1210v149h1605v-170h-1347l884 -1166l-938 -1212h1454v-185h-1697v155z" />
    <glyph glyph-name="minus" unicode="&#x2212;" horiz-adv-x="2027" 
d="M217 1031h1593v-181h-1593v181z" />
    <glyph glyph-name="uni2215" unicode="&#x2215;" horiz-adv-x="464" 
d="M816 2304h176l-1336 -2368h-176z" />
    <glyph glyph-name="uni2219" unicode="&#x2219;" horiz-adv-x="698" 
d="M355 1063q60 0 103 -42.5t43 -102.5t-43 -103t-103 -43t-103 43t-43 103t43 102.5t103 42.5z" />
    <glyph glyph-name="radical" unicode="&#x221a;" horiz-adv-x="1675" 
d="M1644 2755l-675 -2957h-200l-478 1392l-226 -89l-46 146l409 161l434 -1346l605 2693h177z" />
    <glyph glyph-name="infinity" unicode="&#x221e;" horiz-adv-x="2626" 
d="M186 941q0 129 57.5 243.5t164 186t235.5 71.5q144 0 286.5 -90.5t274.5 -261.5l85.5 107t83.5 96.5t87.5 90t88 72.5t96 58.5t100 34.5t110.5 14q127 0 232 -51.5t173 -138t105 -198t37 -234.5t-37 -234.5t-105 -198.5t-173 -138.5t-232 -51.5q-56 0 -111 14.5
t-100.5 35t-97 60t-88 72t-87.5 89.5l-82.5 95l-84.5 104q-129 -169 -272 -257t-289 -88q-129 0 -235.5 71t-164 184.5t-57.5 242.5zM356 941q0 -149 81 -236.5t206 -87.5q104 0 212 72.5t248 251.5q-141 179 -249 252.5t-211 73.5q-125 0 -206 -88t-81 -238zM1855 1385
q-64 0 -132 -31t-122 -74.5t-112.5 -108.5t-96 -116t-79.5 -114q42 -63 79.5 -114t96 -116t112.5 -108.5t122 -74.5t132 -31q162 0 264 117t102 327t-102 327t-264 117z" />
    <glyph glyph-name="integral" unicode="&#x222b;" horiz-adv-x="1065" 
d="M1132 2591l-45 -155q-27 18 -70 31t-79 13q-68 0 -122 -23t-90 -59.5t-62 -92.5t-40.5 -109.5t-22.5 -124t-10 -123.5t-2 -119q0 -261 29.5 -798.5t29.5 -814.5q0 -73 -6.5 -146t-23 -153.5t-42 -151t-66 -135.5t-92.5 -111.5t-124 -74t-158 -27.5q-63 0 -137 19t-113 41
l42 164q103 -53 193 -53q114 0 190.5 81t111 221.5t34.5 338.5q0 252 -28.5 812.5t-28.5 811.5q0 83 6 157.5t21.5 156t41 149t67 129.5t95.5 104.5t130.5 68t169.5 25.5q49 0 111.5 -17t89.5 -35z" />
    <glyph glyph-name="approxequal" unicode="&#x2248;" horiz-adv-x="2127" 
d="M696 800q84 0 163.5 -21.5t143 -52l126.5 -61.5t141.5 -52.5t160.5 -21.5q125 0 247 42.5t199 124.5v-183q-77 -83 -198.5 -125t-247.5 -42q-84 0 -163 21.5t-142.5 52l-127 61.5t-141.5 52.5t-161 21.5q-126 0 -247.5 -42t-198.5 -125v183q77 83 198.5 125t247.5 42z
M1877 1426v-185q-77 -83 -198.5 -125t-247.5 -42q-84 0 -163 21.5t-142.5 52l-127 61.5t-141.5 52.5t-161 21.5q-126 0 -247.5 -42t-198.5 -125v185q77 83 198.5 125t247.5 42q84 0 163.5 -21.5t143 -52l126.5 -61.5t141.5 -52.5t160.5 -21.5q126 0 247.5 42t198.5 125z" />
    <glyph glyph-name="notequal" unicode="&#x2260;" horiz-adv-x="1967" 
d="M1343 1933h151l-250 -569h535v-180h-614l-213 -488h827v-179h-906l-250 -568h-151l249 568h-535v179h614l214 488h-828v180h907z" />
    <glyph glyph-name="lessequal" unicode="&#x2264;" horiz-adv-x="1947" 
d="M1716 1908v-203l-1329 -572l1329 -570v-203l-1545 682v183zM171 157h1545v-181h-1545v181z" />
    <glyph glyph-name="greaterequal" unicode="&#x2265;" horiz-adv-x="1946" 
d="M230 1705v203l1545 -683v-183l-1545 -682v203l1329 570zM230 157h1545v-181h-1545v181z" />
    <glyph glyph-name="lozenge" unicode="&#x25ca;" horiz-adv-x="1614" 
d="M109 1122l599 1207h203l599 -1207l-599 -1212h-203zM1310 1122l-501 1039l-501 -1039l501 -1037z" />
    <glyph glyph-name="zero.numerator" horiz-adv-x="1182" 
d="M590 2256q87 0 162.5 -35t130.5 -96t94.5 -142t59 -175t19.5 -193q0 -128 -29.5 -247t-85.5 -216.5t-147 -156.5t-204 -59t-203.5 59t-146 156.5t-85 216.5t-29.5 247q0 99 19.5 193t59 175t94.5 142t130 96t161 35zM590 2116q-54 0 -100 -22.5t-79 -62t-58.5 -89
t-40.5 -106.5t-22.5 -112.5t-7.5 -108.5q0 -92 17 -182t51.5 -172.5t96.5 -133.5t143 -51q66 0 120 34.5t88.5 89t58 127t33.5 144.5t10 144q0 83 -17.5 166.5t-52 160.5t-97.5 125.5t-143 48.5z" />
    <glyph glyph-name="one.numerator" horiz-adv-x="677" 
d="M282 2099h-207l79 139h282v-1284h-154v1145z" />
    <glyph glyph-name="two.numerator" horiz-adv-x="958" 
d="M862 1090v-139h-798l535 663q107 131 107 255q0 101 -70.5 172.5t-171.5 71.5q-92 0 -154 -60.5t-92 -163.5h-145q21 150 132.5 257t261.5 107q175 0 285 -112.5t110 -270.5q0 -99 -35 -176.5t-97 -155.5l-358 -448h490z" />
    <glyph glyph-name="three.numerator" horiz-adv-x="1021" 
d="M83 1281h145q23 -91 98 -148t162 -57q109 0 182.5 67.5t73.5 171.5q0 98 -69 166.5t-172 80.5v125q90 10 148 67t58 142q0 91 -65.5 156t-155.5 65q-79 0 -137 -52t-85 -135h-144q22 136 128.5 231t237.5 95q165 0 269 -104.5t104 -246.5q0 -175 -142 -274
q181 -106 181 -316q0 -73 -28.5 -141t-80 -121t-130.5 -85t-173 -32q-147 0 -265.5 98.5t-139.5 246.5z" />
    <glyph glyph-name="four.numerator" horiz-adv-x="975" 
d="M761 1178v-236h-149v236h-592l741 1084v-952h143v-132h-143zM612 1310v493l-331 -493h331z" />
    <glyph glyph-name="five.numerator" horiz-adv-x="983" 
d="M863 2241v-139h-407l-74 -260q26 4 40 4q197 0 328.5 -129t131.5 -325t-132.5 -324.5t-334.5 -128.5q-117 0 -220.5 59.5t-170.5 165.5l119 84q50 -81 123 -125.5t149 -44.5q130 0 220.5 91.5t90.5 222.5t-90.5 222.5t-220.5 91.5q-122 0 -255 -76l174 611h529z" />
    <glyph glyph-name="six.numerator" horiz-adv-x="1081" 
d="M204 1688l426 553h183l-306 -400q20 4 47 4q118 0 219 -62t159.5 -166t58.5 -225q0 -187 -131.5 -320t-315.5 -133q-121 0 -224.5 61t-163.5 165.5t-60 226.5q0 155 108 296zM544 1707q-123 0 -207.5 -94t-84.5 -221q0 -125 84.5 -219.5t207.5 -94.5q122 0 206.5 93.5
t84.5 220.5q0 126 -84 220.5t-207 94.5z" />
    <glyph glyph-name="seven.numerator" horiz-adv-x="1052" 
d="M779 2099h-712v139h975l-775 -1284h-178z" />
    <glyph glyph-name="eight.numerator" horiz-adv-x="1043" 
d="M522 2256q158 0 262 -100t104 -251q0 -75 -37.5 -148.5t-114.5 -126.5q93 -55 140.5 -140t47.5 -174q0 -159 -114 -269.5t-288 -110.5q-176 0 -290 110t-114 270q0 90 47.5 173.5t141.5 140.5q-75 53 -113 127.5t-38 147.5q0 150 104 250.5t262 100.5zM522 1554
q-104 0 -175.5 -69.5t-71.5 -168.5q0 -101 72 -170.5t175 -69.5t175 69.5t72 170.5q0 99 -71.5 168.5t-175.5 69.5zM522 2122q-88 0 -151 -62.5t-63 -150.5q0 -89 63 -152.5t151 -63.5t151 63.5t63 152.5q0 88 -63 150.5t-151 62.5z" />
    <glyph glyph-name="nine.numerator" horiz-adv-x="1077" 
d="M877 1504l-424 -553h-185l308 399q-24 -3 -49 -3q-179 0 -307.5 134t-128.5 319q0 187 131.5 320t315.5 133t315.5 -133t131.5 -320q0 -156 -108 -296zM538 2114q-122 0 -206.5 -93.5t-84.5 -220.5q0 -126 84 -220.5t207 -94.5t207 94t84 221q0 125 -84 219.5t-207 94.5z
" />
    <glyph glyph-name="zero.denominator" horiz-adv-x="1182" 
d="M590 1304q87 0 162.5 -35t130.5 -96t94.5 -142t59 -175t19.5 -193q0 -128 -29.5 -247t-85.5 -216.5t-147 -156.5t-204 -59t-203.5 59t-146 156.5t-85 216.5t-29.5 247q0 99 19.5 193t59 175t94.5 142t130 96t161 35zM590 1164q-54 0 -100 -22.5t-79 -62t-58.5 -89
t-40.5 -106.5t-22.5 -112.5t-7.5 -108.5q0 -92 17 -182t51.5 -172.5t96.5 -133.5t143 -51q66 0 120 34.5t88.5 89t58 127t33.5 144.5t10 144q0 83 -17.5 166.5t-52 160.5t-97.5 125.5t-143 48.5z" />
    <glyph glyph-name="one.denominator" horiz-adv-x="677" 
d="M282 1147h-207l79 139h282v-1284h-154v1145z" />
    <glyph glyph-name="two.denominator" horiz-adv-x="958" 
d="M862 138v-139h-798l535 663q107 131 107 255q0 101 -70.5 172.5t-171.5 71.5q-92 0 -154 -60.5t-92 -163.5h-145q21 150 132.5 257t261.5 107q175 0 285 -112.5t110 -270.5q0 -99 -35 -176.5t-97 -155.5l-358 -448h490z" />
    <glyph glyph-name="three.denominator" horiz-adv-x="1021" 
d="M83 329h145q23 -91 98 -148t162 -57q109 0 182.5 67.5t73.5 171.5q0 98 -69 166.5t-172 80.5v125q90 10 148 67t58 142q0 91 -65.5 156t-155.5 65q-79 0 -137 -52t-85 -135h-144q22 136 128.5 231t237.5 95q165 0 269 -104.5t104 -246.5q0 -175 -142 -274
q181 -106 181 -316q0 -73 -28.5 -141t-80 -121t-130.5 -85t-173 -32q-147 0 -265.5 98.5t-139.5 246.5z" />
    <glyph glyph-name="four.denominator" horiz-adv-x="975" 
d="M761 226v-236h-149v236h-592l741 1084v-952h143v-132h-143zM612 358v493l-331 -493h331z" />
    <glyph glyph-name="five.denominator" horiz-adv-x="983" 
d="M863 1289v-139h-407l-74 -260q26 4 40 4q197 0 328.5 -129t131.5 -325t-132.5 -324.5t-334.5 -128.5q-117 0 -220.5 59.5t-170.5 165.5l119 84q50 -81 123 -125.5t149 -44.5q130 0 220.5 91.5t90.5 222.5t-90.5 222.5t-220.5 91.5q-122 0 -255 -76l174 611h529z" />
    <glyph glyph-name="six.denominator" horiz-adv-x="1081" 
d="M204 736l426 553h183l-306 -400q20 4 47 4q118 0 219 -62t159.5 -166t58.5 -225q0 -187 -131.5 -320t-315.5 -133q-121 0 -224.5 61t-163.5 165.5t-60 226.5q0 155 108 296zM544 755q-123 0 -207.5 -94t-84.5 -221q0 -125 84.5 -219.5t207.5 -94.5q122 0 206.5 93.5
t84.5 220.5q0 126 -84 220.5t-207 94.5z" />
    <glyph glyph-name="seven.denominator" horiz-adv-x="1052" 
d="M779 1147h-712v139h975l-775 -1284h-178z" />
    <glyph glyph-name="eight.denominator" horiz-adv-x="1043" 
d="M522 1304q158 0 262 -100t104 -251q0 -75 -37.5 -148.5t-114.5 -126.5q93 -55 140.5 -140t47.5 -174q0 -159 -114 -269.5t-288 -110.5q-176 0 -290 110t-114 270q0 90 47.5 173.5t141.5 140.5q-75 53 -113 127.5t-38 147.5q0 150 104 250.5t262 100.5zM522 602
q-104 0 -175.5 -69.5t-71.5 -168.5q0 -101 72 -170.5t175 -69.5t175 69.5t72 170.5q0 99 -71.5 168.5t-175.5 69.5zM522 1170q-88 0 -151 -62.5t-63 -150.5q0 -89 63 -152.5t151 -63.5t151 63.5t63 152.5q0 88 -63 150.5t-151 62.5z" />
    <glyph glyph-name="nine.denominator" horiz-adv-x="1077" 
d="M877 552l-424 -553h-185l308 399q-24 -3 -49 -3q-179 0 -307.5 134t-128.5 319q0 187 131.5 320t315.5 133t315.5 -133t131.5 -320q0 -156 -108 -296zM538 1162q-122 0 -206.5 -93.5t-84.5 -220.5q0 -126 84 -220.5t207 -94.5t207 94t84 221q0 125 -84 219.5t-207 94.5z
" />
    <glyph glyph-name="zero.onum" horiz-adv-x="1824" 
d="M913 1510q169 0 309 -62.5t230 -167.5t139.5 -239.5t49.5 -282.5q0 -119 -28.5 -232.5t-88 -214.5t-144 -177.5t-205 -121t-262.5 -44.5t-262.5 44.5t-205 121t-144 177.5t-88 214.5t-28.5 232.5q0 148 49.5 282.5t139.5 239.5t230 167.5t309 62.5zM913 1337
q-108 0 -200 -37.5t-153 -98.5t-104.5 -138t-63 -154.5t-19.5 -150.5q0 -81 19.5 -165t63 -165.5t104.5 -145t153 -102.5t200 -39t200 39t153 102.5t104.5 145t63 165.5t19.5 165q0 73 -19.5 150.5t-62.5 155t-104.5 138t-153.5 98t-200 37.5z" />
    <glyph glyph-name="one.onum" horiz-adv-x="991" 
d="M471 1308h-321l99 173h408v-1481h-186v1308z" />
    <glyph glyph-name="two.onum" horiz-adv-x="1500" 
d="M1322 173v-173h-1215l846 737q180 158 180 302q0 91 -60 160.5t-153 103.5t-202 34q-153 0 -265.5 -64t-161.5 -178h-174q34 176 206 295.5t403 119.5q269 0 432.5 -131.5t163.5 -328.5q0 -222 -198 -395l-546 -482h744z" />
    <glyph glyph-name="three.onum" horiz-adv-x="1485" 
d="M54 -90h174q39 -150 169.5 -243t283.5 -93q194 0 324 119t130 301q0 170 -113 289t-282 140v156q148 18 242.5 118t94.5 250q0 161 -117.5 275.5t-278.5 114.5q-141 0 -243.5 -85.5t-145.5 -221.5h-174q35 201 198.5 340.5t364.5 139.5q128 0 238 -45.5t183.5 -121.5
t115 -175t41.5 -205q0 -152 -60 -261.5t-192 -192.5q88 -46 151.5 -107t98.5 -129.5t50.5 -136.5t15.5 -142q0 -115 -44.5 -221t-124.5 -189t-203 -133t-270 -50q-111 0 -217.5 38.5t-191 105t-143 161.5t-75.5 204z" />
    <glyph glyph-name="four.onum" horiz-adv-x="1537" 
d="M1194 0v-399h-187v399h-985l1172 1722v-1550h242v-172h-242zM1007 172v970l-650 -970h650z" />
    <glyph glyph-name="five.onum" horiz-adv-x="1448" 
d="M1281 1481v-173h-660l-139 -487q51 12 98 12q206 0 373 -91.5t262.5 -256t95.5 -369.5q0 -153 -55.5 -286t-151.5 -227t-232 -148t-292 -54q-181 0 -339.5 87.5t-259.5 246.5l143 101q79 -125 201 -194t255 -69q150 0 274.5 72t196.5 197t72 274t-72 274t-196.5 197
t-274.5 72q-216 0 -372 -113l267 935h806z" />
    <glyph glyph-name="six.onum" horiz-adv-x="1686" 
d="M321 1153l688 895h225l-512 -664q63 17 128 17q142 0 271.5 -57t223.5 -153.5t149.5 -229t55.5 -277.5t-55.5 -277.5t-149.5 -228.5t-223.5 -153t-271.5 -57q-141 0 -270.5 57t-223.5 153t-149.5 228.5t-55.5 277.5q0 247 170 469zM850 1227q-106 0 -202 -44.5t-163 -119
t-106.5 -174t-39.5 -205.5q0 -105 39 -203.5t105.5 -173.5t162.5 -120.5t204 -45.5q107 0 203 44.5t163 119t106.5 174t39.5 205.5q0 105 -39 203.5t-105.5 173.5t-163 120.5t-204.5 45.5z" />
    <glyph glyph-name="seven.onum" horiz-adv-x="1699" 
d="M1335 1308h-1188v173h1509l-1239 -2055h-215z" />
    <glyph glyph-name="eight.onum" horiz-adv-x="1621" 
d="M813 2077q245 0 405 -156.5t160 -390.5q0 -81 -25.5 -160t-87.5 -158.5t-154 -135.5q163 -84 245.5 -224.5t82.5 -289.5q0 -121 -47 -230t-128.5 -189t-199 -127.5t-251.5 -47.5q-136 0 -253.5 46.5t-199 126.5t-128 189.5t-46.5 231.5q0 150 82.5 289t245.5 225
q-137 81 -202 204t-65 250q0 234 161 390.5t405 156.5zM813 982q-185 0 -312 -122t-127 -298t127.5 -298.5t311.5 -122.5q183 0 310.5 122.5t127.5 298.5q0 175 -127.5 297.5t-310.5 122.5zM813 1912q-159 0 -272.5 -110.5t-113.5 -266.5q0 -158 113 -269.5t273 -111.5
q158 0 271.5 112t113.5 269q0 156 -113.5 266.5t-271.5 110.5z" />
    <glyph glyph-name="nine.onum" horiz-adv-x="1715" 
d="M1383 325l-691 -899h-225l515 667q-67 -16 -129 -16q-189 0 -350 96.5t-255 261.5t-94 359q0 145 55.5 277.5t149.5 228.5t223.5 153t270.5 57t270.5 -57t223.5 -153t149.5 -228.5t55.5 -277.5q0 -249 -169 -469zM853 1337q-142 0 -260.5 -75.5t-185 -200.5t-66.5 -267
q0 -105 39 -203.5t105.5 -173.5t163 -120.5t204.5 -45.5q107 0 203 44.5t163 118.5t106.5 173.5t39.5 206.5q0 140 -65.5 264.5t-184.5 201.5t-262 77z" />
    <glyph glyph-name="dollar.onum" horiz-adv-x="1375" 
d="M1134 1825l-131 -105q-91 96 -172 143t-166 47q-123 0 -209 -71.5t-86 -208.5q0 -43 12.5 -85.5t30 -76.5t51.5 -72.5t61 -65t76.5 -64l80 -59.5l87.5 -61l79 -54.5l75.5 -56t75 -60.5t67.5 -63t62.5 -69.5t50 -73.5t41 -82.5t24 -89t9.5 -98.5q0 -220 -129.5 -364
t-352.5 -163v-286h-169v290q-333 43 -498 349l150 97q80 -139 189 -208t267 -69q144 0 250 91t106 232q0 41 -8 80t-19.5 71.5t-34.5 67.5t-42 60.5t-53 58t-57.5 52.5t-65.5 51.5l-66 48.5l-70 49l-96.5 67t-91.5 71t-88.5 79.5t-73.5 86t-61.5 99t-37.5 109t-15 124.5
q0 167 112 287.5t279 142.5v286h167v-290q214 -35 390 -244z" />
    <glyph glyph-name="cent.onum" horiz-adv-x="1406" 
d="M1236 1513l-130 -109q-138 110 -306 110q-95 0 -182.5 -39t-150.5 -105t-100.5 -157t-37.5 -190q0 -132 63 -245t172 -179.5t236 -66.5q202 0 348 154l135 -105q-83 -90 -190.5 -146t-227.5 -69v-231h-166v235q-155 24 -281.5 115.5t-199 233t-72.5 304.5q0 246 158 431
t395 222v236h166v-232q206 -21 371 -167z" />
    <glyph glyph-name="Euro.onum" horiz-adv-x="1919" 
d="M344 1129h-241l73 155h190q46 228 165.5 409t289 282.5t358.5 101.5q177 0 333.5 -85.5t274.5 -238.5l-128 -113q-99 120 -225 189.5t-255 69.5q-109 0 -211 -48t-181 -131.5t-138 -195t-90 -240.5h1007l-73 -155h-961q-4 -72 -4 -106q0 -41 2 -81h888l-73 -156h-791
q38 -178 125.5 -322t218.5 -231t281 -87q130 0 261.5 73t225.5 196l121 -123q-117 -154 -274 -239t-334 -85q-199 0 -372 109t-287.5 294.5t-157.5 414.5h-259l73 156h167q-3 30 -3 81q0 36 4 106z" />
    <glyph glyph-name="sterling.onum" horiz-adv-x="1631" 
d="M142 0v117q176 172 253 338.5t77 309.5q0 57 -10 105h-258v164h213l-26 70q-30 81 -44 123t-29 115t-15 138q0 160 74 295.5t216 220t324 84.5q157 0 292.5 -74.5t220.5 -198t106 -268.5h-178q-39 155 -157.5 261t-278.5 106q-183 0 -307 -124t-124 -308q0 -23 1.5 -45
t5 -45l6 -39t10 -41t10.5 -36t13 -38.5t12.5 -33.5t14.5 -37t13 -34q22 -57 33 -91h330v-164h-290q10 -54 10 -123q0 -112 -56.5 -266t-181.5 -308h1064v-173h-1344z" />
    <glyph glyph-name="yen.onum" horiz-adv-x="1514" 
d="M1232 2051h205l-552 -1027h334v-156h-364v-207h364v-156h-364v-505h-187v505h-366v156h366v207h-366v156h336l-554 1027h205l473 -876z" />
    <glyph glyph-name="zero.tnum" 
d="M939 2272q147 0 275 -60.5t222 -167t161.5 -248t101.5 -305.5t34 -338q0 -148 -22 -291t-65 -275.5t-110.5 -245t-153.5 -196t-199.5 -130.5t-243.5 -47t-243.5 47t-199.5 130.5t-153.5 196t-110.5 245t-65 275.5t-22 291q0 145 24 284t69.5 263t115 229t155.5 181.5
t196.5 119t233.5 42.5zM939 2095q-105 0 -195.5 -43t-154.5 -116.5t-113.5 -167t-78.5 -201t-43.5 -211t-14.5 -203.5q0 -111 14 -223.5t43 -227.5t78 -214t113 -176.5t154.5 -122t197.5 -44.5q106 0 196.5 44.5t155 122t113.5 176.5t77.5 214t43 227.5t14.5 223.5
q0 122 -19.5 247t-66 251t-113.5 223.5t-171 159t-230 61.5z" />
    <glyph glyph-name="one.tnum" 
d="M892 2065h-347l100 175h440v-2240h-193v2065z" />
    <glyph glyph-name="two.tnum" 
d="M1578 175v-175h-1312l916 1133q202 251 202 483q0 131 -64 241.5t-174.5 174t-241.5 63.5q-181 0 -301 -109.5t-177 -294.5h-178q24 156 115 288t236 212.5t311 80.5q149 0 276 -53.5t212 -143t132.5 -208t47.5 -247.5q0 -173 -60 -306.5t-168 -268.5l-697 -870h925z" />
    <glyph glyph-name="three.tnum" 
d="M217 514h179q42 -165 187.5 -267t315.5 -102q216 0 360 132.5t144 335.5q0 191 -124 323t-310 155v159q163 21 267 132t104 279q0 179 -131 307.5t-310 128.5q-157 0 -270.5 -94.5t-161.5 -243.5h-178q37 214 214 363.5t396 149.5q140 0 259.5 -49.5t199.5 -132.5
t125 -190t45 -222q0 -167 -68.5 -288.5t-216.5 -210.5q99 -50 170.5 -116.5t110.5 -142t56.5 -150.5t17.5 -157q0 -125 -48.5 -240.5t-136 -206t-221.5 -144.5t-293 -54q-161 0 -308 69.5t-248.5 195.5t-125.5 281z" />
    <glyph glyph-name="four.tnum" 
d="M1397 439v-439h-193v439h-1076l1269 1865v-1690h266v-175h-266zM1204 614v1093l-735 -1093h735z" />
    <glyph glyph-name="five.tnum" 
d="M1565 2240v-175h-725l-157 -552q57 15 118 15q224 0 406 -99.5t286.5 -278.5t104.5 -403q0 -166 -60.5 -311t-165.5 -247.5t-253 -161.5t-318 -59q-197 0 -368.5 94.5t-281.5 265.5l146 102q86 -136 220.5 -210.5t283.5 -74.5q166 0 304.5 80t218.5 218.5t80 303.5
q0 166 -80 305t-219 219.5t-304 80.5q-227 0 -397 -113l286 1001h875z" />
    <glyph glyph-name="six.tnum" 
d="M368 1259l754 981h229l-564 -732q75 20 158 20q154 0 295 -62t243 -167t162.5 -249.5t60.5 -302.5t-60.5 -302t-162.5 -248.5t-243 -166.5t-295 -62t-295.5 62t-243.5 166.5t-163 248.5t-61 302q0 270 186 512zM945 1352q-158 0 -290 -84t-205.5 -223t-73.5 -298
q0 -116 43.5 -225.5t117.5 -193t181 -134t227 -50.5q118 0 224.5 49.5t181 132t118.5 193t44 228.5q0 157 -72.5 295t-204.5 224t-291 86z" />
    <glyph glyph-name="seven.tnum" 
d="M1477 2065h-1311v175h1641l-1351 -2240h-221z" />
    <glyph glyph-name="eight.tnum" 
d="M938 2272q132 0 247 -45.5t195.5 -124.5t127 -189t46.5 -235q0 -89 -28.5 -176t-98.5 -174.5t-175 -148.5q183 -91 276 -246t93 -320q0 -131 -51 -249.5t-140 -205.5t-217.5 -138.5t-274.5 -51.5q-148 0 -276 51t-216.5 138t-139 205.5t-50.5 250.5q0 166 92.5 319
t275.5 247q-80 46 -140 107t-94 127.5t-50.5 132.5t-16.5 132q0 167 79 302.5t220 213.5t316 78zM938 1082q-205 0 -346.5 -136t-141.5 -333q0 -195 142 -331.5t346 -136.5q134 0 246.5 62.5t177.5 170t65 235.5q0 196 -141.5 332.5t-347.5 136.5zM938 2105
q-115 0 -214 -56.5t-157.5 -153.5t-58.5 -211q0 -177 126.5 -302t303.5 -125q178 0 304 125t126 302q0 114 -58 211t-157 153.5t-215 56.5z" />
    <glyph glyph-name="nine.tnum" 
d="M1516 981l-754 -981h-230l564 732q-74 -20 -157 -20q-154 0 -295 62t-243.5 167t-163 249.5t-60.5 302.5t60.5 302t163 248.5t243.5 166.5t295 62t295 -62t243.5 -166.5t163 -248.5t60.5 -302q0 -271 -185 -512zM939 2096q-157 0 -289 -84t-206 -222.5t-74 -296.5
q0 -117 43.5 -227t117.5 -193.5t181 -134t227 -50.5q158 0 290 84t205.5 223t73.5 298q0 116 -43.5 225.5t-117.5 193t-181 134t-227 50.5z" />
    <glyph glyph-name="dollar.tnum" 
d="M1427 2002l-134 -108q-99 106 -188 156.5t-185 50.5q-138 0 -234 -80t-96 -234q0 -79 33 -152t89.5 -132.5t129 -117t153.5 -112.5l161.5 -112.5t153 -123t129 -137t89.5 -163t33 -193.5q0 -240 -143 -397t-387 -176v-313h-173v318q-367 43 -544 375l153 98
q88 -151 207.5 -226.5t296.5 -75.5q104 0 194 45t146 129t56 189q0 93 -33 175.5t-89 146.5t-128 123.5t-152.5 114.5l-160.5 110.5t-152 120.5t-128 136t-89 164.5t-33 199.5q0 182 122.5 313t306.5 153v314h170v-318q236 -37 426 -261z" />
    <glyph glyph-name="cent.tnum" 
d="M1529 1659l-132 -112q-152 120 -336 120q-141 0 -262 -74t-191.5 -200t-70.5 -273t70.5 -273t191.5 -200t262 -74q223 0 384 167l137 -107q-186 -203 -456 -229v-254h-170v258q-170 25 -308.5 125t-218.5 254.5t-80 332.5t80 332.5t218.5 254.5t308.5 125v257h170v-253
q228 -21 403 -177z" />
    <glyph glyph-name="Euro.tnum" 
d="M269 1244h-262l72 157h212q37 187 122.5 349t202 276.5t262.5 180t302 65.5q192 0 362 -92t297 -257l-132 -115q-108 131 -246.5 207t-280.5 76q-163 0 -306.5 -93t-241 -248.5t-142.5 -348.5h1104l-73 -157h-1058q-6 -84 -6 -124q0 -31 4 -97h971l-74 -156h-874
q31 -148 95.5 -278.5t153 -228.5t204.5 -154.5t243 -56.5q144 0 288 79.5t246 213.5l125 -125q-126 -166 -295.5 -257.5t-363.5 -91.5q-164 0 -315 70t-266 191t-197 286t-116 352h-279l72 156h188q-4 33 -4 97q0 62 6 124z" />
    <glyph glyph-name="sterling.tnum" 
d="M1674 175v-175h-1462v119q132 128 216 263.5t115 242.5t31 209q0 53 -12 122h-283v166h236l-40 111.5t-45.5 133t-26 113t-14.5 139.5q0 129 47.5 247.5t132 208.5t211.5 143.5t275 53.5q129 0 247 -47t205.5 -126.5t146 -185t75.5 -221.5h-183q-43 170 -174 286.5
t-309 116.5q-204 0 -342 -138t-138 -344q0 -90 19 -166.5t60.5 -180t55.5 -144.5h358v-166h-319q11 -68 11 -142q0 -78 -22 -170.5t-86 -221.5t-163 -247h1177z" />
    <glyph glyph-name="yen.tnum" 
d="M1466 2240h209l-605 -1129h370v-156h-399v-243h399v-157h-399v-555h-192v555h-403v157h403v243h-403v156h374l-609 1129h211l523 -970z" />
    <glyph glyph-name="period.tnum" horiz-adv-x="939" 
d="M474 259q60 0 103 -43t43 -102q0 -60 -43 -103t-103 -43q-61 0 -103.5 43t-42.5 103t43 102.5t103 42.5z" />
    <glyph glyph-name="comma.tnum" horiz-adv-x="939" 
d="M420 257h234l-271 -753h-162z" />
    <glyph glyph-name="colon.tnum" horiz-adv-x="939" 
d="M476 259q59 0 102 -42.5t43 -102.5t-43 -103t-102 -43q-60 0 -103 43t-43 103t43 102.5t103 42.5zM476 1408q59 0 102 -43t43 -103t-43 -102.5t-102 -42.5q-60 0 -103 42.5t-43 102.5t43 103t103 43z" />
    <glyph glyph-name="semicolon.tnum" horiz-adv-x="939" 
d="M507 1408q60 0 103 -43t43 -103t-43 -102.5t-103 -42.5t-103 42.5t-43 102.5t43 103t103 43zM386 257h233l-271 -753h-161z" />
    <glyph glyph-name="zero.onum_tnum" horiz-adv-x="1742" 
d="M872 1510q169 0 309 -62.5t230 -167.5t139.5 -239.5t49.5 -282.5q0 -119 -28.5 -232.5t-88 -214.5t-144 -177.5t-205 -121t-262.5 -44.5t-262.5 44.5t-205 121t-144 177.5t-88 214.5t-28.5 232.5q0 148 49.5 282.5t139.5 239.5t230 167.5t309 62.5zM872 1337
q-108 0 -200 -37.5t-153 -98.5t-104.5 -138t-63 -154.5t-19.5 -150.5q0 -81 19.5 -165t63 -165.5t104.5 -145t153 -102.5t200 -39t200 39t153 102.5t104.5 145t63 165.5t19.5 165q0 73 -19.5 150.5t-62.5 155t-104.5 138t-153.5 98t-200 37.5z" />
    <glyph glyph-name="one.onum_tnum" horiz-adv-x="1742" 
d="M847 1308h-321l99 173h408v-1481h-186v1308z" />
    <glyph glyph-name="two.onum_tnum" horiz-adv-x="1742" 
d="M1443 173v-173h-1215l846 737q180 158 180 302q0 91 -60 160.5t-153 103.5t-202 34q-153 0 -265.5 -64t-161.5 -178h-174q34 176 206 295.5t403 119.5q269 0 432.5 -131.5t163.5 -328.5q0 -222 -198 -395l-546 -482h744z" />
    <glyph glyph-name="three.onum_tnum" horiz-adv-x="1742" 
d="M183 -90h174q39 -150 169.5 -243t283.5 -93q194 0 324 119t130 301q0 170 -113 289t-282 140v156q148 18 242.5 118t94.5 250q0 161 -117.5 275.5t-278.5 114.5q-141 0 -243.5 -85.5t-145.5 -221.5h-174q35 201 198.5 340.5t364.5 139.5q128 0 238 -45.5t183.5 -121.5
t115 -175t41.5 -205q0 -152 -60 -261.5t-192 -192.5q88 -46 151.5 -107t98.5 -129.5t50.5 -136.5t15.5 -142q0 -115 -44.5 -221t-124.5 -189t-203 -133t-270 -50q-111 0 -217.5 38.5t-191 105t-143 161.5t-75.5 204z" />
    <glyph glyph-name="four.onum_tnum" horiz-adv-x="1742" 
d="M1297 0v-399h-187v399h-985l1172 1722v-1550h242v-172h-242zM1110 172v970l-650 -970h650z" />
    <glyph glyph-name="five.onum_tnum" horiz-adv-x="1742" 
d="M1428 1481v-173h-660l-139 -487q51 12 98 12q206 0 373 -91.5t262.5 -256t95.5 -369.5q0 -153 -55.5 -286t-151.5 -227t-232 -148t-292 -54q-181 0 -339.5 87.5t-259.5 246.5l143 101q79 -125 201 -194t255 -69q150 0 274.5 72t196.5 197t72 274t-72 274t-196.5 197
t-274.5 72q-216 0 -372 -113l267 935h806z" />
    <glyph glyph-name="six.onum_tnum" horiz-adv-x="1742" 
d="M349 1153l688 895h225l-512 -664q63 17 128 17q142 0 271.5 -57t223.5 -153.5t149.5 -229t55.5 -277.5t-55.5 -277.5t-149.5 -228.5t-223.5 -153t-271.5 -57q-141 0 -270.5 57t-223.5 153t-149.5 228.5t-55.5 277.5q0 247 170 469zM878 1227q-106 0 -202 -44.5t-163 -119
t-106.5 -174t-39.5 -205.5q0 -105 39 -203.5t105.5 -173.5t162.5 -120.5t204 -45.5q107 0 203 44.5t163 119t106.5 174t39.5 205.5q0 105 -39 203.5t-105.5 173.5t-163 120.5t-204.5 45.5z" />
    <glyph glyph-name="seven.onum_tnum" horiz-adv-x="1742" 
d="M1357 1308h-1188v173h1509l-1239 -2055h-215z" />
    <glyph glyph-name="eight.onum_tnum" horiz-adv-x="1742" 
d="M874 2077q245 0 405 -156.5t160 -390.5q0 -81 -25.5 -160t-87.5 -158.5t-154 -135.5q163 -84 245.5 -224.5t82.5 -289.5q0 -121 -47 -230t-128.5 -189t-199 -127.5t-251.5 -47.5q-136 0 -253.5 46.5t-199 126.5t-128 189.5t-46.5 231.5q0 150 82.5 289t245.5 225
q-137 81 -202 204t-65 250q0 234 161 390.5t405 156.5zM874 982q-185 0 -312 -122t-127 -298t127.5 -298.5t311.5 -122.5q183 0 310.5 122.5t127.5 298.5q0 175 -127.5 297.5t-310.5 122.5zM874 1912q-159 0 -272.5 -110.5t-113.5 -266.5q0 -158 113 -269.5t273 -111.5
q158 0 271.5 112t113.5 269q0 156 -113.5 266.5t-271.5 110.5z" />
    <glyph glyph-name="nine.onum_tnum" horiz-adv-x="1742" 
d="M1397 325l-691 -899h-225l515 667q-67 -16 -129 -16q-189 0 -350 96.5t-255 261.5t-94 359q0 145 55.5 277.5t149.5 228.5t223.5 153t270.5 57t270.5 -57t223.5 -153t149.5 -228.5t55.5 -277.5q0 -249 -169 -469zM867 1337q-142 0 -260.5 -75.5t-185 -200.5t-66.5 -267
q0 -105 39 -203.5t105.5 -173.5t163 -120.5t204.5 -45.5q107 0 203 44.5t163 118.5t106.5 173.5t39.5 206.5q0 140 -65.5 264.5t-184.5 201.5t-262 77z" />
    <glyph glyph-name="dollar.onum_tnum" horiz-adv-x="1742" 
d="M1318 1825l-131 -105q-91 96 -172 143t-166 47q-123 0 -209 -71.5t-86 -208.5q0 -43 12.5 -85.5t30 -76.5t51.5 -72.5t61 -65t76.5 -64l80 -59.5l87.5 -61l79 -54.5l75.5 -56t75 -60.5t67.5 -63t62.5 -69.5t50 -73.5t41 -82.5t24 -89t9.5 -98.5q0 -220 -129.5 -364
t-352.5 -163v-286h-169v290q-333 43 -498 349l150 97q80 -139 189 -208t267 -69q144 0 250 91t106 232q0 41 -8 80t-19.5 71.5t-34.5 67.5t-42 60.5t-53 58t-57.5 52.5t-65.5 51.5l-66 48.5l-70 49l-96.5 67t-91.5 71t-88.5 79.5t-73.5 86t-61.5 99t-37.5 109t-15 124.5
q0 167 112 287.5t279 142.5v286h167v-290q214 -35 390 -244z" />
    <glyph glyph-name="cent.onum_tnum" horiz-adv-x="1742" 
d="M1404 1513l-130 -109q-138 110 -306 110q-95 0 -182.5 -39t-150.5 -105t-100.5 -157t-37.5 -190q0 -132 63 -245t172 -179.5t236 -66.5q202 0 348 154l135 -105q-83 -90 -190.5 -146t-227.5 -69v-231h-166v235q-155 24 -281.5 115.5t-199 233t-72.5 304.5q0 246 158 431
t395 222v236h166v-232q206 -21 371 -167z" />
    <glyph glyph-name="Euro.onum_tnum" horiz-adv-x="1742" 
d="M255 1129h-241l73 155h190q46 228 165.5 409t289 282.5t358.5 101.5q177 0 333.5 -85.5t274.5 -238.5l-128 -113q-99 120 -225 189.5t-255 69.5q-109 0 -211 -48t-181 -131.5t-138 -195t-90 -240.5h1007l-73 -155h-961q-4 -72 -4 -106q0 -41 2 -81h888l-73 -156h-791
q38 -178 125.5 -322t218.5 -231t281 -87q130 0 261.5 73t225.5 196l121 -123q-117 -154 -274 -239t-334 -85q-199 0 -372 109t-287.5 294.5t-157.5 414.5h-259l73 156h167q-3 30 -3 81q0 36 4 106z" />
    <glyph glyph-name="sterling.onum_tnum" horiz-adv-x="1742" 
d="M198 0v117q176 172 253 338.5t77 309.5q0 57 -10 105h-258v164h213l-26 70q-30 81 -44 123t-29 115t-15 138q0 160 74 295.5t216 220t324 84.5q157 0 292.5 -74.5t220.5 -198t106 -268.5h-178q-39 155 -157.5 261t-278.5 106q-183 0 -307 -124t-124 -308q0 -23 1.5 -45
t5 -45l6 -39t10 -41t10.5 -36t13 -38.5t12.5 -33.5t14.5 -37t13 -34q22 -57 33 -91h330v-164h-290q10 -54 10 -123q0 -112 -56.5 -266t-181.5 -308h1064v-173h-1344z" />
    <glyph glyph-name="yen.onum_tnum" horiz-adv-x="1742" 
d="M1346 2051h205l-552 -1027h334v-156h-364v-207h364v-156h-364v-505h-187v505h-366v156h366v207h-366v156h336l-554 1027h205l473 -876z" />
    <glyph glyph-name="parenleft.case" horiz-adv-x="923" 
d="M875 -358h-192q-218 294 -349 676t-131 797q0 781 480 1483h192q-472 -736 -472 -1483t472 -1473z" />
    <glyph glyph-name="parenright.case" horiz-adv-x="923" 
d="M240 -358h-192q472 726 472 1473t-472 1483h192q480 -702 480 -1483q0 -415 -131 -797.5t-349 -675.5z" />
    <glyph glyph-name="bracketleft.case" horiz-adv-x="905" 
d="M475 -165h375v-171h-561v2911h561v-170h-375v-2570z" />
    <glyph glyph-name="bracketright.case" horiz-adv-x="904" 
d="M55 2575h560v-2911h-560v171h375v2570h-375v170z" />
    <glyph glyph-name="braceleft.case" horiz-adv-x="941" 
d="M387 1519v645q0 110 34 192.5t91 128.5t123 68t140 22h129v-166h-114q-113 0 -165 -75.5t-52 -202.5v-622q0 -89 -21.5 -160.5t-57 -116t-74 -71t-80.5 -38.5v-2q33 -9 63.5 -26.5t62 -49t55 -73t38 -102.5t14.5 -133v-627q0 -126 53.5 -202.5t163.5 -76.5h114v-167h-140
q-53 0 -104 13.5t-101.5 45.5t-88 79t-60.5 120.5t-23 164.5v637q0 132 -69.5 218.5t-205.5 92.5v174q136 6 205.5 92t69.5 218z" />
    <glyph glyph-name="braceright.case" horiz-adv-x="941" 
d="M37 -169h113q111 0 165 76.5t54 202.5v627q0 89 21.5 160.5t57 115.5t73.5 70.5t80 37.5v2q-42 12 -80 38.5t-73.5 71t-57 116t-21.5 160.5v622q0 127 -52.5 202.5t-166.5 75.5h-113v166h129q74 0 140 -22t123 -68t91 -128.5t34 -192.5v-645q0 -131 70 -217.5t205 -92.5
v-174q-135 -6 -205 -92.5t-70 -218.5v-637q0 -91 -23 -164.5t-60.5 -120.5t-87.5 -79t-101 -45.5t-104 -13.5h-141v167z" />
    <glyph glyph-name="questiondown.case" horiz-adv-x="1406" 
d="M655 1566v150h186v-218q0 -100 -31 -186t-80.5 -147t-109.5 -116l-119.5 -105.5t-109 -103t-80.5 -120t-31 -145.5q0 -118 58 -220t163 -164t233 -62q97 0 179.5 36t137.5 96t90 132.5t45 149.5h177q-5 -118 -57 -227t-136 -189t-198.5 -127.5t-237.5 -47.5
q-141 0 -263 52t-204.5 139t-129.5 201t-47 237q0 79 19.5 147.5t52 119.5t75 96.5t89 85.5l93.5 80t89.5 86t75 98t52 121.5t19.5 150.5zM748 2256q60 0 103 -42.5t43 -102.5t-43 -103t-103 -43t-103 43t-43 103t43 102.5t103 42.5z" />
    <glyph glyph-name="exclamdown.case" horiz-adv-x="779" 
d="M395 2256q60 0 103 -42.5t43 -102.5t-43 -103t-103 -43t-103 43t-43 103t43 102.5t103 42.5zM302 1716h187v-1732h-187v1732z" />
    <glyph glyph-name="at.case" horiz-adv-x="2786" 
d="M1980 1672v-801q-254 -175 -576 -175q-152 0 -276 54t-199.5 162t-75.5 252q0 207 142.5 326t374.5 119q118 0 229.5 -48.5t193.5 -144.5v167q0 83 -13 153.5t-47.5 139.5t-88 116.5t-141 77t-201.5 29.5q-263 0 -473.5 -113.5t-333 -326.5t-122.5 -490q0 -209 77.5 -398
t212.5 -328t328 -220.5t413 -81.5t413 81t328 219.5t212.5 327.5t77.5 400q0 179 -53 335l170 72q71 -185 71 -407q0 -164 -43 -320t-120.5 -288t-189 -242.5t-245 -187.5t-293 -120t-328.5 -43q-203 0 -390 60.5t-336.5 171t-261 258t-171.5 331t-60 380.5
q0 195 56.5 368.5t158.5 306.5t240.5 230t307.5 147.5t354 50.5q302 0 490 -166.5t188 -433.5zM1793 971v227q-68 113 -178.5 176t-252.5 63q-134 0 -227.5 -76t-93.5 -200q0 -140 106 -216.5t277 -76.5q183 0 369 103z" />
    <glyph glyph-name="guilsinglleft.case" horiz-adv-x="898" 
d="M96 1120l451 638h199l-411 -638l411 -638h-199z" />
    <glyph glyph-name="guilsinglright.case" horiz-adv-x="900" 
d="M573 1120l-412 638h198l452 -638l-452 -638h-197z" />
    <glyph glyph-name="guillemotleft.case" horiz-adv-x="1453" 
d="M96 1120l452 638h197l-410 -638l410 -638h-197zM651 1120l452 638h197l-411 -638l412 -638h-198z" />
    <glyph glyph-name="guillemotright.case" horiz-adv-x="1455" 
d="M573 1120l-412 638h197l452 -638l-452 -638h-197zM1126 1120l-409 638h197l452 -638l-452 -638h-197z" />
    <glyph glyph-name="hyphen.case" horiz-adv-x="1216" 
d="M186 1203h849v-167h-849v167z" />
    <glyph glyph-name="endash.case" horiz-adv-x="1974" 
d="M186 1197h1607v-154h-1607v154z" />
    <glyph glyph-name="emdash.case" horiz-adv-x="3527" 
d="M186 1197h3160v-154h-3160v154z" />
    <glyph glyph-name="periodcentered.case" horiz-adv-x="698" 
d="M355 1265q60 0 103 -42.5t43 -102.5t-43 -103t-103 -43t-103 43t-43 103t43 102.5t103 42.5z" />
    </font>
</defs>
</svg>
